<mxfile host="app.diagrams.net" modified="2023-09-11T09:24:49.852Z" agent="Mozilla/5.0 (Macintosh; Intel Mac OS X 10_15_7) AppleWebKit/537.36 (KHTML, like Gecko) Chrome/116.0.0.0 Safari/537.36" etag="BLveyXmSugnIRakLBqsu" version="21.7.4" type="github">
  <diagram id="u0rdx8rHvjp24UAevguv" name="第 1 页">
    <mxGraphModel dx="1015" dy="732" grid="0" gridSize="10" guides="0" tooltips="1" connect="1" arrows="1" fold="1" page="0" pageScale="1" pageWidth="827" pageHeight="1169" math="0" shadow="0">
      <root>
        <mxCell id="0" />
        <mxCell id="1" parent="0" />
        <mxCell id="bdZlpHLl_n6nNWDZMnuX-60" value="obj" style="swimlane;fontStyle=0;childLayout=stackLayout;horizontal=1;startSize=26;fillColor=none;horizontalStack=0;resizeParent=1;resizeParentMax=0;resizeLast=0;collapsible=1;marginBottom=0;strokeWidth=1;fontFamily=Times New Roman;fontSize=14;" parent="1" vertex="1">
          <mxGeometry x="205" y="456" width="180" height="52" as="geometry" />
        </mxCell>
        <mxCell id="bdZlpHLl_n6nNWDZMnuX-61" value="isa: Class(objc_class)" style="text;strokeColor=#666666;fillColor=#f5f5f5;align=left;verticalAlign=top;spacingLeft=4;spacingRight=4;overflow=hidden;rotatable=0;points=[[0,0.5],[1,0.5]];portConstraint=eastwest;fontColor=#333333;fontFamily=Times New Roman;fontSize=14;" parent="bdZlpHLl_n6nNWDZMnuX-60" vertex="1">
          <mxGeometry y="26" width="180" height="26" as="geometry" />
        </mxCell>
        <mxCell id="bdZlpHLl_n6nNWDZMnuX-70" value="objc_class: objc_object" style="swimlane;fontStyle=0;childLayout=stackLayout;horizontal=1;startSize=26;fillColor=none;horizontalStack=0;resizeParent=1;resizeParentMax=0;resizeLast=0;collapsible=1;marginBottom=0;strokeWidth=1;fontFamily=Times New Roman;fontSize=14;" parent="1" vertex="1">
          <mxGeometry x="409" y="380" width="180" height="104" as="geometry" />
        </mxCell>
        <mxCell id="bdZlpHLl_n6nNWDZMnuX-71" value="superclass: objc_class&#xa;" style="text;strokeColor=#666666;fillColor=#f5f5f5;align=left;verticalAlign=top;spacingLeft=4;spacingRight=4;overflow=hidden;rotatable=0;points=[[0,0.5],[1,0.5]];portConstraint=eastwest;fontColor=#333333;fontFamily=Times New Roman;fontSize=14;" parent="bdZlpHLl_n6nNWDZMnuX-70" vertex="1">
          <mxGeometry y="26" width="180" height="26" as="geometry" />
        </mxCell>
        <mxCell id="bdZlpHLl_n6nNWDZMnuX-72" value="cache: cache_t" style="text;strokeColor=#666666;fillColor=#f5f5f5;align=left;verticalAlign=top;spacingLeft=4;spacingRight=4;overflow=hidden;rotatable=0;points=[[0,0.5],[1,0.5]];portConstraint=eastwest;fontColor=#333333;fontFamily=Times New Roman;fontSize=14;" parent="bdZlpHLl_n6nNWDZMnuX-70" vertex="1">
          <mxGeometry y="52" width="180" height="26" as="geometry" />
        </mxCell>
        <mxCell id="bdZlpHLl_n6nNWDZMnuX-73" value="bits: class_data_bits_t" style="text;strokeColor=#666666;fillColor=#f5f5f5;align=left;verticalAlign=top;spacingLeft=4;spacingRight=4;overflow=hidden;rotatable=0;points=[[0,0.5],[1,0.5]];portConstraint=eastwest;fontColor=default;fontFamily=Times New Roman;fontSize=14;" parent="bdZlpHLl_n6nNWDZMnuX-70" vertex="1">
          <mxGeometry y="78" width="180" height="26" as="geometry" />
        </mxCell>
        <mxCell id="bdZlpHLl_n6nNWDZMnuX-74" value="class_rw_t" style="swimlane;fontStyle=0;childLayout=stackLayout;horizontal=1;startSize=26;fillColor=none;horizontalStack=0;resizeParent=1;resizeParentMax=0;resizeLast=0;collapsible=1;marginBottom=0;strokeWidth=1;fontFamily=Times New Roman;fontSize=14;" parent="1" vertex="1">
          <mxGeometry x="610" y="381" width="280" height="156" as="geometry" />
        </mxCell>
        <mxCell id="bdZlpHLl_n6nNWDZMnuX-75" value="flag: unsigned int" style="text;strokeColor=#666666;fillColor=#f5f5f5;align=left;verticalAlign=top;spacingLeft=4;spacingRight=4;overflow=hidden;rotatable=0;points=[[0,0.5],[1,0.5]];portConstraint=eastwest;fontColor=#333333;fontFamily=Times New Roman;fontSize=14;" parent="bdZlpHLl_n6nNWDZMnuX-74" vertex="1">
          <mxGeometry y="26" width="280" height="26" as="geometry" />
        </mxCell>
        <mxCell id="bdZlpHLl_n6nNWDZMnuX-77" value="witness: unsigned short" style="text;strokeColor=#666666;fillColor=#f5f5f5;align=left;verticalAlign=top;spacingLeft=4;spacingRight=4;overflow=hidden;rotatable=0;points=[[0,0.5],[1,0.5]];portConstraint=eastwest;fontColor=default;fontFamily=Times New Roman;fontSize=14;" parent="bdZlpHLl_n6nNWDZMnuX-74" vertex="1">
          <mxGeometry y="52" width="280" height="26" as="geometry" />
        </mxCell>
        <mxCell id="bdZlpHLl_n6nNWDZMnuX-99" value="firstSubclass: Class" style="text;strokeColor=#666666;fillColor=#f5f5f5;align=left;verticalAlign=top;spacingLeft=4;spacingRight=4;overflow=hidden;rotatable=0;points=[[0,0.5],[1,0.5]];portConstraint=eastwest;fontColor=default;fontFamily=Times New Roman;fontSize=14;" parent="bdZlpHLl_n6nNWDZMnuX-74" vertex="1">
          <mxGeometry y="78" width="280" height="26" as="geometry" />
        </mxCell>
        <mxCell id="bdZlpHLl_n6nNWDZMnuX-100" value="nextSiblingClass: Class" style="text;strokeColor=#666666;fillColor=#f5f5f5;align=left;verticalAlign=top;spacingLeft=4;spacingRight=4;overflow=hidden;rotatable=0;points=[[0,0.5],[1,0.5]];portConstraint=eastwest;fontColor=default;fontFamily=Times New Roman;fontSize=14;" parent="bdZlpHLl_n6nNWDZMnuX-74" vertex="1">
          <mxGeometry y="104" width="280" height="26" as="geometry" />
        </mxCell>
        <mxCell id="Mu5xaPjwoIpwzX2P3Aqr-9" value="ro_or_rw_ext: explicit_atomic&lt;unsigned long&gt;" style="text;strokeColor=#666666;fillColor=#f5f5f5;align=left;verticalAlign=top;spacingLeft=4;spacingRight=4;overflow=hidden;rotatable=0;points=[[0,0.5],[1,0.5]];portConstraint=eastwest;fontColor=default;fontFamily=Times New Roman;fontSize=14;" parent="bdZlpHLl_n6nNWDZMnuX-74" vertex="1">
          <mxGeometry y="130" width="280" height="26" as="geometry" />
        </mxCell>
        <mxCell id="bdZlpHLl_n6nNWDZMnuX-78" value="class_rw_ext_t" style="swimlane;fontStyle=0;childLayout=stackLayout;horizontal=1;startSize=26;fillColor=none;horizontalStack=0;resizeParent=1;resizeParentMax=0;resizeLast=0;collapsible=1;marginBottom=0;strokeWidth=1;fontFamily=Times New Roman;fontSize=14;" parent="1" vertex="1">
          <mxGeometry x="913" y="381" width="180" height="182" as="geometry" />
        </mxCell>
        <mxCell id="bdZlpHLl_n6nNWDZMnuX-79" value="ro: class_ro_t" style="text;strokeColor=#666666;fillColor=#f5f5f5;align=left;verticalAlign=top;spacingLeft=4;spacingRight=4;overflow=hidden;rotatable=0;points=[[0,0.5],[1,0.5]];portConstraint=eastwest;fontColor=#333333;fontFamily=Times New Roman;fontSize=14;" parent="bdZlpHLl_n6nNWDZMnuX-78" vertex="1">
          <mxGeometry y="26" width="180" height="26" as="geometry" />
        </mxCell>
        <mxCell id="bdZlpHLl_n6nNWDZMnuX-80" value="methods: method_array_t" style="text;strokeColor=#666666;fillColor=#f5f5f5;align=left;verticalAlign=top;spacingLeft=4;spacingRight=4;overflow=hidden;rotatable=0;points=[[0,0.5],[1,0.5]];portConstraint=eastwest;fontColor=#333333;fontFamily=Times New Roman;fontSize=14;" parent="bdZlpHLl_n6nNWDZMnuX-78" vertex="1">
          <mxGeometry y="52" width="180" height="26" as="geometry" />
        </mxCell>
        <mxCell id="bdZlpHLl_n6nNWDZMnuX-81" value="properties: property_array_t" style="text;strokeColor=#666666;fillColor=#f5f5f5;align=left;verticalAlign=top;spacingLeft=4;spacingRight=4;overflow=hidden;rotatable=0;points=[[0,0.5],[1,0.5]];portConstraint=eastwest;fontColor=default;fontFamily=Times New Roman;fontSize=14;" parent="bdZlpHLl_n6nNWDZMnuX-78" vertex="1">
          <mxGeometry y="78" width="180" height="26" as="geometry" />
        </mxCell>
        <mxCell id="bdZlpHLl_n6nNWDZMnuX-82" value="protocols: protocol_array_t" style="text;strokeColor=#666666;fillColor=#f5f5f5;align=left;verticalAlign=top;spacingLeft=4;spacingRight=4;overflow=hidden;rotatable=0;points=[[0,0.5],[1,0.5]];portConstraint=eastwest;fontColor=default;fontFamily=Times New Roman;fontSize=14;" parent="bdZlpHLl_n6nNWDZMnuX-78" vertex="1">
          <mxGeometry y="104" width="180" height="26" as="geometry" />
        </mxCell>
        <mxCell id="bdZlpHLl_n6nNWDZMnuX-83" value="demangledName: char[]" style="text;strokeColor=#666666;fillColor=#f5f5f5;align=left;verticalAlign=top;spacingLeft=4;spacingRight=4;overflow=hidden;rotatable=0;points=[[0,0.5],[1,0.5]];portConstraint=eastwest;fontColor=default;fontFamily=Times New Roman;fontSize=14;" parent="bdZlpHLl_n6nNWDZMnuX-78" vertex="1">
          <mxGeometry y="130" width="180" height="26" as="geometry" />
        </mxCell>
        <mxCell id="bdZlpHLl_n6nNWDZMnuX-84" value="version: unsigned int" style="text;strokeColor=#666666;fillColor=#f5f5f5;align=left;verticalAlign=top;spacingLeft=4;spacingRight=4;overflow=hidden;rotatable=0;points=[[0,0.5],[1,0.5]];portConstraint=eastwest;fontColor=default;fontFamily=Times New Roman;fontSize=14;" parent="bdZlpHLl_n6nNWDZMnuX-78" vertex="1">
          <mxGeometry y="156" width="180" height="26" as="geometry" />
        </mxCell>
        <mxCell id="bdZlpHLl_n6nNWDZMnuX-85" value="class_ro_t" style="swimlane;fontStyle=0;childLayout=stackLayout;horizontal=1;startSize=26;fillColor=none;horizontalStack=0;resizeParent=1;resizeParentMax=0;resizeLast=0;collapsible=1;marginBottom=0;strokeWidth=1;fontFamily=Times New Roman;fontSize=14;" parent="1" vertex="1">
          <mxGeometry x="1118" y="379" width="386" height="312" as="geometry" />
        </mxCell>
        <mxCell id="bdZlpHLl_n6nNWDZMnuX-86" value="flag: unsigned int" style="text;strokeColor=#666666;fillColor=#f5f5f5;align=left;verticalAlign=top;spacingLeft=4;spacingRight=4;overflow=hidden;rotatable=0;points=[[0,0.5],[1,0.5]];portConstraint=eastwest;fontColor=#333333;fontFamily=Times New Roman;fontSize=14;" parent="bdZlpHLl_n6nNWDZMnuX-85" vertex="1">
          <mxGeometry y="26" width="386" height="26" as="geometry" />
        </mxCell>
        <mxCell id="bdZlpHLl_n6nNWDZMnuX-87" value="instanceStart: unsigned int" style="text;strokeColor=#666666;fillColor=#f5f5f5;align=left;verticalAlign=top;spacingLeft=4;spacingRight=4;overflow=hidden;rotatable=0;points=[[0,0.5],[1,0.5]];portConstraint=eastwest;fontColor=#333333;fontFamily=Times New Roman;fontSize=14;" parent="bdZlpHLl_n6nNWDZMnuX-85" vertex="1">
          <mxGeometry y="52" width="386" height="26" as="geometry" />
        </mxCell>
        <mxCell id="bdZlpHLl_n6nNWDZMnuX-88" value="instanceSize: unsigned int" style="text;strokeColor=#666666;fillColor=#f5f5f5;align=left;verticalAlign=top;spacingLeft=4;spacingRight=4;overflow=hidden;rotatable=0;points=[[0,0.5],[1,0.5]];portConstraint=eastwest;fontColor=default;fontFamily=Times New Roman;fontSize=14;" parent="bdZlpHLl_n6nNWDZMnuX-85" vertex="1">
          <mxGeometry y="78" width="386" height="26" as="geometry" />
        </mxCell>
        <mxCell id="bdZlpHLl_n6nNWDZMnuX-89" value="ivarLayout: const unsigned char []" style="text;strokeColor=#666666;fillColor=#f5f5f5;align=left;verticalAlign=top;spacingLeft=4;spacingRight=4;overflow=hidden;rotatable=0;points=[[0,0.5],[1,0.5]];portConstraint=eastwest;fontColor=default;fontFamily=Times New Roman;fontSize=14;" parent="bdZlpHLl_n6nNWDZMnuX-85" vertex="1">
          <mxGeometry y="104" width="386" height="26" as="geometry" />
        </mxCell>
        <mxCell id="bdZlpHLl_n6nNWDZMnuX-90" value="nonMetaclass: Class" style="text;strokeColor=#666666;fillColor=#f5f5f5;align=left;verticalAlign=top;spacingLeft=4;spacingRight=4;overflow=hidden;rotatable=0;points=[[0,0.5],[1,0.5]];portConstraint=eastwest;fontColor=default;fontFamily=Times New Roman;fontSize=14;" parent="bdZlpHLl_n6nNWDZMnuX-85" vertex="1">
          <mxGeometry y="130" width="386" height="26" as="geometry" />
        </mxCell>
        <mxCell id="bdZlpHLl_n6nNWDZMnuX-91" value="name: explicit_atomic&lt;const chat *&gt;" style="text;strokeColor=#666666;fillColor=#f5f5f5;align=left;verticalAlign=top;spacingLeft=4;spacingRight=4;overflow=hidden;rotatable=0;points=[[0,0.5],[1,0.5]];portConstraint=eastwest;fontColor=default;fontFamily=Times New Roman;fontSize=14;" parent="bdZlpHLl_n6nNWDZMnuX-85" vertex="1">
          <mxGeometry y="156" width="386" height="26" as="geometry" />
        </mxCell>
        <mxCell id="bdZlpHLl_n6nNWDZMnuX-92" value="baseMethods: WrappedPtr&lt;method_list_t, method_list_t::Ptrauth&gt;" style="text;strokeColor=#666666;fillColor=#f5f5f5;align=left;verticalAlign=top;spacingLeft=4;spacingRight=4;overflow=hidden;rotatable=0;points=[[0,0.5],[1,0.5]];portConstraint=eastwest;fontColor=default;fontFamily=Times New Roman;fontSize=14;" parent="bdZlpHLl_n6nNWDZMnuX-85" vertex="1">
          <mxGeometry y="182" width="386" height="26" as="geometry" />
        </mxCell>
        <mxCell id="bdZlpHLl_n6nNWDZMnuX-93" value="baseProtocols: protocol_list_t []" style="text;strokeColor=#666666;fillColor=#f5f5f5;align=left;verticalAlign=top;spacingLeft=4;spacingRight=4;overflow=hidden;rotatable=0;points=[[0,0.5],[1,0.5]];portConstraint=eastwest;fontColor=default;fontFamily=Times New Roman;fontSize=14;" parent="bdZlpHLl_n6nNWDZMnuX-85" vertex="1">
          <mxGeometry y="208" width="386" height="26" as="geometry" />
        </mxCell>
        <mxCell id="bdZlpHLl_n6nNWDZMnuX-94" value="ivars: const ivar_list_t" style="text;strokeColor=#666666;fillColor=#f5f5f5;align=left;verticalAlign=top;spacingLeft=4;spacingRight=4;overflow=hidden;rotatable=0;points=[[0,0.5],[1,0.5]];portConstraint=eastwest;fontColor=default;fontFamily=Times New Roman;fontSize=14;" parent="bdZlpHLl_n6nNWDZMnuX-85" vertex="1">
          <mxGeometry y="234" width="386" height="26" as="geometry" />
        </mxCell>
        <mxCell id="bdZlpHLl_n6nNWDZMnuX-95" value="weakIvarLayout: unsigned char []" style="text;strokeColor=#666666;fillColor=#f5f5f5;align=left;verticalAlign=top;spacingLeft=4;spacingRight=4;overflow=hidden;rotatable=0;points=[[0,0.5],[1,0.5]];portConstraint=eastwest;fontColor=default;fontFamily=Times New Roman;fontSize=14;" parent="bdZlpHLl_n6nNWDZMnuX-85" vertex="1">
          <mxGeometry y="260" width="386" height="26" as="geometry" />
        </mxCell>
        <mxCell id="bdZlpHLl_n6nNWDZMnuX-96" value="baseProperties: property_list_t" style="text;strokeColor=#666666;fillColor=#f5f5f5;align=left;verticalAlign=top;spacingLeft=4;spacingRight=4;overflow=hidden;rotatable=0;points=[[0,0.5],[1,0.5]];portConstraint=eastwest;fontColor=default;fontFamily=Times New Roman;fontSize=14;" parent="bdZlpHLl_n6nNWDZMnuX-85" vertex="1">
          <mxGeometry y="286" width="386" height="26" as="geometry" />
        </mxCell>
        <mxCell id="Mu5xaPjwoIpwzX2P3Aqr-6" style="edgeStyle=orthogonalEdgeStyle;rounded=0;orthogonalLoop=1;jettySize=auto;html=1;entryX=0.5;entryY=0;entryDx=0;entryDy=0;" parent="1" source="bdZlpHLl_n6nNWDZMnuX-101" target="bdZlpHLl_n6nNWDZMnuX-60" edge="1">
          <mxGeometry relative="1" as="geometry" />
        </mxCell>
        <mxCell id="bdZlpHLl_n6nNWDZMnuX-101" value="objc_object" style="swimlane;fontStyle=0;childLayout=stackLayout;horizontal=1;startSize=26;fillColor=none;horizontalStack=0;resizeParent=1;resizeParentMax=0;resizeLast=0;collapsible=1;marginBottom=0;strokeWidth=1;fontFamily=Times New Roman;fontSize=14;" parent="1" vertex="1">
          <mxGeometry x="205" y="380" width="180" height="52" as="geometry" />
        </mxCell>
        <mxCell id="bdZlpHLl_n6nNWDZMnuX-102" value="isa: isa_t" style="text;strokeColor=#666666;fillColor=#f5f5f5;align=left;verticalAlign=top;spacingLeft=4;spacingRight=4;overflow=hidden;rotatable=0;points=[[0,0.5],[1,0.5]];portConstraint=eastwest;fontColor=#333333;fontFamily=Times New Roman;fontSize=14;" parent="bdZlpHLl_n6nNWDZMnuX-101" vertex="1">
          <mxGeometry y="26" width="180" height="26" as="geometry" />
        </mxCell>
        <mxCell id="Fj1bwM7Rxj8-xUinmKX4-24" style="edgeStyle=orthogonalEdgeStyle;curved=1;rounded=0;orthogonalLoop=1;jettySize=auto;html=1;dashed=1;fontFamily=Times New Roman;fontSize=16;strokeWidth=2;fillColor=#d5e8d4;strokeColor=#82b366;" parent="1" source="Fj1bwM7Rxj8-xUinmKX4-1" target="Fj1bwM7Rxj8-xUinmKX4-13" edge="1">
          <mxGeometry relative="1" as="geometry" />
        </mxCell>
        <mxCell id="Fj1bwM7Rxj8-xUinmKX4-1" value="man: Person" style="swimlane;fontStyle=0;childLayout=stackLayout;horizontal=1;startSize=26;fillColor=none;horizontalStack=0;resizeParent=1;resizeParentMax=0;resizeLast=0;collapsible=1;marginBottom=0;strokeWidth=1;fontFamily=Times New Roman;fontSize=16;" parent="1" vertex="1">
          <mxGeometry x="260" y="1088.5" width="180" height="52" as="geometry" />
        </mxCell>
        <mxCell id="Fj1bwM7Rxj8-xUinmKX4-2" value="isa: Class(objc_class)" style="text;strokeColor=#666666;fillColor=#f5f5f5;align=left;verticalAlign=top;spacingLeft=4;spacingRight=4;overflow=hidden;rotatable=0;points=[[0,0.5],[1,0.5]];portConstraint=eastwest;fontColor=#333333;fontFamily=Times New Roman;fontSize=16;" parent="Fj1bwM7Rxj8-xUinmKX4-1" vertex="1">
          <mxGeometry y="26" width="180" height="26" as="geometry" />
        </mxCell>
        <mxCell id="Fj1bwM7Rxj8-xUinmKX4-21" style="edgeStyle=orthogonalEdgeStyle;orthogonalLoop=1;jettySize=auto;html=1;dashed=1;fontFamily=Times New Roman;fontSize=16;strokeWidth=2;curved=1;strokeColor=#82b366;fillColor=#d5e8d4;" parent="1" source="Fj1bwM7Rxj8-xUinmKX4-3" target="Fj1bwM7Rxj8-xUinmKX4-16" edge="1">
          <mxGeometry relative="1" as="geometry" />
        </mxCell>
        <mxCell id="Fj1bwM7Rxj8-xUinmKX4-3" value="nsobject: NSObject" style="swimlane;fontStyle=0;childLayout=stackLayout;horizontal=1;startSize=26;fillColor=none;horizontalStack=0;resizeParent=1;resizeParentMax=0;resizeLast=0;collapsible=1;marginBottom=0;strokeWidth=1;fontFamily=Times New Roman;fontSize=16;" parent="1" vertex="1">
          <mxGeometry x="260" y="887" width="180" height="52" as="geometry" />
        </mxCell>
        <mxCell id="Fj1bwM7Rxj8-xUinmKX4-4" value="isa: Class(objc_class)" style="text;strokeColor=#666666;fillColor=#f5f5f5;align=left;verticalAlign=top;spacingLeft=4;spacingRight=4;overflow=hidden;rotatable=0;points=[[0,0.5],[1,0.5]];portConstraint=eastwest;fontColor=#333333;fontFamily=Times New Roman;fontSize=16;" parent="Fj1bwM7Rxj8-xUinmKX4-3" vertex="1">
          <mxGeometry y="26" width="180" height="26" as="geometry" />
        </mxCell>
        <mxCell id="Fj1bwM7Rxj8-xUinmKX4-23" style="edgeStyle=orthogonalEdgeStyle;curved=1;rounded=0;orthogonalLoop=1;jettySize=auto;html=1;dashed=1;fontFamily=Times New Roman;fontSize=16;strokeWidth=2;fillColor=#d5e8d4;strokeColor=#82b366;" parent="1" source="Fj1bwM7Rxj8-xUinmKX4-5" target="Fj1bwM7Rxj8-xUinmKX4-14" edge="1">
          <mxGeometry relative="1" as="geometry" />
        </mxCell>
        <mxCell id="Fj1bwM7Rxj8-xUinmKX4-5" value="person: NSObject" style="swimlane;fontStyle=0;childLayout=stackLayout;horizontal=1;startSize=26;fillColor=none;horizontalStack=0;resizeParent=1;resizeParentMax=0;resizeLast=0;collapsible=1;marginBottom=0;strokeWidth=1;fontFamily=Times New Roman;fontSize=16;" parent="1" vertex="1">
          <mxGeometry x="260" y="987" width="180" height="52" as="geometry" />
        </mxCell>
        <mxCell id="Fj1bwM7Rxj8-xUinmKX4-6" value="isa: Class(objc_class)" style="text;strokeColor=#666666;fillColor=#f5f5f5;align=left;verticalAlign=top;spacingLeft=4;spacingRight=4;overflow=hidden;rotatable=0;points=[[0,0.5],[1,0.5]];portConstraint=eastwest;fontColor=#333333;fontFamily=Times New Roman;fontSize=16;" parent="Fj1bwM7Rxj8-xUinmKX4-5" vertex="1">
          <mxGeometry y="26" width="180" height="26" as="geometry" />
        </mxCell>
        <mxCell id="Fj1bwM7Rxj8-xUinmKX4-27" style="edgeStyle=orthogonalEdgeStyle;curved=1;rounded=0;orthogonalLoop=1;jettySize=auto;html=1;dashed=1;fontFamily=Times New Roman;fontSize=16;fillColor=#d5e8d4;strokeColor=#82b366;strokeWidth=2;" parent="1" source="Fj1bwM7Rxj8-xUinmKX4-13" target="Fj1bwM7Rxj8-xUinmKX4-17" edge="1">
          <mxGeometry relative="1" as="geometry" />
        </mxCell>
        <mxCell id="Fj1bwM7Rxj8-xUinmKX4-31" style="edgeStyle=orthogonalEdgeStyle;curved=1;orthogonalLoop=1;jettySize=auto;html=1;entryX=0.5;entryY=1;entryDx=0;entryDy=0;fontFamily=Times New Roman;fontSize=16;strokeColor=#b85450;strokeWidth=2;fillColor=#f8cecc;" parent="1" source="Fj1bwM7Rxj8-xUinmKX4-13" target="Fj1bwM7Rxj8-xUinmKX4-14" edge="1">
          <mxGeometry relative="1" as="geometry" />
        </mxCell>
        <mxCell id="Fj1bwM7Rxj8-xUinmKX4-13" value="manClass: objc_class" style="html=1;fontSize=16;fontFamily=Times New Roman;" parent="1" vertex="1">
          <mxGeometry x="540" y="1097" width="180" height="35" as="geometry" />
        </mxCell>
        <mxCell id="Fj1bwM7Rxj8-xUinmKX4-26" style="edgeStyle=orthogonalEdgeStyle;curved=1;rounded=0;orthogonalLoop=1;jettySize=auto;html=1;entryX=0;entryY=0.5;entryDx=0;entryDy=0;dashed=1;fontFamily=Times New Roman;fontSize=16;fillColor=#d5e8d4;strokeColor=#82b366;strokeWidth=2;" parent="1" source="Fj1bwM7Rxj8-xUinmKX4-14" target="Fj1bwM7Rxj8-xUinmKX4-18" edge="1">
          <mxGeometry relative="1" as="geometry" />
        </mxCell>
        <mxCell id="Fj1bwM7Rxj8-xUinmKX4-32" style="edgeStyle=orthogonalEdgeStyle;curved=1;orthogonalLoop=1;jettySize=auto;html=1;entryX=0.5;entryY=1;entryDx=0;entryDy=0;fontFamily=Times New Roman;fontSize=16;strokeColor=#b85450;strokeWidth=2;fillColor=#f8cecc;" parent="1" source="Fj1bwM7Rxj8-xUinmKX4-14" target="Fj1bwM7Rxj8-xUinmKX4-16" edge="1">
          <mxGeometry relative="1" as="geometry" />
        </mxCell>
        <mxCell id="Fj1bwM7Rxj8-xUinmKX4-14" value="personClass: objc_class" style="html=1;fontSize=16;fontFamily=Times New Roman;" parent="1" vertex="1">
          <mxGeometry x="540" y="995.5" width="180" height="35" as="geometry" />
        </mxCell>
        <mxCell id="Fj1bwM7Rxj8-xUinmKX4-25" style="edgeStyle=orthogonalEdgeStyle;curved=1;rounded=0;orthogonalLoop=1;jettySize=auto;html=1;dashed=1;fontFamily=Times New Roman;fontSize=16;strokeWidth=2;fillColor=#d5e8d4;strokeColor=#82b366;" parent="1" source="Fj1bwM7Rxj8-xUinmKX4-16" target="Fj1bwM7Rxj8-xUinmKX4-19" edge="1">
          <mxGeometry relative="1" as="geometry" />
        </mxCell>
        <mxCell id="Fj1bwM7Rxj8-xUinmKX4-37" value="" style="edgeStyle=orthogonalEdgeStyle;curved=1;orthogonalLoop=1;jettySize=auto;html=1;fontFamily=Times New Roman;fontSize=16;strokeColor=#b85450;strokeWidth=2;fillColor=#f8cecc;" parent="1" source="Fj1bwM7Rxj8-xUinmKX4-16" target="Fj1bwM7Rxj8-xUinmKX4-36" edge="1">
          <mxGeometry relative="1" as="geometry" />
        </mxCell>
        <mxCell id="Fj1bwM7Rxj8-xUinmKX4-16" value="nsobjectClass: objc_class" style="html=1;fontSize=16;fontFamily=Times New Roman;" parent="1" vertex="1">
          <mxGeometry x="540" y="895.5" width="180" height="35" as="geometry" />
        </mxCell>
        <mxCell id="Fj1bwM7Rxj8-xUinmKX4-29" style="edgeStyle=entityRelationEdgeStyle;rounded=0;orthogonalLoop=1;jettySize=auto;html=1;entryX=1;entryY=0.5;entryDx=0;entryDy=0;dashed=1;fontFamily=Times New Roman;fontSize=16;strokeWidth=2;fillColor=#d5e8d4;strokeColor=#82b366;" parent="1" source="Fj1bwM7Rxj8-xUinmKX4-17" target="Fj1bwM7Rxj8-xUinmKX4-19" edge="1">
          <mxGeometry relative="1" as="geometry" />
        </mxCell>
        <mxCell id="Fj1bwM7Rxj8-xUinmKX4-34" style="edgeStyle=orthogonalEdgeStyle;curved=1;orthogonalLoop=1;jettySize=auto;html=1;entryX=0.5;entryY=1;entryDx=0;entryDy=0;fontFamily=Times New Roman;fontSize=16;strokeColor=#b85450;strokeWidth=2;fillColor=#f8cecc;" parent="1" source="Fj1bwM7Rxj8-xUinmKX4-17" target="Fj1bwM7Rxj8-xUinmKX4-18" edge="1">
          <mxGeometry relative="1" as="geometry" />
        </mxCell>
        <mxCell id="Fj1bwM7Rxj8-xUinmKX4-17" value="manMeta: objc_class" style="html=1;fontSize=16;fontFamily=Times New Roman;" parent="1" vertex="1">
          <mxGeometry x="820" y="1097" width="180" height="35" as="geometry" />
        </mxCell>
        <mxCell id="Fj1bwM7Rxj8-xUinmKX4-28" style="edgeStyle=orthogonalEdgeStyle;curved=1;rounded=0;orthogonalLoop=1;jettySize=auto;html=1;entryX=1;entryY=0.5;entryDx=0;entryDy=0;dashed=1;fontFamily=Times New Roman;fontSize=16;exitX=1;exitY=0.5;exitDx=0;exitDy=0;fillColor=#d5e8d4;strokeColor=#82b366;strokeWidth=2;" parent="1" source="Fj1bwM7Rxj8-xUinmKX4-18" target="Fj1bwM7Rxj8-xUinmKX4-19" edge="1">
          <mxGeometry relative="1" as="geometry" />
        </mxCell>
        <mxCell id="Fj1bwM7Rxj8-xUinmKX4-33" style="edgeStyle=orthogonalEdgeStyle;curved=1;orthogonalLoop=1;jettySize=auto;html=1;entryX=0.5;entryY=1;entryDx=0;entryDy=0;fontFamily=Times New Roman;fontSize=16;strokeColor=#b85450;strokeWidth=2;fillColor=#f8cecc;" parent="1" source="Fj1bwM7Rxj8-xUinmKX4-18" target="Fj1bwM7Rxj8-xUinmKX4-19" edge="1">
          <mxGeometry relative="1" as="geometry" />
        </mxCell>
        <mxCell id="Fj1bwM7Rxj8-xUinmKX4-18" value="personMeta: objc_class" style="html=1;fontSize=16;fontFamily=Times New Roman;" parent="1" vertex="1">
          <mxGeometry x="820" y="995.5" width="180" height="35" as="geometry" />
        </mxCell>
        <mxCell id="Fj1bwM7Rxj8-xUinmKX4-35" style="edgeStyle=orthogonalEdgeStyle;curved=1;orthogonalLoop=1;jettySize=auto;html=1;entryX=1;entryY=0;entryDx=0;entryDy=0;fontFamily=Times New Roman;fontSize=16;strokeColor=#b85450;strokeWidth=2;exitX=0.5;exitY=0;exitDx=0;exitDy=0;fillColor=#f8cecc;" parent="1" source="Fj1bwM7Rxj8-xUinmKX4-19" target="Fj1bwM7Rxj8-xUinmKX4-16" edge="1">
          <mxGeometry relative="1" as="geometry" />
        </mxCell>
        <mxCell id="Fj1bwM7Rxj8-xUinmKX4-19" value="nsobjectMeta: objc_class" style="html=1;fontSize=16;fontFamily=Times New Roman;" parent="1" vertex="1">
          <mxGeometry x="820" y="895.5" width="180" height="35" as="geometry" />
        </mxCell>
        <mxCell id="Fj1bwM7Rxj8-xUinmKX4-30" style="edgeStyle=orthogonalEdgeStyle;curved=1;rounded=0;orthogonalLoop=1;jettySize=auto;html=1;entryX=1;entryY=0.5;entryDx=0;entryDy=0;dashed=1;fontFamily=Times New Roman;fontSize=16;fillColor=#d5e8d4;strokeColor=#82b366;strokeWidth=2;" parent="1" source="Fj1bwM7Rxj8-xUinmKX4-19" target="Fj1bwM7Rxj8-xUinmKX4-19" edge="1">
          <mxGeometry relative="1" as="geometry" />
        </mxCell>
        <mxCell id="Fj1bwM7Rxj8-xUinmKX4-36" value="nil" style="html=1;fontSize=16;fontFamily=Times New Roman;" parent="1" vertex="1">
          <mxGeometry x="605" y="807" width="50" height="25" as="geometry" />
        </mxCell>
        <mxCell id="Fj1bwM7Rxj8-xUinmKX4-38" style="edgeStyle=orthogonalEdgeStyle;curved=1;orthogonalLoop=1;jettySize=auto;html=1;fontFamily=Times New Roman;fontSize=16;strokeColor=#b85450;strokeWidth=2;fillColor=#f8cecc;" parent="1" edge="1">
          <mxGeometry relative="1" as="geometry">
            <mxPoint x="166" y="939" as="sourcePoint" />
            <mxPoint x="166" y="889" as="targetPoint" />
          </mxGeometry>
        </mxCell>
        <mxCell id="Fj1bwM7Rxj8-xUinmKX4-39" value="superclass" style="text;html=1;strokeColor=none;fillColor=none;align=center;verticalAlign=middle;whiteSpace=wrap;rounded=0;fontFamily=Times New Roman;fontSize=16;" parent="1" vertex="1">
          <mxGeometry x="180" y="909" width="60" height="30" as="geometry" />
        </mxCell>
        <mxCell id="Fj1bwM7Rxj8-xUinmKX4-40" style="edgeStyle=orthogonalEdgeStyle;curved=1;orthogonalLoop=1;jettySize=auto;html=1;fontFamily=Times New Roman;fontSize=16;strokeColor=#82b366;strokeWidth=2;fillColor=#d5e8d4;dashed=1;" parent="1" edge="1">
          <mxGeometry relative="1" as="geometry">
            <mxPoint x="166" y="1017" as="sourcePoint" />
            <mxPoint x="166" y="967" as="targetPoint" />
          </mxGeometry>
        </mxCell>
        <mxCell id="Fj1bwM7Rxj8-xUinmKX4-41" value="isa" style="text;html=1;strokeColor=none;fillColor=none;align=left;verticalAlign=middle;whiteSpace=wrap;rounded=0;fontFamily=Times New Roman;fontSize=16;" parent="1" vertex="1">
          <mxGeometry x="180" y="987" width="60" height="30" as="geometry" />
        </mxCell>
        <mxCell id="Mu5xaPjwoIpwzX2P3Aqr-3" style="edgeStyle=orthogonalEdgeStyle;rounded=0;orthogonalLoop=1;jettySize=auto;html=1;entryX=1;entryY=0.5;entryDx=0;entryDy=0;" parent="1" source="bdZlpHLl_n6nNWDZMnuX-88" target="bdZlpHLl_n6nNWDZMnuX-81" edge="1">
          <mxGeometry relative="1" as="geometry" />
        </mxCell>
        <mxCell id="Mu5xaPjwoIpwzX2P3Aqr-5" style="edgeStyle=orthogonalEdgeStyle;rounded=0;orthogonalLoop=1;jettySize=auto;html=1;entryX=1;entryY=0.5;entryDx=0;entryDy=0;" parent="1" source="bdZlpHLl_n6nNWDZMnuX-71" target="bdZlpHLl_n6nNWDZMnuX-102" edge="1">
          <mxGeometry relative="1" as="geometry" />
        </mxCell>
        <mxCell id="Mu5xaPjwoIpwzX2P3Aqr-7" style="edgeStyle=orthogonalEdgeStyle;rounded=0;orthogonalLoop=1;jettySize=auto;html=1;" parent="1" source="bdZlpHLl_n6nNWDZMnuX-80" target="bdZlpHLl_n6nNWDZMnuX-77" edge="1">
          <mxGeometry relative="1" as="geometry" />
        </mxCell>
        <mxCell id="Mu5xaPjwoIpwzX2P3Aqr-11" style="edgeStyle=orthogonalEdgeStyle;rounded=0;orthogonalLoop=1;jettySize=auto;html=1;entryX=1;entryY=0.5;entryDx=0;entryDy=0;" parent="1" source="bdZlpHLl_n6nNWDZMnuX-77" target="bdZlpHLl_n6nNWDZMnuX-72" edge="1">
          <mxGeometry relative="1" as="geometry" />
        </mxCell>
        <mxCell id="0qPZz_dZkKlf-X5Oar2l-1" value="method_t" style="swimlane;fontStyle=0;childLayout=stackLayout;horizontal=1;startSize=26;fillColor=none;horizontalStack=0;resizeParent=1;resizeParentMax=0;resizeLast=0;collapsible=1;marginBottom=0;strokeWidth=1;fontFamily=Times New Roman;fontSize=16;" parent="1" vertex="1">
          <mxGeometry x="205" y="41" width="239" height="130" as="geometry" />
        </mxCell>
        <mxCell id="0qPZz_dZkKlf-X5Oar2l-2" value="smallMethodListFlag: unsigned int" style="text;strokeColor=#666666;fillColor=#f5f5f5;align=left;verticalAlign=top;spacingLeft=4;spacingRight=4;overflow=hidden;rotatable=0;points=[[0,0.5],[1,0.5]];portConstraint=eastwest;fontColor=#333333;fontFamily=Times New Roman;fontSize=16;" parent="0qPZz_dZkKlf-X5Oar2l-1" vertex="1">
          <mxGeometry y="26" width="239" height="26" as="geometry" />
        </mxCell>
        <mxCell id="0qPZz_dZkKlf-X5Oar2l-3" value="name: SEL&#xa;    " style="text;strokeColor=#666666;fillColor=#f5f5f5;align=left;verticalAlign=top;spacingLeft=4;spacingRight=4;overflow=hidden;rotatable=0;points=[[0,0.5],[1,0.5]];portConstraint=eastwest;fontColor=#333333;fontFamily=Times New Roman;fontSize=16;" parent="0qPZz_dZkKlf-X5Oar2l-1" vertex="1">
          <mxGeometry y="52" width="239" height="26" as="geometry" />
        </mxCell>
        <mxCell id="0qPZz_dZkKlf-X5Oar2l-4" value="types: const char *" style="text;strokeColor=#666666;fillColor=#f5f5f5;align=left;verticalAlign=top;spacingLeft=4;spacingRight=4;overflow=hidden;rotatable=0;points=[[0,0.5],[1,0.5]];portConstraint=eastwest;fontColor=#333333;fontFamily=Times New Roman;fontSize=16;" parent="0qPZz_dZkKlf-X5Oar2l-1" vertex="1">
          <mxGeometry y="78" width="239" height="26" as="geometry" />
        </mxCell>
        <mxCell id="0qPZz_dZkKlf-X5Oar2l-5" value="imp: MethodListIMP" style="text;strokeColor=#666666;fillColor=#f5f5f5;align=left;verticalAlign=top;spacingLeft=4;spacingRight=4;overflow=hidden;rotatable=0;points=[[0,0.5],[1,0.5]];portConstraint=eastwest;fontColor=#333333;fontFamily=Times New Roman;fontSize=16;" parent="0qPZz_dZkKlf-X5Oar2l-1" vertex="1">
          <mxGeometry y="104" width="239" height="26" as="geometry" />
        </mxCell>
        <mxCell id="0qPZz_dZkKlf-X5Oar2l-6" value="ivar_t" style="swimlane;fontStyle=0;childLayout=stackLayout;horizontal=1;startSize=26;fillColor=none;horizontalStack=0;resizeParent=1;resizeParentMax=0;resizeLast=0;collapsible=1;marginBottom=0;strokeWidth=1;fontFamily=Times New Roman;fontSize=16;" parent="1" vertex="1">
          <mxGeometry x="481" y="41" width="239" height="156" as="geometry" />
        </mxCell>
        <mxCell id="0qPZz_dZkKlf-X5Oar2l-7" value="offset: Int" style="text;strokeColor=#666666;fillColor=#f5f5f5;align=left;verticalAlign=top;spacingLeft=4;spacingRight=4;overflow=hidden;rotatable=0;points=[[0,0.5],[1,0.5]];portConstraint=eastwest;fontColor=#333333;fontFamily=Times New Roman;fontSize=16;" parent="0qPZz_dZkKlf-X5Oar2l-6" vertex="1">
          <mxGeometry y="26" width="239" height="26" as="geometry" />
        </mxCell>
        <mxCell id="0qPZz_dZkKlf-X5Oar2l-8" value="name: const char *" style="text;strokeColor=#666666;fillColor=#f5f5f5;align=left;verticalAlign=top;spacingLeft=4;spacingRight=4;overflow=hidden;rotatable=0;points=[[0,0.5],[1,0.5]];portConstraint=eastwest;fontColor=#333333;fontFamily=Times New Roman;fontSize=16;" parent="0qPZz_dZkKlf-X5Oar2l-6" vertex="1">
          <mxGeometry y="52" width="239" height="26" as="geometry" />
        </mxCell>
        <mxCell id="0qPZz_dZkKlf-X5Oar2l-9" value="types: const char *" style="text;strokeColor=#666666;fillColor=#f5f5f5;align=left;verticalAlign=top;spacingLeft=4;spacingRight=4;overflow=hidden;rotatable=0;points=[[0,0.5],[1,0.5]];portConstraint=eastwest;fontColor=#333333;fontFamily=Times New Roman;fontSize=16;" parent="0qPZz_dZkKlf-X5Oar2l-6" vertex="1">
          <mxGeometry y="78" width="239" height="26" as="geometry" />
        </mxCell>
        <mxCell id="0qPZz_dZkKlf-X5Oar2l-10" value="alignment_row: unsigned int" style="text;strokeColor=#666666;fillColor=#f5f5f5;align=left;verticalAlign=top;spacingLeft=4;spacingRight=4;overflow=hidden;rotatable=0;points=[[0,0.5],[1,0.5]];portConstraint=eastwest;fontColor=#333333;fontFamily=Times New Roman;fontSize=16;" parent="0qPZz_dZkKlf-X5Oar2l-6" vertex="1">
          <mxGeometry y="104" width="239" height="26" as="geometry" />
        </mxCell>
        <mxCell id="0qPZz_dZkKlf-X5Oar2l-11" value="size: unsigned int" style="text;strokeColor=#666666;fillColor=#f5f5f5;align=left;verticalAlign=top;spacingLeft=4;spacingRight=4;overflow=hidden;rotatable=0;points=[[0,0.5],[1,0.5]];portConstraint=eastwest;fontColor=#333333;fontFamily=Times New Roman;fontSize=16;" parent="0qPZz_dZkKlf-X5Oar2l-6" vertex="1">
          <mxGeometry y="130" width="239" height="26" as="geometry" />
        </mxCell>
        <mxCell id="0qPZz_dZkKlf-X5Oar2l-12" value="property_t" style="swimlane;fontStyle=0;childLayout=stackLayout;horizontal=1;startSize=26;fillColor=none;horizontalStack=0;resizeParent=1;resizeParentMax=0;resizeLast=0;collapsible=1;marginBottom=0;strokeWidth=1;fontFamily=Times New Roman;fontSize=16;" parent="1" vertex="1">
          <mxGeometry x="761" y="41" width="239" height="78" as="geometry" />
        </mxCell>
        <mxCell id="0qPZz_dZkKlf-X5Oar2l-13" value="name: const char *" style="text;strokeColor=#666666;fillColor=#f5f5f5;align=left;verticalAlign=top;spacingLeft=4;spacingRight=4;overflow=hidden;rotatable=0;points=[[0,0.5],[1,0.5]];portConstraint=eastwest;fontColor=#333333;fontFamily=Times New Roman;fontSize=16;" parent="0qPZz_dZkKlf-X5Oar2l-12" vertex="1">
          <mxGeometry y="26" width="239" height="26" as="geometry" />
        </mxCell>
        <mxCell id="0qPZz_dZkKlf-X5Oar2l-14" value="attributes: const char *" style="text;strokeColor=#666666;fillColor=#f5f5f5;align=left;verticalAlign=top;spacingLeft=4;spacingRight=4;overflow=hidden;rotatable=0;points=[[0,0.5],[1,0.5]];portConstraint=eastwest;fontColor=#333333;fontFamily=Times New Roman;fontSize=16;" parent="0qPZz_dZkKlf-X5Oar2l-12" vertex="1">
          <mxGeometry y="52" width="239" height="26" as="geometry" />
        </mxCell>
        <mxCell id="0qPZz_dZkKlf-X5Oar2l-18" value="protocol_t" style="swimlane;fontStyle=0;childLayout=stackLayout;horizontal=1;startSize=26;fillColor=none;horizontalStack=0;resizeParent=1;resizeParentMax=0;resizeLast=0;collapsible=1;marginBottom=0;strokeWidth=1;fontFamily=Times New Roman;fontSize=16;" parent="1" vertex="1">
          <mxGeometry x="1047" y="41" width="292" height="260" as="geometry" />
        </mxCell>
        <mxCell id="0qPZz_dZkKlf-X5Oar2l-19" value="mangledName: const char *" style="text;strokeColor=#666666;fillColor=#f5f5f5;align=left;verticalAlign=top;spacingLeft=4;spacingRight=4;overflow=hidden;rotatable=0;points=[[0,0.5],[1,0.5]];portConstraint=eastwest;fontColor=#333333;fontFamily=Times New Roman;fontSize=16;" parent="0qPZz_dZkKlf-X5Oar2l-18" vertex="1">
          <mxGeometry y="26" width="292" height="26" as="geometry" />
        </mxCell>
        <mxCell id="0qPZz_dZkKlf-X5Oar2l-20" value="protocols: protocol_list_t    " style="text;strokeColor=#666666;fillColor=#f5f5f5;align=left;verticalAlign=top;spacingLeft=4;spacingRight=4;overflow=hidden;rotatable=0;points=[[0,0.5],[1,0.5]];portConstraint=eastwest;fontColor=#333333;fontFamily=Times New Roman;fontSize=16;" parent="0qPZz_dZkKlf-X5Oar2l-18" vertex="1">
          <mxGeometry y="52" width="292" height="26" as="geometry" />
        </mxCell>
        <mxCell id="0qPZz_dZkKlf-X5Oar2l-21" value="instanceMethods: method_list_t" style="text;strokeColor=#666666;fillColor=#f5f5f5;align=left;verticalAlign=top;spacingLeft=4;spacingRight=4;overflow=hidden;rotatable=0;points=[[0,0.5],[1,0.5]];portConstraint=eastwest;fontColor=#333333;fontFamily=Times New Roman;fontSize=16;" parent="0qPZz_dZkKlf-X5Oar2l-18" vertex="1">
          <mxGeometry y="78" width="292" height="26" as="geometry" />
        </mxCell>
        <mxCell id="0qPZz_dZkKlf-X5Oar2l-22" value="classMethods: method_list_t" style="text;strokeColor=#666666;fillColor=#f5f5f5;align=left;verticalAlign=top;spacingLeft=4;spacingRight=4;overflow=hidden;rotatable=0;points=[[0,0.5],[1,0.5]];portConstraint=eastwest;fontColor=#333333;fontFamily=Times New Roman;fontSize=16;" parent="0qPZz_dZkKlf-X5Oar2l-18" vertex="1">
          <mxGeometry y="104" width="292" height="26" as="geometry" />
        </mxCell>
        <mxCell id="0qPZz_dZkKlf-X5Oar2l-23" value="optionalInstanceMethods: method_list_t" style="text;strokeColor=#666666;fillColor=#f5f5f5;align=left;verticalAlign=top;spacingLeft=4;spacingRight=4;overflow=hidden;rotatable=0;points=[[0,0.5],[1,0.5]];portConstraint=eastwest;fontColor=#333333;fontFamily=Times New Roman;fontSize=16;" parent="0qPZz_dZkKlf-X5Oar2l-18" vertex="1">
          <mxGeometry y="130" width="292" height="26" as="geometry" />
        </mxCell>
        <mxCell id="0qPZz_dZkKlf-X5Oar2l-24" value="optionalClassMethods: method_list_t" style="text;strokeColor=#666666;fillColor=#f5f5f5;align=left;verticalAlign=top;spacingLeft=4;spacingRight=4;overflow=hidden;rotatable=0;points=[[0,0.5],[1,0.5]];portConstraint=eastwest;fontColor=#333333;fontFamily=Times New Roman;fontSize=16;" parent="0qPZz_dZkKlf-X5Oar2l-18" vertex="1">
          <mxGeometry y="156" width="292" height="26" as="geometry" />
        </mxCell>
        <mxCell id="0qPZz_dZkKlf-X5Oar2l-25" value="instanceProperties: property_list_t" style="text;strokeColor=#666666;fillColor=#f5f5f5;align=left;verticalAlign=top;spacingLeft=4;spacingRight=4;overflow=hidden;rotatable=0;points=[[0,0.5],[1,0.5]];portConstraint=eastwest;fontColor=#333333;fontFamily=Times New Roman;fontSize=16;" parent="0qPZz_dZkKlf-X5Oar2l-18" vertex="1">
          <mxGeometry y="182" width="292" height="26" as="geometry" />
        </mxCell>
        <mxCell id="0qPZz_dZkKlf-X5Oar2l-26" value="size: unsigned int" style="text;strokeColor=#666666;fillColor=#f5f5f5;align=left;verticalAlign=top;spacingLeft=4;spacingRight=4;overflow=hidden;rotatable=0;points=[[0,0.5],[1,0.5]];portConstraint=eastwest;fontColor=#333333;fontFamily=Times New Roman;fontSize=16;" parent="0qPZz_dZkKlf-X5Oar2l-18" vertex="1">
          <mxGeometry y="208" width="292" height="26" as="geometry" />
        </mxCell>
        <mxCell id="0qPZz_dZkKlf-X5Oar2l-27" value="flags: unsigned int" style="text;strokeColor=#666666;fillColor=#f5f5f5;align=left;verticalAlign=top;spacingLeft=4;spacingRight=4;overflow=hidden;rotatable=0;points=[[0,0.5],[1,0.5]];portConstraint=eastwest;fontColor=#333333;fontFamily=Times New Roman;fontSize=16;" parent="0qPZz_dZkKlf-X5Oar2l-18" vertex="1">
          <mxGeometry y="234" width="292" height="26" as="geometry" />
        </mxCell>
        <mxCell id="qxqf3j5dPQHxUQp896H7-2" value="0x00000001003041e0" style="text;html=1;strokeColor=default;fillColor=none;align=center;verticalAlign=middle;whiteSpace=wrap;rounded=0;fontFamily=Times New Roman;fontSize=16;" parent="1" vertex="1">
          <mxGeometry x="266" y="1280" width="168" height="30" as="geometry" />
        </mxCell>
        <mxCell id="qxqf3j5dPQHxUQp896H7-3" value="0000" style="rounded=0;whiteSpace=wrap;html=1;fontFamily=Times New Roman;fontSize=16;" parent="1" vertex="1">
          <mxGeometry x="-39" y="1350" width="40" height="20" as="geometry" />
        </mxCell>
        <mxCell id="qxqf3j5dPQHxUQp896H7-4" value="0000" style="rounded=0;whiteSpace=wrap;html=1;fontFamily=Times New Roman;fontSize=16;" parent="1" vertex="1">
          <mxGeometry x="11" y="1350" width="40" height="20" as="geometry" />
        </mxCell>
        <mxCell id="qxqf3j5dPQHxUQp896H7-5" value="0000" style="rounded=0;whiteSpace=wrap;html=1;fontFamily=Times New Roman;fontSize=16;" parent="1" vertex="1">
          <mxGeometry x="61" y="1350" width="40" height="20" as="geometry" />
        </mxCell>
        <mxCell id="qxqf3j5dPQHxUQp896H7-6" value="0000" style="rounded=0;whiteSpace=wrap;html=1;fontFamily=Times New Roman;fontSize=16;" parent="1" vertex="1">
          <mxGeometry x="111" y="1350" width="40" height="20" as="geometry" />
        </mxCell>
        <mxCell id="qxqf3j5dPQHxUQp896H7-7" value="0000" style="rounded=0;whiteSpace=wrap;html=1;fontFamily=Times New Roman;fontSize=16;fontColor=#FF3333;fontStyle=1" parent="1" vertex="1">
          <mxGeometry x="161" y="1350" width="40" height="20" as="geometry" />
        </mxCell>
        <mxCell id="qxqf3j5dPQHxUQp896H7-8" value="0000" style="rounded=0;whiteSpace=wrap;html=1;fontFamily=Times New Roman;fontSize=16;fontStyle=1;fontColor=#FF3333;" parent="1" vertex="1">
          <mxGeometry x="211" y="1350" width="40" height="20" as="geometry" />
        </mxCell>
        <mxCell id="qxqf3j5dPQHxUQp896H7-9" value="0000" style="rounded=0;whiteSpace=wrap;html=1;fontFamily=Times New Roman;fontSize=16;fontColor=#FF3333;fontStyle=1" parent="1" vertex="1">
          <mxGeometry x="261" y="1350" width="40" height="20" as="geometry" />
        </mxCell>
        <mxCell id="qxqf3j5dPQHxUQp896H7-10" value="0001" style="rounded=0;whiteSpace=wrap;html=1;fontFamily=Times New Roman;fontSize=16;fontColor=#FF3333;fontStyle=1" parent="1" vertex="1">
          <mxGeometry x="311" y="1350" width="40" height="20" as="geometry" />
        </mxCell>
        <mxCell id="qxqf3j5dPQHxUQp896H7-11" value="0000" style="rounded=0;whiteSpace=wrap;html=1;fontFamily=Times New Roman;fontSize=16;fontColor=#FF3333;fontStyle=1" parent="1" vertex="1">
          <mxGeometry x="361" y="1350" width="40" height="20" as="geometry" />
        </mxCell>
        <mxCell id="qxqf3j5dPQHxUQp896H7-12" value="0000" style="rounded=0;whiteSpace=wrap;html=1;fontFamily=Times New Roman;fontSize=16;fontColor=#FF3333;fontStyle=1" parent="1" vertex="1">
          <mxGeometry x="410" y="1350" width="40" height="20" as="geometry" />
        </mxCell>
        <mxCell id="qxqf3j5dPQHxUQp896H7-13" value="0011" style="rounded=0;whiteSpace=wrap;html=1;fontFamily=Times New Roman;fontSize=16;fontColor=#FF3333;fontStyle=1" parent="1" vertex="1">
          <mxGeometry x="461" y="1350" width="40" height="20" as="geometry" />
        </mxCell>
        <mxCell id="qxqf3j5dPQHxUQp896H7-14" value="0000" style="rounded=0;whiteSpace=wrap;html=1;fontFamily=Times New Roman;fontSize=16;fontColor=#FF3333;fontStyle=1" parent="1" vertex="1">
          <mxGeometry x="511" y="1350" width="40" height="20" as="geometry" />
        </mxCell>
        <mxCell id="qxqf3j5dPQHxUQp896H7-15" value="0100" style="rounded=0;whiteSpace=wrap;html=1;fontFamily=Times New Roman;fontSize=16;fontColor=#FF3333;fontStyle=1" parent="1" vertex="1">
          <mxGeometry x="561" y="1350" width="40" height="20" as="geometry" />
        </mxCell>
        <mxCell id="qxqf3j5dPQHxUQp896H7-16" value="0001" style="rounded=0;whiteSpace=wrap;html=1;fontFamily=Times New Roman;fontSize=16;fontColor=#FF3333;fontStyle=1" parent="1" vertex="1">
          <mxGeometry x="611" y="1350" width="40" height="20" as="geometry" />
        </mxCell>
        <mxCell id="qxqf3j5dPQHxUQp896H7-17" value="1110" style="rounded=0;whiteSpace=wrap;html=1;fontFamily=Times New Roman;fontSize=16;fontColor=#FF3333;fontStyle=1" parent="1" vertex="1">
          <mxGeometry x="661" y="1350" width="40" height="20" as="geometry" />
        </mxCell>
        <mxCell id="qxqf3j5dPQHxUQp896H7-18" value="&lt;b&gt;&lt;font color=&quot;#ff3333&quot;&gt;0&lt;/font&gt;&lt;/b&gt;000" style="rounded=0;whiteSpace=wrap;html=1;fontFamily=Times New Roman;fontSize=16;" parent="1" vertex="1">
          <mxGeometry x="711" y="1350" width="40" height="20" as="geometry" />
        </mxCell>
        <mxCell id="qxqf3j5dPQHxUQp896H7-22" value="" style="endArrow=classic;startArrow=classic;html=1;rounded=0;fontFamily=Times New Roman;fontSize=16;" parent="1" edge="1">
          <mxGeometry width="50" height="50" relative="1" as="geometry">
            <mxPoint x="-8" y="1340" as="sourcePoint" />
            <mxPoint x="262" y="1300" as="targetPoint" />
          </mxGeometry>
        </mxCell>
        <mxCell id="qxqf3j5dPQHxUQp896H7-24" value="" style="endArrow=classic;startArrow=classic;html=1;rounded=0;fontFamily=Times New Roman;fontSize=16;" parent="1" edge="1">
          <mxGeometry width="50" height="50" relative="1" as="geometry">
            <mxPoint x="710.0000000000005" y="1340" as="sourcePoint" />
            <mxPoint x="440.0000000000002" y="1300" as="targetPoint" />
          </mxGeometry>
        </mxCell>
        <mxCell id="qxqf3j5dPQHxUQp896H7-26" value="" style="endArrow=classic;startArrow=classic;html=1;rounded=0;fontFamily=Times New Roman;fontSize=16;fontColor=#FF3333;" parent="1" edge="1">
          <mxGeometry width="50" height="50" relative="1" as="geometry">
            <mxPoint x="720" y="1380" as="sourcePoint" />
            <mxPoint x="750" y="1380" as="targetPoint" />
          </mxGeometry>
        </mxCell>
        <mxCell id="qxqf3j5dPQHxUQp896H7-27" value="" style="endArrow=classic;startArrow=classic;html=1;rounded=0;fontFamily=Times New Roman;fontSize=16;fontColor=#FF3333;" parent="1" edge="1">
          <mxGeometry width="50" height="50" relative="1" as="geometry">
            <mxPoint x="150" y="1380" as="sourcePoint" />
            <mxPoint x="-40" y="1380" as="targetPoint" />
          </mxGeometry>
        </mxCell>
        <mxCell id="qxqf3j5dPQHxUQp896H7-29" value="0000" style="rounded=0;whiteSpace=wrap;html=1;fontFamily=Times New Roman;fontSize=16;" parent="1" vertex="1">
          <mxGeometry x="-39" y="1431" width="40" height="20" as="geometry" />
        </mxCell>
        <mxCell id="qxqf3j5dPQHxUQp896H7-30" value="0000" style="rounded=0;whiteSpace=wrap;html=1;fontFamily=Times New Roman;fontSize=16;" parent="1" vertex="1">
          <mxGeometry x="11" y="1431" width="40" height="20" as="geometry" />
        </mxCell>
        <mxCell id="qxqf3j5dPQHxUQp896H7-31" value="0000" style="rounded=0;whiteSpace=wrap;html=1;fontFamily=Times New Roman;fontSize=16;" parent="1" vertex="1">
          <mxGeometry x="61" y="1431" width="40" height="20" as="geometry" />
        </mxCell>
        <mxCell id="qxqf3j5dPQHxUQp896H7-32" value="0000" style="rounded=0;whiteSpace=wrap;html=1;fontFamily=Times New Roman;fontSize=16;" parent="1" vertex="1">
          <mxGeometry x="111" y="1431" width="40" height="20" as="geometry" />
        </mxCell>
        <mxCell id="qxqf3j5dPQHxUQp896H7-33" value="0000" style="rounded=0;whiteSpace=wrap;html=1;fontFamily=Times New Roman;fontSize=16;fontColor=#FF3333;fontStyle=1" parent="1" vertex="1">
          <mxGeometry x="161" y="1431" width="40" height="20" as="geometry" />
        </mxCell>
        <mxCell id="qxqf3j5dPQHxUQp896H7-34" value="0000" style="rounded=0;whiteSpace=wrap;html=1;fontFamily=Times New Roman;fontSize=16;fontStyle=1;fontColor=#FF3333;" parent="1" vertex="1">
          <mxGeometry x="211" y="1431" width="40" height="20" as="geometry" />
        </mxCell>
        <mxCell id="qxqf3j5dPQHxUQp896H7-35" value="0000" style="rounded=0;whiteSpace=wrap;html=1;fontFamily=Times New Roman;fontSize=16;fontColor=#FF3333;fontStyle=1" parent="1" vertex="1">
          <mxGeometry x="261" y="1431" width="40" height="20" as="geometry" />
        </mxCell>
        <mxCell id="qxqf3j5dPQHxUQp896H7-36" value="0001" style="rounded=0;whiteSpace=wrap;html=1;fontFamily=Times New Roman;fontSize=16;fontColor=#FF3333;fontStyle=1" parent="1" vertex="1">
          <mxGeometry x="311" y="1431" width="40" height="20" as="geometry" />
        </mxCell>
        <mxCell id="qxqf3j5dPQHxUQp896H7-37" value="0000" style="rounded=0;whiteSpace=wrap;html=1;fontFamily=Times New Roman;fontSize=16;fontColor=#FF3333;fontStyle=1" parent="1" vertex="1">
          <mxGeometry x="361" y="1431" width="40" height="20" as="geometry" />
        </mxCell>
        <mxCell id="qxqf3j5dPQHxUQp896H7-38" value="0000" style="rounded=0;whiteSpace=wrap;html=1;fontFamily=Times New Roman;fontSize=16;fontColor=#FF3333;fontStyle=1" parent="1" vertex="1">
          <mxGeometry x="410" y="1431" width="40" height="20" as="geometry" />
        </mxCell>
        <mxCell id="qxqf3j5dPQHxUQp896H7-39" value="0011" style="rounded=0;whiteSpace=wrap;html=1;fontFamily=Times New Roman;fontSize=16;fontColor=#FF3333;fontStyle=1" parent="1" vertex="1">
          <mxGeometry x="461" y="1431" width="40" height="20" as="geometry" />
        </mxCell>
        <mxCell id="qxqf3j5dPQHxUQp896H7-40" value="0000" style="rounded=0;whiteSpace=wrap;html=1;fontFamily=Times New Roman;fontSize=16;fontColor=#FF3333;fontStyle=1" parent="1" vertex="1">
          <mxGeometry x="511" y="1431" width="40" height="20" as="geometry" />
        </mxCell>
        <mxCell id="qxqf3j5dPQHxUQp896H7-41" value="0100" style="rounded=0;whiteSpace=wrap;html=1;fontFamily=Times New Roman;fontSize=16;fontColor=#FF3333;fontStyle=1" parent="1" vertex="1">
          <mxGeometry x="561" y="1431" width="40" height="20" as="geometry" />
        </mxCell>
        <mxCell id="qxqf3j5dPQHxUQp896H7-42" value="0001" style="rounded=0;whiteSpace=wrap;html=1;fontFamily=Times New Roman;fontSize=16;fontColor=#FF3333;fontStyle=1" parent="1" vertex="1">
          <mxGeometry x="611" y="1431" width="40" height="20" as="geometry" />
        </mxCell>
        <mxCell id="qxqf3j5dPQHxUQp896H7-43" value="1110" style="rounded=0;whiteSpace=wrap;html=1;fontFamily=Times New Roman;fontSize=16;fontColor=#FF3333;fontStyle=1" parent="1" vertex="1">
          <mxGeometry x="661" y="1431" width="40" height="20" as="geometry" />
        </mxCell>
        <mxCell id="qxqf3j5dPQHxUQp896H7-44" value="&lt;b&gt;&lt;font color=&quot;#ff3333&quot;&gt;0&lt;/font&gt;&lt;/b&gt;000" style="rounded=0;whiteSpace=wrap;html=1;fontFamily=Times New Roman;fontSize=16;" parent="1" vertex="1">
          <mxGeometry x="711" y="1431" width="40" height="20" as="geometry" />
        </mxCell>
        <mxCell id="Bgwc9yakU7pmDpo5tKvI-65" value="" style="group;fillColor=#d5e8d4;strokeColor=#82b366;" parent="1" vertex="1" connectable="0">
          <mxGeometry x="1382" y="1020" width="768" height="48" as="geometry" />
        </mxCell>
        <mxCell id="Bgwc9yakU7pmDpo5tKvI-1" value="" style="rounded=0;whiteSpace=wrap;html=1;fillColor=#f8cecc;strokeColor=#b85450;" parent="Bgwc9yakU7pmDpo5tKvI-65" vertex="1">
          <mxGeometry width="48" height="48" as="geometry" />
        </mxCell>
        <mxCell id="Bgwc9yakU7pmDpo5tKvI-2" value="" style="rounded=0;whiteSpace=wrap;html=1;fillColor=#f8cecc;strokeColor=#b85450;" parent="Bgwc9yakU7pmDpo5tKvI-65" vertex="1">
          <mxGeometry x="48" width="48" height="48" as="geometry" />
        </mxCell>
        <mxCell id="Bgwc9yakU7pmDpo5tKvI-3" value="" style="rounded=0;whiteSpace=wrap;html=1;fillColor=#f8cecc;strokeColor=#b85450;" parent="Bgwc9yakU7pmDpo5tKvI-65" vertex="1">
          <mxGeometry x="96" width="48" height="48" as="geometry" />
        </mxCell>
        <mxCell id="Bgwc9yakU7pmDpo5tKvI-4" value="" style="rounded=0;whiteSpace=wrap;html=1;fillColor=#f8cecc;strokeColor=#b85450;" parent="Bgwc9yakU7pmDpo5tKvI-65" vertex="1">
          <mxGeometry x="144" width="48" height="48" as="geometry" />
        </mxCell>
        <mxCell id="Bgwc9yakU7pmDpo5tKvI-5" value="" style="rounded=0;whiteSpace=wrap;html=1;fillColor=#f8cecc;strokeColor=#b85450;" parent="Bgwc9yakU7pmDpo5tKvI-65" vertex="1">
          <mxGeometry x="192" width="48" height="48" as="geometry" />
        </mxCell>
        <mxCell id="Bgwc9yakU7pmDpo5tKvI-6" value="" style="rounded=0;whiteSpace=wrap;html=1;fillColor=#f8cecc;strokeColor=#b85450;" parent="Bgwc9yakU7pmDpo5tKvI-65" vertex="1">
          <mxGeometry x="240" width="48" height="48" as="geometry" />
        </mxCell>
        <mxCell id="Bgwc9yakU7pmDpo5tKvI-7" value="" style="rounded=0;whiteSpace=wrap;html=1;fillColor=#f8cecc;strokeColor=#b85450;" parent="Bgwc9yakU7pmDpo5tKvI-65" vertex="1">
          <mxGeometry x="288" width="48" height="48" as="geometry" />
        </mxCell>
        <mxCell id="Bgwc9yakU7pmDpo5tKvI-8" value="" style="rounded=0;whiteSpace=wrap;html=1;fillColor=#f8cecc;strokeColor=#b85450;" parent="Bgwc9yakU7pmDpo5tKvI-65" vertex="1">
          <mxGeometry x="336" width="48" height="48" as="geometry" />
        </mxCell>
        <mxCell id="Bgwc9yakU7pmDpo5tKvI-9" value="" style="rounded=0;whiteSpace=wrap;html=1;fillColor=#f8cecc;strokeColor=#b85450;" parent="Bgwc9yakU7pmDpo5tKvI-65" vertex="1">
          <mxGeometry x="384" width="48" height="48" as="geometry" />
        </mxCell>
        <mxCell id="Bgwc9yakU7pmDpo5tKvI-10" value="" style="rounded=0;whiteSpace=wrap;html=1;fillColor=#f8cecc;strokeColor=#b85450;" parent="Bgwc9yakU7pmDpo5tKvI-65" vertex="1">
          <mxGeometry x="432" width="48" height="48" as="geometry" />
        </mxCell>
        <mxCell id="Bgwc9yakU7pmDpo5tKvI-11" value="" style="rounded=0;whiteSpace=wrap;html=1;fillColor=#f8cecc;strokeColor=#b85450;" parent="Bgwc9yakU7pmDpo5tKvI-65" vertex="1">
          <mxGeometry x="480" width="48" height="48" as="geometry" />
        </mxCell>
        <mxCell id="Bgwc9yakU7pmDpo5tKvI-12" value="" style="rounded=0;whiteSpace=wrap;html=1;fillColor=#f8cecc;strokeColor=#b85450;" parent="Bgwc9yakU7pmDpo5tKvI-65" vertex="1">
          <mxGeometry x="528" width="48" height="48" as="geometry" />
        </mxCell>
        <mxCell id="Bgwc9yakU7pmDpo5tKvI-13" value="" style="rounded=0;whiteSpace=wrap;html=1;fillColor=#f8cecc;strokeColor=#b85450;" parent="Bgwc9yakU7pmDpo5tKvI-65" vertex="1">
          <mxGeometry x="576" width="48" height="48" as="geometry" />
        </mxCell>
        <mxCell id="Bgwc9yakU7pmDpo5tKvI-14" value="" style="rounded=0;whiteSpace=wrap;html=1;fillColor=#fff2cc;strokeColor=#d6b656;" parent="Bgwc9yakU7pmDpo5tKvI-65" vertex="1">
          <mxGeometry x="624" width="48" height="48" as="geometry" />
        </mxCell>
        <mxCell id="Bgwc9yakU7pmDpo5tKvI-15" value="" style="rounded=0;whiteSpace=wrap;html=1;fillColor=#dae8fc;strokeColor=#6c8ebf;" parent="Bgwc9yakU7pmDpo5tKvI-65" vertex="1">
          <mxGeometry x="672" width="48" height="48" as="geometry" />
        </mxCell>
        <mxCell id="Bgwc9yakU7pmDpo5tKvI-16" value="" style="rounded=0;whiteSpace=wrap;html=1;fillColor=#d5e8d4;strokeColor=#82b366;" parent="Bgwc9yakU7pmDpo5tKvI-65" vertex="1">
          <mxGeometry x="720" width="48" height="48" as="geometry" />
        </mxCell>
        <mxCell id="Bgwc9yakU7pmDpo5tKvI-66" value="" style="group" parent="1" vertex="1" connectable="0">
          <mxGeometry x="1382" y="1145" width="768" height="48" as="geometry" />
        </mxCell>
        <mxCell id="Bgwc9yakU7pmDpo5tKvI-17" value="" style="rounded=0;whiteSpace=wrap;html=1;fillColor=#f8cecc;strokeColor=#b85450;" parent="Bgwc9yakU7pmDpo5tKvI-66" vertex="1">
          <mxGeometry width="48" height="48" as="geometry" />
        </mxCell>
        <mxCell id="Bgwc9yakU7pmDpo5tKvI-18" value="" style="rounded=0;whiteSpace=wrap;html=1;fillColor=#f8cecc;strokeColor=#b85450;" parent="Bgwc9yakU7pmDpo5tKvI-66" vertex="1">
          <mxGeometry x="48" width="48" height="48" as="geometry" />
        </mxCell>
        <mxCell id="Bgwc9yakU7pmDpo5tKvI-19" value="" style="rounded=0;whiteSpace=wrap;html=1;fillColor=#f8cecc;strokeColor=#b85450;" parent="Bgwc9yakU7pmDpo5tKvI-66" vertex="1">
          <mxGeometry x="96" width="48" height="48" as="geometry" />
        </mxCell>
        <mxCell id="Bgwc9yakU7pmDpo5tKvI-20" value="" style="rounded=0;whiteSpace=wrap;html=1;fillColor=#f8cecc;strokeColor=#b85450;" parent="Bgwc9yakU7pmDpo5tKvI-66" vertex="1">
          <mxGeometry x="144" width="48" height="48" as="geometry" />
        </mxCell>
        <mxCell id="Bgwc9yakU7pmDpo5tKvI-21" value="" style="rounded=0;whiteSpace=wrap;html=1;fillColor=#f8cecc;strokeColor=#b85450;" parent="Bgwc9yakU7pmDpo5tKvI-66" vertex="1">
          <mxGeometry x="192" width="48" height="48" as="geometry" />
        </mxCell>
        <mxCell id="Bgwc9yakU7pmDpo5tKvI-22" value="" style="rounded=0;whiteSpace=wrap;html=1;fillColor=#f8cecc;strokeColor=#b85450;" parent="Bgwc9yakU7pmDpo5tKvI-66" vertex="1">
          <mxGeometry x="240" width="48" height="48" as="geometry" />
        </mxCell>
        <mxCell id="Bgwc9yakU7pmDpo5tKvI-23" value="" style="rounded=0;whiteSpace=wrap;html=1;fillColor=#f8cecc;strokeColor=#b85450;" parent="Bgwc9yakU7pmDpo5tKvI-66" vertex="1">
          <mxGeometry x="288" width="48" height="48" as="geometry" />
        </mxCell>
        <mxCell id="Bgwc9yakU7pmDpo5tKvI-24" value="" style="rounded=0;whiteSpace=wrap;html=1;fillColor=#f8cecc;strokeColor=#b85450;" parent="Bgwc9yakU7pmDpo5tKvI-66" vertex="1">
          <mxGeometry x="336" width="48" height="48" as="geometry" />
        </mxCell>
        <mxCell id="Bgwc9yakU7pmDpo5tKvI-25" value="" style="rounded=0;whiteSpace=wrap;html=1;fillColor=#f8cecc;strokeColor=#b85450;" parent="Bgwc9yakU7pmDpo5tKvI-66" vertex="1">
          <mxGeometry x="384" width="48" height="48" as="geometry" />
        </mxCell>
        <mxCell id="Bgwc9yakU7pmDpo5tKvI-26" value="" style="rounded=0;whiteSpace=wrap;html=1;fillColor=#f8cecc;strokeColor=#b85450;" parent="Bgwc9yakU7pmDpo5tKvI-66" vertex="1">
          <mxGeometry x="432" width="48" height="48" as="geometry" />
        </mxCell>
        <mxCell id="Bgwc9yakU7pmDpo5tKvI-27" value="" style="rounded=0;whiteSpace=wrap;html=1;fillColor=#f8cecc;strokeColor=#b85450;" parent="Bgwc9yakU7pmDpo5tKvI-66" vertex="1">
          <mxGeometry x="480" width="48" height="48" as="geometry" />
        </mxCell>
        <mxCell id="Bgwc9yakU7pmDpo5tKvI-28" value="" style="rounded=0;whiteSpace=wrap;html=1;fillColor=#f8cecc;strokeColor=#b85450;" parent="Bgwc9yakU7pmDpo5tKvI-66" vertex="1">
          <mxGeometry x="528" width="48" height="48" as="geometry" />
        </mxCell>
        <mxCell id="Bgwc9yakU7pmDpo5tKvI-29" value="" style="rounded=0;whiteSpace=wrap;html=1;fillColor=#f8cecc;strokeColor=#b85450;" parent="Bgwc9yakU7pmDpo5tKvI-66" vertex="1">
          <mxGeometry x="576" width="48" height="48" as="geometry" />
        </mxCell>
        <mxCell id="Bgwc9yakU7pmDpo5tKvI-30" value="" style="rounded=0;whiteSpace=wrap;html=1;fillColor=#f8cecc;strokeColor=#b85450;" parent="Bgwc9yakU7pmDpo5tKvI-66" vertex="1">
          <mxGeometry x="624" width="48" height="48" as="geometry" />
        </mxCell>
        <mxCell id="Bgwc9yakU7pmDpo5tKvI-31" value="" style="rounded=0;whiteSpace=wrap;html=1;fillColor=#f8cecc;strokeColor=#b85450;" parent="Bgwc9yakU7pmDpo5tKvI-66" vertex="1">
          <mxGeometry x="672" width="48" height="48" as="geometry" />
        </mxCell>
        <mxCell id="Bgwc9yakU7pmDpo5tKvI-32" value="" style="rounded=0;whiteSpace=wrap;html=1;fillColor=#f8cecc;strokeColor=#b85450;" parent="Bgwc9yakU7pmDpo5tKvI-66" vertex="1">
          <mxGeometry x="720" width="48" height="48" as="geometry" />
        </mxCell>
        <mxCell id="Bgwc9yakU7pmDpo5tKvI-67" value="" style="group;fillColor=#f0a30a;strokeColor=#BD7000;fontColor=#000000;" parent="1" vertex="1" connectable="0">
          <mxGeometry x="1382" y="1260" width="768" height="48" as="geometry" />
        </mxCell>
        <mxCell id="Bgwc9yakU7pmDpo5tKvI-33" value="" style="rounded=0;whiteSpace=wrap;html=1;fillColor=#f0a30a;fontColor=#000000;strokeColor=#BD7000;" parent="Bgwc9yakU7pmDpo5tKvI-67" vertex="1">
          <mxGeometry width="48" height="48" as="geometry" />
        </mxCell>
        <mxCell id="Bgwc9yakU7pmDpo5tKvI-34" value="" style="rounded=0;whiteSpace=wrap;html=1;fillColor=#f0a30a;fontColor=#000000;strokeColor=#BD7000;" parent="Bgwc9yakU7pmDpo5tKvI-67" vertex="1">
          <mxGeometry x="48" width="48" height="48" as="geometry" />
        </mxCell>
        <mxCell id="Bgwc9yakU7pmDpo5tKvI-35" value="" style="rounded=0;whiteSpace=wrap;html=1;fillColor=#f0a30a;fontColor=#000000;strokeColor=#BD7000;" parent="Bgwc9yakU7pmDpo5tKvI-67" vertex="1">
          <mxGeometry x="96" width="48" height="48" as="geometry" />
        </mxCell>
        <mxCell id="Bgwc9yakU7pmDpo5tKvI-36" value="" style="rounded=0;whiteSpace=wrap;html=1;fillColor=#fa6800;fontColor=#000000;strokeColor=#C73500;" parent="Bgwc9yakU7pmDpo5tKvI-67" vertex="1">
          <mxGeometry x="144" width="48" height="48" as="geometry" />
        </mxCell>
        <mxCell id="Bgwc9yakU7pmDpo5tKvI-37" value="" style="rounded=0;whiteSpace=wrap;html=1;fillColor=#a0522d;fontColor=#ffffff;strokeColor=#6D1F00;" parent="Bgwc9yakU7pmDpo5tKvI-67" vertex="1">
          <mxGeometry x="192" width="48" height="48" as="geometry" />
        </mxCell>
        <mxCell id="Bgwc9yakU7pmDpo5tKvI-38" value="" style="rounded=0;whiteSpace=wrap;html=1;fillColor=#008a00;fontColor=#ffffff;strokeColor=#005700;" parent="Bgwc9yakU7pmDpo5tKvI-67" vertex="1">
          <mxGeometry x="240" width="48" height="48" as="geometry" />
        </mxCell>
        <mxCell id="Bgwc9yakU7pmDpo5tKvI-39" value="" style="rounded=0;whiteSpace=wrap;html=1;fillColor=#1ba1e2;fontColor=#ffffff;strokeColor=#006EAF;" parent="Bgwc9yakU7pmDpo5tKvI-67" vertex="1">
          <mxGeometry x="288" width="48" height="48" as="geometry" />
        </mxCell>
        <mxCell id="Bgwc9yakU7pmDpo5tKvI-40" value="" style="rounded=0;whiteSpace=wrap;html=1;fillColor=#1ba1e2;fontColor=#ffffff;strokeColor=#006EAF;" parent="Bgwc9yakU7pmDpo5tKvI-67" vertex="1">
          <mxGeometry x="336" width="48" height="48" as="geometry" />
        </mxCell>
        <mxCell id="Bgwc9yakU7pmDpo5tKvI-41" value="" style="rounded=0;whiteSpace=wrap;html=1;fillColor=#1ba1e2;fontColor=#ffffff;strokeColor=#006EAF;" parent="Bgwc9yakU7pmDpo5tKvI-67" vertex="1">
          <mxGeometry x="384" width="48" height="48" as="geometry" />
        </mxCell>
        <mxCell id="Bgwc9yakU7pmDpo5tKvI-42" value="" style="rounded=0;whiteSpace=wrap;html=1;fillColor=#1ba1e2;fontColor=#ffffff;strokeColor=#006EAF;" parent="Bgwc9yakU7pmDpo5tKvI-67" vertex="1">
          <mxGeometry x="432" width="48" height="48" as="geometry" />
        </mxCell>
        <mxCell id="Bgwc9yakU7pmDpo5tKvI-43" value="" style="rounded=0;whiteSpace=wrap;html=1;fillColor=#1ba1e2;fontColor=#ffffff;strokeColor=#006EAF;" parent="Bgwc9yakU7pmDpo5tKvI-67" vertex="1">
          <mxGeometry x="480" width="48" height="48" as="geometry" />
        </mxCell>
        <mxCell id="Bgwc9yakU7pmDpo5tKvI-44" value="" style="rounded=0;whiteSpace=wrap;html=1;fillColor=#1ba1e2;fontColor=#ffffff;strokeColor=#006EAF;" parent="Bgwc9yakU7pmDpo5tKvI-67" vertex="1">
          <mxGeometry x="528" width="48" height="48" as="geometry" />
        </mxCell>
        <mxCell id="Bgwc9yakU7pmDpo5tKvI-45" value="" style="rounded=0;whiteSpace=wrap;html=1;fillColor=#f8cecc;strokeColor=#b85450;" parent="Bgwc9yakU7pmDpo5tKvI-67" vertex="1">
          <mxGeometry x="576" width="48" height="48" as="geometry" />
        </mxCell>
        <mxCell id="Bgwc9yakU7pmDpo5tKvI-46" value="" style="rounded=0;whiteSpace=wrap;html=1;fillColor=#f8cecc;strokeColor=#b85450;" parent="Bgwc9yakU7pmDpo5tKvI-67" vertex="1">
          <mxGeometry x="624" width="48" height="48" as="geometry" />
        </mxCell>
        <mxCell id="Bgwc9yakU7pmDpo5tKvI-47" value="" style="rounded=0;whiteSpace=wrap;html=1;fillColor=#f8cecc;strokeColor=#b85450;" parent="Bgwc9yakU7pmDpo5tKvI-67" vertex="1">
          <mxGeometry x="672" width="48" height="48" as="geometry" />
        </mxCell>
        <mxCell id="Bgwc9yakU7pmDpo5tKvI-48" value="" style="rounded=0;whiteSpace=wrap;html=1;fillColor=#f8cecc;strokeColor=#b85450;" parent="Bgwc9yakU7pmDpo5tKvI-67" vertex="1">
          <mxGeometry x="720" width="48" height="48" as="geometry" />
        </mxCell>
        <mxCell id="Bgwc9yakU7pmDpo5tKvI-68" value="" style="group" parent="1" vertex="1" connectable="0">
          <mxGeometry x="1382" y="1370" width="768" height="48" as="geometry" />
        </mxCell>
        <mxCell id="Bgwc9yakU7pmDpo5tKvI-49" value="" style="rounded=0;whiteSpace=wrap;html=1;fillColor=#f0a30a;strokeColor=#BD7000;fontColor=#000000;" parent="Bgwc9yakU7pmDpo5tKvI-68" vertex="1">
          <mxGeometry width="48" height="48" as="geometry" />
        </mxCell>
        <mxCell id="Bgwc9yakU7pmDpo5tKvI-50" value="" style="rounded=0;whiteSpace=wrap;html=1;fillColor=#f0a30a;strokeColor=#BD7000;fontColor=#000000;" parent="Bgwc9yakU7pmDpo5tKvI-68" vertex="1">
          <mxGeometry x="48" width="48" height="48" as="geometry" />
        </mxCell>
        <mxCell id="Bgwc9yakU7pmDpo5tKvI-51" value="" style="rounded=0;whiteSpace=wrap;html=1;fillColor=#f0a30a;strokeColor=#BD7000;fontColor=#000000;" parent="Bgwc9yakU7pmDpo5tKvI-68" vertex="1">
          <mxGeometry x="96" width="48" height="48" as="geometry" />
        </mxCell>
        <mxCell id="Bgwc9yakU7pmDpo5tKvI-52" value="" style="rounded=0;whiteSpace=wrap;html=1;fillColor=#f0a30a;strokeColor=#BD7000;fontColor=#000000;" parent="Bgwc9yakU7pmDpo5tKvI-68" vertex="1">
          <mxGeometry x="144" width="48" height="48" as="geometry" />
        </mxCell>
        <mxCell id="Bgwc9yakU7pmDpo5tKvI-53" value="" style="rounded=0;whiteSpace=wrap;html=1;fillColor=#f0a30a;strokeColor=#BD7000;fontColor=#000000;" parent="Bgwc9yakU7pmDpo5tKvI-68" vertex="1">
          <mxGeometry x="192" width="48" height="48" as="geometry" />
        </mxCell>
        <mxCell id="Bgwc9yakU7pmDpo5tKvI-54" value="" style="rounded=0;whiteSpace=wrap;html=1;fillColor=#f0a30a;strokeColor=#BD7000;fontColor=#000000;" parent="Bgwc9yakU7pmDpo5tKvI-68" vertex="1">
          <mxGeometry x="240" width="48" height="48" as="geometry" />
        </mxCell>
        <mxCell id="Bgwc9yakU7pmDpo5tKvI-55" value="" style="rounded=0;whiteSpace=wrap;html=1;fillColor=#f0a30a;strokeColor=#BD7000;fontColor=#000000;" parent="Bgwc9yakU7pmDpo5tKvI-68" vertex="1">
          <mxGeometry x="288" width="48" height="48" as="geometry" />
        </mxCell>
        <mxCell id="Bgwc9yakU7pmDpo5tKvI-56" value="" style="rounded=0;whiteSpace=wrap;html=1;fillColor=#f0a30a;strokeColor=#BD7000;fontColor=#000000;" parent="Bgwc9yakU7pmDpo5tKvI-68" vertex="1">
          <mxGeometry x="336" width="48" height="48" as="geometry" />
        </mxCell>
        <mxCell id="Bgwc9yakU7pmDpo5tKvI-57" value="" style="rounded=0;whiteSpace=wrap;html=1;fillColor=#f0a30a;strokeColor=#BD7000;fontColor=#000000;" parent="Bgwc9yakU7pmDpo5tKvI-68" vertex="1">
          <mxGeometry x="384" width="48" height="48" as="geometry" />
        </mxCell>
        <mxCell id="Bgwc9yakU7pmDpo5tKvI-58" value="" style="rounded=0;whiteSpace=wrap;html=1;fillColor=#f0a30a;strokeColor=#BD7000;fontColor=#000000;" parent="Bgwc9yakU7pmDpo5tKvI-68" vertex="1">
          <mxGeometry x="432" width="48" height="48" as="geometry" />
        </mxCell>
        <mxCell id="Bgwc9yakU7pmDpo5tKvI-59" value="" style="rounded=0;whiteSpace=wrap;html=1;fillColor=#f0a30a;strokeColor=#BD7000;fontColor=#000000;" parent="Bgwc9yakU7pmDpo5tKvI-68" vertex="1">
          <mxGeometry x="480" width="48" height="48" as="geometry" />
        </mxCell>
        <mxCell id="Bgwc9yakU7pmDpo5tKvI-60" value="" style="rounded=0;whiteSpace=wrap;html=1;fillColor=#f0a30a;strokeColor=#BD7000;fontColor=#000000;" parent="Bgwc9yakU7pmDpo5tKvI-68" vertex="1">
          <mxGeometry x="528" width="48" height="48" as="geometry" />
        </mxCell>
        <mxCell id="Bgwc9yakU7pmDpo5tKvI-61" value="" style="rounded=0;whiteSpace=wrap;html=1;fillColor=#f0a30a;strokeColor=#BD7000;fontColor=#000000;" parent="Bgwc9yakU7pmDpo5tKvI-68" vertex="1">
          <mxGeometry x="576" width="48" height="48" as="geometry" />
        </mxCell>
        <mxCell id="Bgwc9yakU7pmDpo5tKvI-62" value="" style="rounded=0;whiteSpace=wrap;html=1;fillColor=#f0a30a;strokeColor=#BD7000;fontColor=#000000;" parent="Bgwc9yakU7pmDpo5tKvI-68" vertex="1">
          <mxGeometry x="624" width="48" height="48" as="geometry" />
        </mxCell>
        <mxCell id="Bgwc9yakU7pmDpo5tKvI-63" value="" style="rounded=0;whiteSpace=wrap;html=1;fillColor=#f0a30a;strokeColor=#BD7000;fontColor=#000000;" parent="Bgwc9yakU7pmDpo5tKvI-68" vertex="1">
          <mxGeometry x="672" width="48" height="48" as="geometry" />
        </mxCell>
        <mxCell id="Bgwc9yakU7pmDpo5tKvI-64" value="" style="rounded=0;whiteSpace=wrap;html=1;fillColor=#f0a30a;strokeColor=#BD7000;fontColor=#000000;" parent="Bgwc9yakU7pmDpo5tKvI-68" vertex="1">
          <mxGeometry x="720" width="48" height="48" as="geometry" />
        </mxCell>
        <mxCell id="Bgwc9yakU7pmDpo5tKvI-69" value="0" style="text;html=1;strokeColor=none;fillColor=none;align=center;verticalAlign=middle;whiteSpace=wrap;rounded=0;fontSize=22;fontFamily=Times New Roman;" parent="1" vertex="1">
          <mxGeometry x="2096" y="990" width="60" height="30" as="geometry" />
        </mxCell>
        <mxCell id="Bgwc9yakU7pmDpo5tKvI-70" value="15" style="text;html=1;strokeColor=none;fillColor=none;align=center;verticalAlign=middle;whiteSpace=wrap;rounded=0;fontSize=22;fontFamily=Times New Roman;" parent="1" vertex="1">
          <mxGeometry x="1376" y="990" width="60" height="30" as="geometry" />
        </mxCell>
        <mxCell id="Bgwc9yakU7pmDpo5tKvI-71" value="16" style="text;html=1;strokeColor=none;fillColor=none;align=center;verticalAlign=middle;whiteSpace=wrap;rounded=0;fontSize=22;fontFamily=Times New Roman;" parent="1" vertex="1">
          <mxGeometry x="2096" y="1115" width="60" height="30" as="geometry" />
        </mxCell>
        <mxCell id="Bgwc9yakU7pmDpo5tKvI-72" value="31" style="text;html=1;strokeColor=none;fillColor=none;align=center;verticalAlign=middle;whiteSpace=wrap;rounded=0;fontSize=22;fontFamily=Times New Roman;" parent="1" vertex="1">
          <mxGeometry x="1376" y="1115" width="60" height="30" as="geometry" />
        </mxCell>
        <mxCell id="Bgwc9yakU7pmDpo5tKvI-73" value="32" style="text;html=1;strokeColor=none;fillColor=none;align=center;verticalAlign=middle;whiteSpace=wrap;rounded=0;fontSize=22;fontFamily=Times New Roman;" parent="1" vertex="1">
          <mxGeometry x="2096" y="1230" width="60" height="30" as="geometry" />
        </mxCell>
        <mxCell id="Bgwc9yakU7pmDpo5tKvI-74" value="47" style="text;html=1;strokeColor=none;fillColor=none;align=center;verticalAlign=middle;whiteSpace=wrap;rounded=0;fontSize=22;fontFamily=Times New Roman;" parent="1" vertex="1">
          <mxGeometry x="1376" y="1230" width="60" height="30" as="geometry" />
        </mxCell>
        <mxCell id="Bgwc9yakU7pmDpo5tKvI-75" value="48" style="text;html=1;strokeColor=none;fillColor=none;align=center;verticalAlign=middle;whiteSpace=wrap;rounded=0;fontSize=22;fontFamily=Times New Roman;" parent="1" vertex="1">
          <mxGeometry x="2096" y="1340" width="60" height="30" as="geometry" />
        </mxCell>
        <mxCell id="Bgwc9yakU7pmDpo5tKvI-76" value="63" style="text;html=1;strokeColor=none;fillColor=none;align=center;verticalAlign=middle;whiteSpace=wrap;rounded=0;fontSize=22;fontFamily=Times New Roman;" parent="1" vertex="1">
          <mxGeometry x="1376" y="1340" width="60" height="30" as="geometry" />
        </mxCell>
        <mxCell id="Bgwc9yakU7pmDpo5tKvI-77" value="has_assoc" style="text;whiteSpace=wrap;html=1;fontSize=22;fontFamily=Times New Roman;" parent="1" vertex="1">
          <mxGeometry x="2215" y="1102" width="100" height="36" as="geometry" />
        </mxCell>
        <mxCell id="Bgwc9yakU7pmDpo5tKvI-79" value="nonpointer" style="text;whiteSpace=wrap;html=1;fontSize=22;fontFamily=Times New Roman;" parent="1" vertex="1">
          <mxGeometry x="2218" y="1026" width="100" height="36" as="geometry" />
        </mxCell>
        <mxCell id="Bgwc9yakU7pmDpo5tKvI-80" value="" style="rounded=0;whiteSpace=wrap;html=1;fillColor=#d5e8d4;strokeColor=#82b366;" parent="1" vertex="1">
          <mxGeometry x="2349" y="1020" width="48" height="48" as="geometry" />
        </mxCell>
        <mxCell id="Bgwc9yakU7pmDpo5tKvI-81" value="" style="rounded=0;whiteSpace=wrap;html=1;fillColor=#dae8fc;strokeColor=#6c8ebf;" parent="1" vertex="1">
          <mxGeometry x="2349" y="1096" width="48" height="48" as="geometry" />
        </mxCell>
        <mxCell id="Bgwc9yakU7pmDpo5tKvI-82" value="has_cxxdtor" style="text;whiteSpace=wrap;html=1;fontSize=22;fontFamily=Times New Roman;" parent="1" vertex="1">
          <mxGeometry x="2215" y="1178" width="100" height="36" as="geometry" />
        </mxCell>
        <mxCell id="Bgwc9yakU7pmDpo5tKvI-83" value="" style="rounded=0;whiteSpace=wrap;html=1;fillColor=#fff2cc;strokeColor=#d6b656;" parent="1" vertex="1">
          <mxGeometry x="2352" y="1172" width="48" height="48" as="geometry" />
        </mxCell>
        <mxCell id="Bgwc9yakU7pmDpo5tKvI-84" value="shiftcls" style="text;whiteSpace=wrap;html=1;fontSize=22;fontFamily=Times New Roman;" parent="1" vertex="1">
          <mxGeometry x="2215" y="1255" width="100" height="36" as="geometry" />
        </mxCell>
        <mxCell id="Bgwc9yakU7pmDpo5tKvI-85" value="" style="rounded=0;whiteSpace=wrap;html=1;fillColor=#f8cecc;strokeColor=#b85450;" parent="1" vertex="1">
          <mxGeometry x="2352" y="1249" width="48" height="48" as="geometry" />
        </mxCell>
        <mxCell id="Bgwc9yakU7pmDpo5tKvI-86" value="magic" style="text;whiteSpace=wrap;html=1;fontSize=22;fontFamily=Times New Roman;" parent="1" vertex="1">
          <mxGeometry x="2215" y="1333" width="100" height="36" as="geometry" />
        </mxCell>
        <mxCell id="Bgwc9yakU7pmDpo5tKvI-87" value="" style="rounded=0;whiteSpace=wrap;html=1;fillColor=#1ba1e2;strokeColor=#006EAF;fontColor=#ffffff;" parent="1" vertex="1">
          <mxGeometry x="2352" y="1327" width="48" height="48" as="geometry" />
        </mxCell>
        <mxCell id="Bgwc9yakU7pmDpo5tKvI-88" value="unused" style="text;whiteSpace=wrap;html=1;fontSize=22;fontFamily=Times New Roman;" parent="1" vertex="1">
          <mxGeometry x="2473" y="1102" width="100" height="36" as="geometry" />
        </mxCell>
        <mxCell id="Bgwc9yakU7pmDpo5tKvI-89" value="weakly_referenced" style="text;whiteSpace=wrap;html=1;fontSize=22;fontFamily=Times New Roman;" parent="1" vertex="1">
          <mxGeometry x="2476" y="1026" width="100" height="36" as="geometry" />
        </mxCell>
        <mxCell id="Bgwc9yakU7pmDpo5tKvI-90" value="" style="rounded=0;whiteSpace=wrap;html=1;fillColor=#008a00;strokeColor=#005700;fontColor=#ffffff;" parent="1" vertex="1">
          <mxGeometry x="2679" y="1020" width="48" height="48" as="geometry" />
        </mxCell>
        <mxCell id="Bgwc9yakU7pmDpo5tKvI-91" value="" style="rounded=0;whiteSpace=wrap;html=1;fillColor=#a0522d;strokeColor=#6D1F00;fontColor=#ffffff;" parent="1" vertex="1">
          <mxGeometry x="2679" y="1096" width="48" height="48" as="geometry" />
        </mxCell>
        <mxCell id="Bgwc9yakU7pmDpo5tKvI-92" value="has_sidetable_rc" style="text;whiteSpace=wrap;html=1;fontSize=22;fontFamily=Times New Roman;" parent="1" vertex="1">
          <mxGeometry x="2473" y="1178" width="100" height="36" as="geometry" />
        </mxCell>
        <mxCell id="Bgwc9yakU7pmDpo5tKvI-93" value="" style="rounded=0;whiteSpace=wrap;html=1;fillColor=#fa6800;strokeColor=#C73500;fontColor=#000000;" parent="1" vertex="1">
          <mxGeometry x="2682" y="1172" width="48" height="48" as="geometry" />
        </mxCell>
        <mxCell id="Bgwc9yakU7pmDpo5tKvI-94" value="extra_rc" style="text;whiteSpace=wrap;html=1;fontSize=22;fontFamily=Times New Roman;" parent="1" vertex="1">
          <mxGeometry x="2473" y="1255" width="100" height="36" as="geometry" />
        </mxCell>
        <mxCell id="Bgwc9yakU7pmDpo5tKvI-95" value="" style="rounded=0;whiteSpace=wrap;html=1;fillColor=#f0a30a;strokeColor=#BD7000;fontColor=#000000;" parent="1" vertex="1">
          <mxGeometry x="2682" y="1249" width="48" height="48" as="geometry" />
        </mxCell>
        <mxCell id="fCMs7kJSLmyYdxb7ETPn-23" value="AutoreleasePoolPage" style="swimlane;fontStyle=0;childLayout=stackLayout;horizontal=1;startSize=26;fillColor=#d5e8d4;horizontalStack=0;resizeParent=1;resizeParentMax=0;resizeLast=0;collapsible=1;marginBottom=0;strokeWidth=1;fontFamily=Times New Roman;fontSize=14;strokeColor=#82b366;" parent="1" vertex="1">
          <mxGeometry x="1980" y="41" width="180" height="104" as="geometry" />
        </mxCell>
        <mxCell id="fCMs7kJSLmyYdxb7ETPn-24" value="*next: __unsafe_unretained id;" style="text;strokeColor=#82b366;fillColor=#d5e8d4;align=left;verticalAlign=top;spacingLeft=4;spacingRight=4;overflow=hidden;rotatable=0;points=[[0,0.5],[1,0.5]];portConstraint=eastwest;fontFamily=Times New Roman;fontSize=14;" parent="fCMs7kJSLmyYdxb7ETPn-23" vertex="1">
          <mxGeometry y="26" width="180" height="26" as="geometry" />
        </mxCell>
        <mxCell id="fCMs7kJSLmyYdxb7ETPn-25" value="*parent: AutoreleasePoolPage;" style="text;strokeColor=#82b366;fillColor=#d5e8d4;align=left;verticalAlign=top;spacingLeft=4;spacingRight=4;overflow=hidden;rotatable=0;points=[[0,0.5],[1,0.5]];portConstraint=eastwest;fontFamily=Times New Roman;fontSize=14;" parent="fCMs7kJSLmyYdxb7ETPn-23" vertex="1">
          <mxGeometry y="52" width="180" height="26" as="geometry" />
        </mxCell>
        <mxCell id="fCMs7kJSLmyYdxb7ETPn-29" value="*child: AutoreleasePoolPage;" style="text;strokeColor=#82b366;fillColor=#d5e8d4;align=left;verticalAlign=top;spacingLeft=4;spacingRight=4;overflow=hidden;rotatable=0;points=[[0,0.5],[1,0.5]];portConstraint=eastwest;fontFamily=Times New Roman;fontSize=14;" parent="fCMs7kJSLmyYdxb7ETPn-23" vertex="1">
          <mxGeometry y="78" width="180" height="26" as="geometry" />
        </mxCell>
        <mxCell id="fCMs7kJSLmyYdxb7ETPn-30" value="AutoreleasePoolPage" style="swimlane;fontStyle=0;childLayout=stackLayout;horizontal=1;startSize=26;fillColor=#d5e8d4;horizontalStack=0;resizeParent=1;resizeParentMax=0;resizeLast=0;collapsible=1;marginBottom=0;strokeWidth=1;fontFamily=Times New Roman;fontSize=14;strokeColor=#82b366;" parent="1" vertex="1">
          <mxGeometry x="2200" y="41" width="180" height="104" as="geometry" />
        </mxCell>
        <mxCell id="fCMs7kJSLmyYdxb7ETPn-31" value="*next: __unsafe_unretained id;" style="text;strokeColor=#82b366;fillColor=#d5e8d4;align=left;verticalAlign=top;spacingLeft=4;spacingRight=4;overflow=hidden;rotatable=0;points=[[0,0.5],[1,0.5]];portConstraint=eastwest;fontFamily=Times New Roman;fontSize=14;" parent="fCMs7kJSLmyYdxb7ETPn-30" vertex="1">
          <mxGeometry y="26" width="180" height="26" as="geometry" />
        </mxCell>
        <mxCell id="fCMs7kJSLmyYdxb7ETPn-32" value="*parent: AutoreleasePoolPage;" style="text;strokeColor=#82b366;fillColor=#d5e8d4;align=left;verticalAlign=top;spacingLeft=4;spacingRight=4;overflow=hidden;rotatable=0;points=[[0,0.5],[1,0.5]];portConstraint=eastwest;fontFamily=Times New Roman;fontSize=14;" parent="fCMs7kJSLmyYdxb7ETPn-30" vertex="1">
          <mxGeometry y="52" width="180" height="26" as="geometry" />
        </mxCell>
        <mxCell id="fCMs7kJSLmyYdxb7ETPn-33" value="*child: AutoreleasePoolPage;" style="text;strokeColor=#82b366;fillColor=#d5e8d4;align=left;verticalAlign=top;spacingLeft=4;spacingRight=4;overflow=hidden;rotatable=0;points=[[0,0.5],[1,0.5]];portConstraint=eastwest;fontFamily=Times New Roman;fontSize=14;" parent="fCMs7kJSLmyYdxb7ETPn-30" vertex="1">
          <mxGeometry y="78" width="180" height="26" as="geometry" />
        </mxCell>
        <mxCell id="fCMs7kJSLmyYdxb7ETPn-34" value="AutoreleasePoolPage" style="swimlane;fontStyle=0;childLayout=stackLayout;horizontal=1;startSize=26;fillColor=#d5e8d4;horizontalStack=0;resizeParent=1;resizeParentMax=0;resizeLast=0;collapsible=1;marginBottom=0;strokeWidth=1;fontFamily=Times New Roman;fontSize=14;strokeColor=#82b366;" parent="1" vertex="1">
          <mxGeometry x="2420" y="41" width="180" height="104" as="geometry" />
        </mxCell>
        <mxCell id="fCMs7kJSLmyYdxb7ETPn-35" value="*next: __unsafe_unretained id;" style="text;strokeColor=#82b366;fillColor=#d5e8d4;align=left;verticalAlign=top;spacingLeft=4;spacingRight=4;overflow=hidden;rotatable=0;points=[[0,0.5],[1,0.5]];portConstraint=eastwest;fontFamily=Times New Roman;fontSize=14;" parent="fCMs7kJSLmyYdxb7ETPn-34" vertex="1">
          <mxGeometry y="26" width="180" height="26" as="geometry" />
        </mxCell>
        <mxCell id="fCMs7kJSLmyYdxb7ETPn-36" value="*parent: AutoreleasePoolPage;" style="text;strokeColor=#82b366;fillColor=#d5e8d4;align=left;verticalAlign=top;spacingLeft=4;spacingRight=4;overflow=hidden;rotatable=0;points=[[0,0.5],[1,0.5]];portConstraint=eastwest;fontFamily=Times New Roman;fontSize=14;" parent="fCMs7kJSLmyYdxb7ETPn-34" vertex="1">
          <mxGeometry y="52" width="180" height="26" as="geometry" />
        </mxCell>
        <mxCell id="fCMs7kJSLmyYdxb7ETPn-37" value="*child: AutoreleasePoolPage;" style="text;strokeColor=#82b366;fillColor=#d5e8d4;align=left;verticalAlign=top;spacingLeft=4;spacingRight=4;overflow=hidden;rotatable=0;points=[[0,0.5],[1,0.5]];portConstraint=eastwest;fontFamily=Times New Roman;fontSize=14;" parent="fCMs7kJSLmyYdxb7ETPn-34" vertex="1">
          <mxGeometry y="78" width="180" height="26" as="geometry" />
        </mxCell>
        <mxCell id="fCMs7kJSLmyYdxb7ETPn-41" style="rounded=0;orthogonalLoop=1;jettySize=auto;html=1;entryX=1.009;entryY=0.133;entryDx=0;entryDy=0;entryPerimeter=0;elbow=vertical;exitX=0;exitY=0.5;exitDx=0;exitDy=0;fillColor=#d5e8d4;strokeColor=#82b366;" parent="1" source="fCMs7kJSLmyYdxb7ETPn-32" target="fCMs7kJSLmyYdxb7ETPn-23" edge="1">
          <mxGeometry relative="1" as="geometry" />
        </mxCell>
        <mxCell id="fCMs7kJSLmyYdxb7ETPn-42" style="rounded=0;orthogonalLoop=1;jettySize=auto;html=1;entryX=0.003;entryY=0.133;entryDx=0;entryDy=0;entryPerimeter=0;exitX=1;exitY=0.5;exitDx=0;exitDy=0;fillColor=#d5e8d4;strokeColor=#82b366;" parent="1" source="fCMs7kJSLmyYdxb7ETPn-29" target="fCMs7kJSLmyYdxb7ETPn-30" edge="1">
          <mxGeometry relative="1" as="geometry" />
        </mxCell>
        <mxCell id="fCMs7kJSLmyYdxb7ETPn-43" style="rounded=0;orthogonalLoop=1;jettySize=auto;html=1;entryX=0.006;entryY=0.137;entryDx=0;entryDy=0;entryPerimeter=0;exitX=1;exitY=0.5;exitDx=0;exitDy=0;fillColor=#d5e8d4;strokeColor=#82b366;" parent="1" source="fCMs7kJSLmyYdxb7ETPn-33" target="fCMs7kJSLmyYdxb7ETPn-34" edge="1">
          <mxGeometry relative="1" as="geometry" />
        </mxCell>
        <mxCell id="fCMs7kJSLmyYdxb7ETPn-44" style="rounded=0;orthogonalLoop=1;jettySize=auto;html=1;entryX=1.005;entryY=0.123;entryDx=0;entryDy=0;entryPerimeter=0;exitX=0;exitY=0.5;exitDx=0;exitDy=0;fillColor=#d5e8d4;strokeColor=#82b366;" parent="1" source="fCMs7kJSLmyYdxb7ETPn-36" target="fCMs7kJSLmyYdxb7ETPn-30" edge="1">
          <mxGeometry relative="1" as="geometry" />
        </mxCell>
        <mxCell id="Mirwo72LURuiTHC5TWEZ-25" style="rounded=0;orthogonalLoop=1;jettySize=auto;html=1;entryX=0.001;entryY=0.03;entryDx=0;entryDy=0;entryPerimeter=0;" parent="1" source="Mirwo72LURuiTHC5TWEZ-6" target="Mirwo72LURuiTHC5TWEZ-12" edge="1">
          <mxGeometry relative="1" as="geometry" />
        </mxCell>
        <mxCell id="Mirwo72LURuiTHC5TWEZ-6" value="SideTable" style="swimlane;fontStyle=0;childLayout=stackLayout;horizontal=1;startSize=26;fillColor=#d5e8d4;horizontalStack=0;resizeParent=1;resizeParentMax=0;resizeLast=0;collapsible=1;marginBottom=0;strokeWidth=1;fontFamily=Times New Roman;fontSize=14;strokeColor=#82b366;" parent="1" vertex="1">
          <mxGeometry x="1930" y="301" width="180" height="104" as="geometry" />
        </mxCell>
        <mxCell id="Mirwo72LURuiTHC5TWEZ-7" value="slock: spinlock_t;" style="text;strokeColor=#82b366;fillColor=#d5e8d4;align=left;verticalAlign=top;spacingLeft=4;spacingRight=4;overflow=hidden;rotatable=0;points=[[0,0.5],[1,0.5]];portConstraint=eastwest;fontFamily=Times New Roman;fontSize=14;" parent="Mirwo72LURuiTHC5TWEZ-6" vertex="1">
          <mxGeometry y="26" width="180" height="26" as="geometry" />
        </mxCell>
        <mxCell id="Mirwo72LURuiTHC5TWEZ-8" value="refcnts:  RefcountMap;" style="text;strokeColor=#82b366;fillColor=#d5e8d4;align=left;verticalAlign=top;spacingLeft=4;spacingRight=4;overflow=hidden;rotatable=0;points=[[0,0.5],[1,0.5]];portConstraint=eastwest;fontFamily=Times New Roman;fontSize=14;" parent="Mirwo72LURuiTHC5TWEZ-6" vertex="1">
          <mxGeometry y="52" width="180" height="26" as="geometry" />
        </mxCell>
        <mxCell id="Mirwo72LURuiTHC5TWEZ-9" value="weak_table: weak_table_t" style="text;strokeColor=#82b366;fillColor=#d5e8d4;align=left;verticalAlign=top;spacingLeft=4;spacingRight=4;overflow=hidden;rotatable=0;points=[[0,0.5],[1,0.5]];portConstraint=eastwest;fontFamily=Times New Roman;fontSize=14;" parent="Mirwo72LURuiTHC5TWEZ-6" vertex="1">
          <mxGeometry y="78" width="180" height="26" as="geometry" />
        </mxCell>
        <mxCell id="Mirwo72LURuiTHC5TWEZ-10" value="weak_table_t" style="swimlane;fontStyle=0;childLayout=stackLayout;horizontal=1;startSize=26;fillColor=#d5e8d4;horizontalStack=0;resizeParent=1;resizeParentMax=0;resizeLast=0;collapsible=1;marginBottom=0;strokeWidth=1;fontFamily=Times New Roman;fontSize=14;strokeColor=#82b366;" parent="1" vertex="1">
          <mxGeometry x="2160" y="301" width="180" height="130" as="geometry" />
        </mxCell>
        <mxCell id="Mirwo72LURuiTHC5TWEZ-11" value="weak_entries:  weak_entry_t;" style="text;strokeColor=#82b366;fillColor=#d5e8d4;align=left;verticalAlign=top;spacingLeft=4;spacingRight=4;overflow=hidden;rotatable=0;points=[[0,0.5],[1,0.5]];portConstraint=eastwest;fontFamily=Times New Roman;fontSize=14;" parent="Mirwo72LURuiTHC5TWEZ-10" vertex="1">
          <mxGeometry y="26" width="180" height="26" as="geometry" />
        </mxCell>
        <mxCell id="Mirwo72LURuiTHC5TWEZ-12" value="size_entries: size_t;" style="text;strokeColor=#82b366;fillColor=#d5e8d4;align=left;verticalAlign=top;spacingLeft=4;spacingRight=4;overflow=hidden;rotatable=0;points=[[0,0.5],[1,0.5]];portConstraint=eastwest;fontFamily=Times New Roman;fontSize=14;" parent="Mirwo72LURuiTHC5TWEZ-10" vertex="1">
          <mxGeometry y="52" width="180" height="26" as="geometry" />
        </mxCell>
        <mxCell id="Mirwo72LURuiTHC5TWEZ-13" value="mask: unsigned long;&#xa;" style="text;strokeColor=#82b366;fillColor=#d5e8d4;align=left;verticalAlign=top;spacingLeft=4;spacingRight=4;overflow=hidden;rotatable=0;points=[[0,0.5],[1,0.5]];portConstraint=eastwest;fontFamily=Times New Roman;fontSize=14;" parent="Mirwo72LURuiTHC5TWEZ-10" vertex="1">
          <mxGeometry y="78" width="180" height="26" as="geometry" />
        </mxCell>
        <mxCell id="Mirwo72LURuiTHC5TWEZ-14" value="max_hash_displacement;" style="text;strokeColor=#82b366;fillColor=#d5e8d4;align=left;verticalAlign=top;spacingLeft=4;spacingRight=4;overflow=hidden;rotatable=0;points=[[0,0.5],[1,0.5]];portConstraint=eastwest;fontFamily=Times New Roman;fontSize=14;" parent="Mirwo72LURuiTHC5TWEZ-10" vertex="1">
          <mxGeometry y="104" width="180" height="26" as="geometry" />
        </mxCell>
        <mxCell id="Mirwo72LURuiTHC5TWEZ-15" value="weak_entry_t" style="swimlane;fontStyle=0;childLayout=stackLayout;horizontal=1;startSize=26;fillColor=#d5e8d4;horizontalStack=0;resizeParent=1;resizeParentMax=0;resizeLast=0;collapsible=1;marginBottom=0;strokeWidth=1;fontFamily=Times New Roman;fontSize=14;strokeColor=#82b366;" parent="1" vertex="1">
          <mxGeometry x="2390" y="301" width="227" height="156" as="geometry" />
        </mxCell>
        <mxCell id="DDZ6LUG9_i15dwgVKkXx-1" value="referent: DisguisedPtr&lt;objc_object&gt;" style="text;strokeColor=#82b366;fillColor=#d5e8d4;align=left;verticalAlign=top;spacingLeft=4;spacingRight=4;overflow=hidden;rotatable=0;points=[[0,0.5],[1,0.5]];portConstraint=eastwest;fontFamily=Times New Roman;fontSize=14;" parent="Mirwo72LURuiTHC5TWEZ-15" vertex="1">
          <mxGeometry y="26" width="227" height="26" as="geometry" />
        </mxCell>
        <mxCell id="Mirwo72LURuiTHC5TWEZ-16" value="*referrers: DisguisedPtr&lt;objc_object&gt;" style="text;strokeColor=#82b366;fillColor=#d5e8d4;align=left;verticalAlign=top;spacingLeft=4;spacingRight=4;overflow=hidden;rotatable=0;points=[[0,0.5],[1,0.5]];portConstraint=eastwest;fontFamily=Times New Roman;fontSize=14;" parent="Mirwo72LURuiTHC5TWEZ-15" vertex="1">
          <mxGeometry y="52" width="227" height="26" as="geometry" />
        </mxCell>
        <mxCell id="Mirwo72LURuiTHC5TWEZ-17" value="out_of_line_nees:  2 bit" style="text;strokeColor=#82b366;fillColor=#d5e8d4;align=left;verticalAlign=top;spacingLeft=4;spacingRight=4;overflow=hidden;rotatable=0;points=[[0,0.5],[1,0.5]];portConstraint=eastwest;fontFamily=Times New Roman;fontSize=14;" parent="Mirwo72LURuiTHC5TWEZ-15" vertex="1">
          <mxGeometry y="78" width="227" height="26" as="geometry" />
        </mxCell>
        <mxCell id="Mirwo72LURuiTHC5TWEZ-18" value="num_refs: uintptr_t" style="text;strokeColor=#82b366;fillColor=#d5e8d4;align=left;verticalAlign=top;spacingLeft=4;spacingRight=4;overflow=hidden;rotatable=0;points=[[0,0.5],[1,0.5]];portConstraint=eastwest;fontFamily=Times New Roman;fontSize=14;" parent="Mirwo72LURuiTHC5TWEZ-15" vertex="1">
          <mxGeometry y="104" width="227" height="26" as="geometry" />
        </mxCell>
        <mxCell id="Mirwo72LURuiTHC5TWEZ-19" value="max_hash_displacement: uintptr_t" style="text;strokeColor=#82b366;fillColor=#d5e8d4;align=left;verticalAlign=top;spacingLeft=4;spacingRight=4;overflow=hidden;rotatable=0;points=[[0,0.5],[1,0.5]];portConstraint=eastwest;fontFamily=Times New Roman;fontSize=14;" parent="Mirwo72LURuiTHC5TWEZ-15" vertex="1">
          <mxGeometry y="130" width="227" height="26" as="geometry" />
        </mxCell>
        <mxCell id="Mirwo72LURuiTHC5TWEZ-26" style="rounded=0;orthogonalLoop=1;jettySize=auto;html=1;exitX=0.996;exitY=-0.004;exitDx=0;exitDy=0;exitPerimeter=0;" parent="1" source="Mirwo72LURuiTHC5TWEZ-12" edge="1">
          <mxGeometry relative="1" as="geometry">
            <mxPoint x="2389" y="353" as="targetPoint" />
          </mxGeometry>
        </mxCell>
        <mxCell id="mXW9WSofGKL-KP0xdKLJ-3" style="edgeStyle=orthogonalEdgeStyle;rounded=0;orthogonalLoop=1;jettySize=auto;html=1;exitX=0.993;exitY=0.191;exitDx=0;exitDy=0;exitPerimeter=0;fillColor=#d5e8d4;strokeColor=#82b366;spacing=2;shadow=0;" parent="1" edge="1">
          <mxGeometry relative="1" as="geometry">
            <mxPoint x="3064.9950000000003" y="282.99999999999994" as="sourcePoint" />
            <mxPoint x="3131" y="283" as="targetPoint" />
          </mxGeometry>
        </mxCell>
        <mxCell id="mXW9WSofGKL-KP0xdKLJ-1" value="vc" style="rounded=0;whiteSpace=wrap;html=1;fontFamily=Times New Roman;fontSize=16;fillColor=#d5e8d4;strokeColor=#82b366;" parent="1" vertex="1">
          <mxGeometry x="3022" y="275" width="60" height="30" as="geometry" />
        </mxCell>
        <mxCell id="mXW9WSofGKL-KP0xdKLJ-4" style="edgeStyle=orthogonalEdgeStyle;rounded=0;orthogonalLoop=1;jettySize=auto;html=1;entryX=0.999;entryY=0.813;entryDx=0;entryDy=0;entryPerimeter=0;fillColor=#d5e8d4;strokeColor=#82b366;exitX=-0.002;exitY=0.707;exitDx=0;exitDy=0;exitPerimeter=0;" parent="1" source="mXW9WSofGKL-KP0xdKLJ-2" edge="1">
          <mxGeometry relative="1" as="geometry">
            <mxPoint x="3155" y="296" as="sourcePoint" />
            <mxPoint x="3081.9950000000003" y="296.39" as="targetPoint" />
          </mxGeometry>
        </mxCell>
        <mxCell id="mXW9WSofGKL-KP0xdKLJ-2" value="timer" style="rounded=0;whiteSpace=wrap;html=1;fontFamily=Times New Roman;fontSize=16;fillColor=#d5e8d4;strokeColor=#82b366;" parent="1" vertex="1">
          <mxGeometry x="3131" y="275" width="60" height="30" as="geometry" />
        </mxCell>
        <mxCell id="mXW9WSofGKL-KP0xdKLJ-12" style="edgeStyle=orthogonalEdgeStyle;rounded=0;orthogonalLoop=1;jettySize=auto;html=1;fillColor=#d5e8d4;strokeColor=#82b366;" parent="1" source="mXW9WSofGKL-KP0xdKLJ-6" target="mXW9WSofGKL-KP0xdKLJ-8" edge="1">
          <mxGeometry relative="1" as="geometry" />
        </mxCell>
        <mxCell id="mXW9WSofGKL-KP0xdKLJ-6" value="vc" style="rounded=0;whiteSpace=wrap;html=1;fontFamily=Times New Roman;fontSize=16;fillColor=#d5e8d4;strokeColor=#82b366;" parent="1" vertex="1">
          <mxGeometry x="3022" y="383" width="60" height="30" as="geometry" />
        </mxCell>
        <mxCell id="mXW9WSofGKL-KP0xdKLJ-11" style="edgeStyle=orthogonalEdgeStyle;rounded=0;orthogonalLoop=1;jettySize=auto;html=1;entryX=0;entryY=0.5;entryDx=0;entryDy=0;fillColor=#d5e8d4;strokeColor=#82b366;" parent="1" source="mXW9WSofGKL-KP0xdKLJ-8" target="mXW9WSofGKL-KP0xdKLJ-9" edge="1">
          <mxGeometry relative="1" as="geometry" />
        </mxCell>
        <mxCell id="mXW9WSofGKL-KP0xdKLJ-8" value="timer" style="rounded=0;whiteSpace=wrap;html=1;fontFamily=Times New Roman;fontSize=16;fillColor=#d5e8d4;strokeColor=#82b366;" parent="1" vertex="1">
          <mxGeometry x="3131" y="383" width="60" height="30" as="geometry" />
        </mxCell>
        <mxCell id="mXW9WSofGKL-KP0xdKLJ-10" style="edgeStyle=orthogonalEdgeStyle;rounded=0;orthogonalLoop=1;jettySize=auto;html=1;entryX=0.5;entryY=1;entryDx=0;entryDy=0;fillColor=#d5e8d4;strokeColor=#82b366;dashed=1;" parent="1" source="mXW9WSofGKL-KP0xdKLJ-9" target="mXW9WSofGKL-KP0xdKLJ-6" edge="1">
          <mxGeometry relative="1" as="geometry">
            <Array as="points">
              <mxPoint x="3269" y="434" />
              <mxPoint x="3052" y="434" />
            </Array>
          </mxGeometry>
        </mxCell>
        <mxCell id="mXW9WSofGKL-KP0xdKLJ-9" value="proxy" style="rounded=0;whiteSpace=wrap;html=1;fontFamily=Times New Roman;fontSize=16;fillColor=#d5e8d4;strokeColor=#82b366;" parent="1" vertex="1">
          <mxGeometry x="3239" y="383" width="60" height="30" as="geometry" />
        </mxCell>
        <mxCell id="VwMgvFylzigEQ2vE_ocm-1" value="FBRetainCycleDetector" style="swimlane;fontStyle=0;childLayout=stackLayout;horizontal=1;startSize=26;fillColor=#d5e8d4;horizontalStack=0;resizeParent=1;resizeParentMax=0;resizeLast=0;collapsible=1;marginBottom=0;strokeWidth=1;fontFamily=Times New Roman;fontSize=20;strokeColor=#82b366;" parent="1" vertex="1">
          <mxGeometry x="3016" y="724" width="394" height="134" as="geometry" />
        </mxCell>
        <mxCell id="VwMgvFylzigEQ2vE_ocm-2" value="_candidates: [FBObjectiveCGraphElement]" style="text;strokeColor=#82b366;fillColor=#d5e8d4;align=left;verticalAlign=top;spacingLeft=4;spacingRight=4;overflow=hidden;rotatable=0;points=[[0,0.5],[1,0.5]];portConstraint=eastwest;fontFamily=Times New Roman;fontSize=20;" parent="VwMgvFylzigEQ2vE_ocm-1" vertex="1">
          <mxGeometry y="26" width="394" height="36" as="geometry" />
        </mxCell>
        <mxCell id="VwMgvFylzigEQ2vE_ocm-3" value="_configuration: FBObjectGraphConfiguration" style="text;strokeColor=#82b366;fillColor=#d5e8d4;align=left;verticalAlign=top;spacingLeft=4;spacingRight=4;overflow=hidden;rotatable=0;points=[[0,0.5],[1,0.5]];portConstraint=eastwest;fontFamily=Times New Roman;fontSize=20;" parent="VwMgvFylzigEQ2vE_ocm-1" vertex="1">
          <mxGeometry y="62" width="394" height="36" as="geometry" />
        </mxCell>
        <mxCell id="VwMgvFylzigEQ2vE_ocm-4" value="_objectSet: NSMutableSet" style="text;strokeColor=#82b366;fillColor=#d5e8d4;align=left;verticalAlign=top;spacingLeft=4;spacingRight=4;overflow=hidden;rotatable=0;points=[[0,0.5],[1,0.5]];portConstraint=eastwest;fontFamily=Times New Roman;fontSize=20;" parent="VwMgvFylzigEQ2vE_ocm-1" vertex="1">
          <mxGeometry y="98" width="394" height="36" as="geometry" />
        </mxCell>
        <mxCell id="VwMgvFylzigEQ2vE_ocm-28" style="edgeStyle=orthogonalEdgeStyle;rounded=0;orthogonalLoop=1;jettySize=auto;html=1;entryX=1;entryY=0.5;entryDx=0;entryDy=0;strokeColor=#000000;fontColor=#393C56;fillColor=#F2CC8F;" parent="1" source="VwMgvFylzigEQ2vE_ocm-5" target="VwMgvFylzigEQ2vE_ocm-1" edge="1">
          <mxGeometry relative="1" as="geometry" />
        </mxCell>
        <mxCell id="VwMgvFylzigEQ2vE_ocm-5" value="FBObjectiveCGraphElement" style="swimlane;fontStyle=0;childLayout=stackLayout;horizontal=1;startSize=26;fillColor=#d5e8d4;horizontalStack=0;resizeParent=1;resizeParentMax=0;resizeLast=0;collapsible=1;marginBottom=0;strokeWidth=1;fontFamily=Times New Roman;fontSize=20;strokeColor=#82b366;" parent="1" vertex="1">
          <mxGeometry x="3504" y="724" width="394" height="134" as="geometry" />
        </mxCell>
        <mxCell id="VwMgvFylzigEQ2vE_ocm-6" value="namePath: [NSString]" style="text;strokeColor=#82b366;fillColor=#d5e8d4;align=left;verticalAlign=top;spacingLeft=4;spacingRight=4;overflow=hidden;rotatable=0;points=[[0,0.5],[1,0.5]];portConstraint=eastwest;fontFamily=Times New Roman;fontSize=20;" parent="VwMgvFylzigEQ2vE_ocm-5" vertex="1">
          <mxGeometry y="26" width="394" height="36" as="geometry" />
        </mxCell>
        <mxCell id="VwMgvFylzigEQ2vE_ocm-7" value="object: weak id" style="text;strokeColor=#82b366;fillColor=#d5e8d4;align=left;verticalAlign=top;spacingLeft=4;spacingRight=4;overflow=hidden;rotatable=0;points=[[0,0.5],[1,0.5]];portConstraint=eastwest;fontFamily=Times New Roman;fontSize=20;" parent="VwMgvFylzigEQ2vE_ocm-5" vertex="1">
          <mxGeometry y="62" width="394" height="36" as="geometry" />
        </mxCell>
        <mxCell id="VwMgvFylzigEQ2vE_ocm-8" value="configuration: FBObjectGraphConfiguration" style="text;strokeColor=#82b366;fillColor=#d5e8d4;align=left;verticalAlign=top;spacingLeft=4;spacingRight=4;overflow=hidden;rotatable=0;points=[[0,0.5],[1,0.5]];portConstraint=eastwest;fontFamily=Times New Roman;fontSize=20;" parent="VwMgvFylzigEQ2vE_ocm-5" vertex="1">
          <mxGeometry y="98" width="394" height="36" as="geometry" />
        </mxCell>
        <mxCell id="VwMgvFylzigEQ2vE_ocm-16" style="edgeStyle=orthogonalEdgeStyle;rounded=0;orthogonalLoop=1;jettySize=auto;html=1;entryX=1;entryY=0.5;entryDx=0;entryDy=0;endArrow=block;endFill=0;" parent="1" source="VwMgvFylzigEQ2vE_ocm-13" target="VwMgvFylzigEQ2vE_ocm-5" edge="1">
          <mxGeometry relative="1" as="geometry">
            <Array as="points">
              <mxPoint x="3940" y="726" />
              <mxPoint x="3940" y="791" />
            </Array>
          </mxGeometry>
        </mxCell>
        <mxCell id="VwMgvFylzigEQ2vE_ocm-13" value="FBObjectiveCObject" style="html=1;whiteSpace=wrap;fontSize=20;fillColor=#d5e8d4;strokeColor=#82b366;fontFamily=Times New Roman;" parent="1" vertex="1">
          <mxGeometry x="3983" y="708" width="226" height="36" as="geometry" />
        </mxCell>
        <mxCell id="VwMgvFylzigEQ2vE_ocm-19" style="edgeStyle=orthogonalEdgeStyle;rounded=0;orthogonalLoop=1;jettySize=auto;html=1;endArrow=block;endFill=0;" parent="1" source="VwMgvFylzigEQ2vE_ocm-14" edge="1">
          <mxGeometry relative="1" as="geometry">
            <mxPoint x="3898.2001953125" y="791" as="targetPoint" />
          </mxGeometry>
        </mxCell>
        <mxCell id="VwMgvFylzigEQ2vE_ocm-14" value="FBObjectiveCBlock" style="html=1;whiteSpace=wrap;fontSize=20;fillColor=#d5e8d4;strokeColor=#82b366;fontFamily=Times New Roman;" parent="1" vertex="1">
          <mxGeometry x="3985" y="773" width="226" height="36" as="geometry" />
        </mxCell>
        <mxCell id="VwMgvFylzigEQ2vE_ocm-20" style="edgeStyle=orthogonalEdgeStyle;rounded=0;orthogonalLoop=1;jettySize=auto;html=1;endArrow=block;endFill=0;" parent="1" edge="1">
          <mxGeometry relative="1" as="geometry">
            <mxPoint x="3898.680767952127" y="790.0025531914894" as="targetPoint" />
            <mxPoint x="3985" y="855.96" as="sourcePoint" />
            <Array as="points">
              <mxPoint x="3940" y="856" />
              <mxPoint x="3940" y="791" />
              <mxPoint x="3899" y="791" />
            </Array>
          </mxGeometry>
        </mxCell>
        <mxCell id="VwMgvFylzigEQ2vE_ocm-15" value="FBObjectiveCNSCFTimer" style="html=1;whiteSpace=wrap;fontSize=20;fillColor=#d5e8d4;strokeColor=#82b366;fontFamily=Times New Roman;" parent="1" vertex="1">
          <mxGeometry x="3985" y="838" width="226" height="36" as="geometry" />
        </mxCell>
        <mxCell id="VwMgvFylzigEQ2vE_ocm-29" style="edgeStyle=orthogonalEdgeStyle;rounded=0;orthogonalLoop=1;jettySize=auto;html=1;entryX=0.5;entryY=1;entryDx=0;entryDy=0;strokeColor=#000000;fontColor=#393C56;fillColor=#F2CC8F;" parent="1" source="VwMgvFylzigEQ2vE_ocm-21" target="VwMgvFylzigEQ2vE_ocm-1" edge="1">
          <mxGeometry relative="1" as="geometry">
            <Array as="points">
              <mxPoint x="3213" y="905" />
              <mxPoint x="3213" y="905" />
            </Array>
          </mxGeometry>
        </mxCell>
        <mxCell id="VwMgvFylzigEQ2vE_ocm-21" value="FBObjectGraphConfiguration" style="swimlane;fontStyle=0;childLayout=stackLayout;horizontal=1;startSize=26;fillColor=#d5e8d4;horizontalStack=0;resizeParent=1;resizeParentMax=0;resizeLast=0;collapsible=1;marginBottom=0;strokeWidth=1;fontFamily=Times New Roman;fontSize=20;strokeColor=#82b366;" parent="1" vertex="1">
          <mxGeometry x="3016" y="923" width="556" height="242" as="geometry" />
        </mxCell>
        <mxCell id="VwMgvFylzigEQ2vE_ocm-22" value="filterBlocks: [FBGraphEdgeFilterBlock]" style="text;strokeColor=#82b366;fillColor=#d5e8d4;align=left;verticalAlign=top;spacingLeft=4;spacingRight=4;overflow=hidden;rotatable=0;points=[[0,0.5],[1,0.5]];portConstraint=eastwest;fontFamily=Times New Roman;fontSize=20;" parent="VwMgvFylzigEQ2vE_ocm-21" vertex="1">
          <mxGeometry y="26" width="556" height="36" as="geometry" />
        </mxCell>
        <mxCell id="VwMgvFylzigEQ2vE_ocm-23" value="transformerBlock: FBObjectiveCGraphElementTransformerBlock" style="text;strokeColor=#82b366;fillColor=#d5e8d4;align=left;verticalAlign=top;spacingLeft=4;spacingRight=4;overflow=hidden;rotatable=0;points=[[0,0.5],[1,0.5]];portConstraint=eastwest;fontFamily=Times New Roman;fontSize=20;" parent="VwMgvFylzigEQ2vE_ocm-21" vertex="1">
          <mxGeometry y="62" width="556" height="36" as="geometry" />
        </mxCell>
        <mxCell id="VwMgvFylzigEQ2vE_ocm-26" value="shouldInspectTimers: Bool&#xa;" style="text;strokeColor=#82b366;fillColor=#d5e8d4;align=left;verticalAlign=top;spacingLeft=4;spacingRight=4;overflow=hidden;rotatable=0;points=[[0,0.5],[1,0.5]];portConstraint=eastwest;fontFamily=Times New Roman;fontSize=20;" parent="VwMgvFylzigEQ2vE_ocm-21" vertex="1">
          <mxGeometry y="98" width="556" height="36" as="geometry" />
        </mxCell>
        <mxCell id="VwMgvFylzigEQ2vE_ocm-24" value="shouldIncludeBlockAddress: Bool" style="text;strokeColor=#82b366;fillColor=#d5e8d4;align=left;verticalAlign=top;spacingLeft=4;spacingRight=4;overflow=hidden;rotatable=0;points=[[0,0.5],[1,0.5]];portConstraint=eastwest;fontFamily=Times New Roman;fontSize=20;" parent="VwMgvFylzigEQ2vE_ocm-21" vertex="1">
          <mxGeometry y="134" width="556" height="36" as="geometry" />
        </mxCell>
        <mxCell id="VwMgvFylzigEQ2vE_ocm-25" value="shouldCacheLayouts: Bool" style="text;strokeColor=#82b366;fillColor=#d5e8d4;align=left;verticalAlign=top;spacingLeft=4;spacingRight=4;overflow=hidden;rotatable=0;points=[[0,0.5],[1,0.5]];portConstraint=eastwest;fontFamily=Times New Roman;fontSize=20;" parent="VwMgvFylzigEQ2vE_ocm-21" vertex="1">
          <mxGeometry y="170" width="556" height="36" as="geometry" />
        </mxCell>
        <mxCell id="VwMgvFylzigEQ2vE_ocm-27" value="layoutCache: [Class: [FBObjectReference]]" style="text;strokeColor=#82b366;fillColor=#d5e8d4;align=left;verticalAlign=top;spacingLeft=4;spacingRight=4;overflow=hidden;rotatable=0;points=[[0,0.5],[1,0.5]];portConstraint=eastwest;fontFamily=Times New Roman;fontSize=20;" parent="VwMgvFylzigEQ2vE_ocm-21" vertex="1">
          <mxGeometry y="206" width="556" height="36" as="geometry" />
        </mxCell>
        <mxCell id="R7USVCrkbTG-qWHAU4r4-13" style="rounded=0;orthogonalLoop=1;jettySize=auto;html=1;fillColor=#d5e8d4;strokeColor=#82b366;" parent="1" source="R7USVCrkbTG-qWHAU4r4-2" target="R7USVCrkbTG-qWHAU4r4-12" edge="1">
          <mxGeometry relative="1" as="geometry" />
        </mxCell>
        <mxCell id="R7USVCrkbTG-qWHAU4r4-17" style="rounded=0;orthogonalLoop=1;jettySize=auto;html=1;fillColor=#d5e8d4;strokeColor=#82b366;" parent="1" source="R7USVCrkbTG-qWHAU4r4-2" target="R7USVCrkbTG-qWHAU4r4-11" edge="1">
          <mxGeometry relative="1" as="geometry" />
        </mxCell>
        <mxCell id="R7USVCrkbTG-qWHAU4r4-2" value="1" style="ellipse;whiteSpace=wrap;html=1;aspect=fixed;fontSize=20;fillColor=#d5e8d4;strokeColor=#82b366;" parent="1" vertex="1">
          <mxGeometry x="3879" y="1178" width="50" height="50" as="geometry" />
        </mxCell>
        <mxCell id="R7USVCrkbTG-qWHAU4r4-6" value="8" style="ellipse;whiteSpace=wrap;html=1;aspect=fixed;fontSize=20;fillColor=#d5e8d4;strokeColor=#82b366;" parent="1" vertex="1">
          <mxGeometry x="3879" y="1465" width="50" height="50" as="geometry" />
        </mxCell>
        <mxCell id="R7USVCrkbTG-qWHAU4r4-20" style="edgeStyle=orthogonalEdgeStyle;rounded=0;orthogonalLoop=1;jettySize=auto;html=1;fillColor=#f8cecc;strokeColor=#b85450;" parent="1" source="R7USVCrkbTG-qWHAU4r4-7" target="R7USVCrkbTG-qWHAU4r4-12" edge="1">
          <mxGeometry relative="1" as="geometry">
            <Array as="points">
              <mxPoint x="3704" y="1295" />
            </Array>
          </mxGeometry>
        </mxCell>
        <mxCell id="R7USVCrkbTG-qWHAU4r4-7" value="7" style="ellipse;whiteSpace=wrap;html=1;aspect=fixed;fontSize=20;fillColor=#f8cecc;strokeColor=#b85450;" parent="1" vertex="1">
          <mxGeometry x="3679" y="1465" width="50" height="50" as="geometry" />
        </mxCell>
        <mxCell id="R7USVCrkbTG-qWHAU4r4-19" style="rounded=0;orthogonalLoop=1;jettySize=auto;html=1;entryX=0.5;entryY=0;entryDx=0;entryDy=0;fillColor=#d5e8d4;strokeColor=#82b366;" parent="1" source="R7USVCrkbTG-qWHAU4r4-8" target="R7USVCrkbTG-qWHAU4r4-6" edge="1">
          <mxGeometry relative="1" as="geometry" />
        </mxCell>
        <mxCell id="R7USVCrkbTG-qWHAU4r4-8" value="6" style="ellipse;whiteSpace=wrap;html=1;aspect=fixed;fontSize=20;fillColor=#d5e8d4;strokeColor=#82b366;" parent="1" vertex="1">
          <mxGeometry x="3929" y="1368" width="50" height="50" as="geometry" />
        </mxCell>
        <mxCell id="R7USVCrkbTG-qWHAU4r4-9" value="5" style="ellipse;whiteSpace=wrap;html=1;aspect=fixed;fontSize=20;fillColor=#d5e8d4;strokeColor=#82b366;" parent="1" vertex="1">
          <mxGeometry x="3829" y="1368" width="50" height="50" as="geometry" />
        </mxCell>
        <mxCell id="R7USVCrkbTG-qWHAU4r4-18" style="rounded=0;orthogonalLoop=1;jettySize=auto;html=1;fillColor=#f8cecc;strokeColor=#b85450;" parent="1" source="R7USVCrkbTG-qWHAU4r4-10" target="R7USVCrkbTG-qWHAU4r4-7" edge="1">
          <mxGeometry relative="1" as="geometry" />
        </mxCell>
        <mxCell id="R7USVCrkbTG-qWHAU4r4-10" value="4" style="ellipse;whiteSpace=wrap;html=1;aspect=fixed;fontSize=20;fillColor=#f8cecc;strokeColor=#b85450;" parent="1" vertex="1">
          <mxGeometry x="3729" y="1369" width="50" height="50" as="geometry" />
        </mxCell>
        <mxCell id="R7USVCrkbTG-qWHAU4r4-16" style="rounded=0;orthogonalLoop=1;jettySize=auto;html=1;fillColor=#d5e8d4;strokeColor=#82b366;" parent="1" source="R7USVCrkbTG-qWHAU4r4-11" target="R7USVCrkbTG-qWHAU4r4-8" edge="1">
          <mxGeometry relative="1" as="geometry" />
        </mxCell>
        <mxCell id="R7USVCrkbTG-qWHAU4r4-11" value="3" style="ellipse;whiteSpace=wrap;html=1;aspect=fixed;fontSize=20;fillColor=#d5e8d4;strokeColor=#82b366;" parent="1" vertex="1">
          <mxGeometry x="3979" y="1270" width="50" height="50" as="geometry" />
        </mxCell>
        <mxCell id="R7USVCrkbTG-qWHAU4r4-14" style="rounded=0;orthogonalLoop=1;jettySize=auto;html=1;fillColor=#f8cecc;strokeColor=#b85450;" parent="1" source="R7USVCrkbTG-qWHAU4r4-12" target="R7USVCrkbTG-qWHAU4r4-10" edge="1">
          <mxGeometry relative="1" as="geometry" />
        </mxCell>
        <mxCell id="R7USVCrkbTG-qWHAU4r4-15" style="rounded=0;orthogonalLoop=1;jettySize=auto;html=1;entryX=0.5;entryY=0;entryDx=0;entryDy=0;fillColor=#d5e8d4;strokeColor=#82b366;" parent="1" source="R7USVCrkbTG-qWHAU4r4-12" target="R7USVCrkbTG-qWHAU4r4-9" edge="1">
          <mxGeometry relative="1" as="geometry" />
        </mxCell>
        <mxCell id="R7USVCrkbTG-qWHAU4r4-12" value="2" style="ellipse;whiteSpace=wrap;html=1;aspect=fixed;fontSize=20;fillColor=#f8cecc;strokeColor=#b85450;" parent="1" vertex="1">
          <mxGeometry x="3779" y="1270" width="50" height="50" as="geometry" />
        </mxCell>
        <mxCell id="CK1YWQlcE9lfggGxMmMa-13" style="edgeStyle=orthogonalEdgeStyle;rounded=0;orthogonalLoop=1;jettySize=auto;html=1;entryX=1;entryY=0.5;entryDx=0;entryDy=0;endArrow=block;endFill=0;" parent="1" source="CK1YWQlcE9lfggGxMmMa-6" target="CK1YWQlcE9lfggGxMmMa-11" edge="1">
          <mxGeometry relative="1" as="geometry">
            <Array as="points">
              <mxPoint x="4886" y="844" />
              <mxPoint x="4886" y="909" />
            </Array>
          </mxGeometry>
        </mxCell>
        <mxCell id="CK1YWQlcE9lfggGxMmMa-6" value="FBObjectiveCObject" style="html=1;whiteSpace=wrap;fontSize=20;fillColor=#d5e8d4;strokeColor=#82b366;fontFamily=Times New Roman;" parent="1" vertex="1">
          <mxGeometry x="4927" y="826" width="226" height="36" as="geometry" />
        </mxCell>
        <mxCell id="CK1YWQlcE9lfggGxMmMa-7" style="edgeStyle=orthogonalEdgeStyle;rounded=0;orthogonalLoop=1;jettySize=auto;html=1;endArrow=block;endFill=0;" parent="1" source="CK1YWQlcE9lfggGxMmMa-8" edge="1">
          <mxGeometry relative="1" as="geometry">
            <mxPoint x="4842.2001953125" y="909" as="targetPoint" />
          </mxGeometry>
        </mxCell>
        <mxCell id="CK1YWQlcE9lfggGxMmMa-8" value="FBObjectiveCBlock" style="html=1;whiteSpace=wrap;fontSize=20;fillColor=#d5e8d4;strokeColor=#82b366;fontFamily=Times New Roman;" parent="1" vertex="1">
          <mxGeometry x="4929" y="891" width="226" height="36" as="geometry" />
        </mxCell>
        <mxCell id="CK1YWQlcE9lfggGxMmMa-12" style="edgeStyle=orthogonalEdgeStyle;rounded=0;orthogonalLoop=1;jettySize=auto;html=1;entryX=1;entryY=0.5;entryDx=0;entryDy=0;endArrow=block;endFill=0;" parent="1" source="CK1YWQlcE9lfggGxMmMa-10" target="CK1YWQlcE9lfggGxMmMa-11" edge="1">
          <mxGeometry relative="1" as="geometry">
            <Array as="points">
              <mxPoint x="4886" y="974" />
              <mxPoint x="4886" y="909" />
            </Array>
          </mxGeometry>
        </mxCell>
        <mxCell id="CK1YWQlcE9lfggGxMmMa-10" value="FBObjectiveCNSCFTimer" style="html=1;whiteSpace=wrap;fontSize=20;fillColor=#d5e8d4;strokeColor=#82b366;fontFamily=Times New Roman;" parent="1" vertex="1">
          <mxGeometry x="4929" y="956" width="226" height="36" as="geometry" />
        </mxCell>
        <mxCell id="CK1YWQlcE9lfggGxMmMa-11" value="FBObjectiveCGraphElement" style="html=1;whiteSpace=wrap;fontSize=20;fillColor=#d5e8d4;strokeColor=#82b366;fontFamily=Times New Roman;" parent="1" vertex="1">
          <mxGeometry x="4599" y="891" width="243" height="36" as="geometry" />
        </mxCell>
        <mxCell id="CK1YWQlcE9lfggGxMmMa-14" value="FBAssociationManager" style="html=1;whiteSpace=wrap;fontSize=20;fillColor=#d5e8d4;strokeColor=#82b366;fontFamily=Times New Roman;" parent="1" vertex="1">
          <mxGeometry x="4599" y="927" width="226" height="36" as="geometry" />
        </mxCell>
        <mxCell id="DDZ6LUG9_i15dwgVKkXx-2" value="AssociationsManager" style="swimlane;fontStyle=0;childLayout=stackLayout;horizontal=1;startSize=26;fillColor=#d5e8d4;horizontalStack=0;resizeParent=1;resizeParentMax=0;resizeLast=0;collapsible=1;marginBottom=0;strokeWidth=1;fontFamily=Times New Roman;fontSize=14;strokeColor=#82b366;" parent="1" vertex="1">
          <mxGeometry x="1930" y="526" width="180" height="78" as="geometry" />
        </mxCell>
        <mxCell id="DDZ6LUG9_i15dwgVKkXx-3" value="_lock: static spinlock_t" style="text;strokeColor=#82b366;fillColor=#d5e8d4;align=left;verticalAlign=top;spacingLeft=4;spacingRight=4;overflow=hidden;rotatable=0;points=[[0,0.5],[1,0.5]];portConstraint=eastwest;fontFamily=Times New Roman;fontSize=14;" parent="DDZ6LUG9_i15dwgVKkXx-2" vertex="1">
          <mxGeometry y="26" width="180" height="26" as="geometry" />
        </mxCell>
        <mxCell id="DDZ6LUG9_i15dwgVKkXx-4" value="_map: AssociationsHashMap" style="text;strokeColor=#82b366;fillColor=#d5e8d4;align=left;verticalAlign=top;spacingLeft=4;spacingRight=4;overflow=hidden;rotatable=0;points=[[0,0.5],[1,0.5]];portConstraint=eastwest;fontFamily=Times New Roman;fontSize=14;" parent="DDZ6LUG9_i15dwgVKkXx-2" vertex="1">
          <mxGeometry y="52" width="180" height="26" as="geometry" />
        </mxCell>
        <mxCell id="DDZ6LUG9_i15dwgVKkXx-6" value="AssociationsHashMap" style="swimlane;fontStyle=0;childLayout=stackLayout;horizontal=1;startSize=26;fillColor=#d5e8d4;horizontalStack=0;resizeParent=1;resizeParentMax=0;resizeLast=0;collapsible=1;marginBottom=0;strokeWidth=1;fontFamily=Times New Roman;fontSize=14;strokeColor=#82b366;" parent="1" vertex="1">
          <mxGeometry x="2160" y="526" width="195" height="78" as="geometry" />
        </mxCell>
        <mxCell id="DDZ6LUG9_i15dwgVKkXx-7" value="key: DisguisedPtr&lt;objc_object&gt;" style="text;strokeColor=#82b366;fillColor=#d5e8d4;align=left;verticalAlign=top;spacingLeft=4;spacingRight=4;overflow=hidden;rotatable=0;points=[[0,0.5],[1,0.5]];portConstraint=eastwest;fontFamily=Times New Roman;fontSize=14;" parent="DDZ6LUG9_i15dwgVKkXx-6" vertex="1">
          <mxGeometry y="26" width="195" height="26" as="geometry" />
        </mxCell>
        <mxCell id="DDZ6LUG9_i15dwgVKkXx-8" value="value: ObjectAssociationMap" style="text;strokeColor=#82b366;fillColor=#d5e8d4;align=left;verticalAlign=top;spacingLeft=4;spacingRight=4;overflow=hidden;rotatable=0;points=[[0,0.5],[1,0.5]];portConstraint=eastwest;fontFamily=Times New Roman;fontSize=14;" parent="DDZ6LUG9_i15dwgVKkXx-6" vertex="1">
          <mxGeometry y="52" width="195" height="26" as="geometry" />
        </mxCell>
        <mxCell id="DDZ6LUG9_i15dwgVKkXx-9" value="ObjectAssociationMap" style="swimlane;fontStyle=0;childLayout=stackLayout;horizontal=1;startSize=26;fillColor=#d5e8d4;horizontalStack=0;resizeParent=1;resizeParentMax=0;resizeLast=0;collapsible=1;marginBottom=0;strokeWidth=1;fontFamily=Times New Roman;fontSize=14;strokeColor=#82b366;" parent="1" vertex="1">
          <mxGeometry x="2405" y="526" width="180" height="78" as="geometry" />
        </mxCell>
        <mxCell id="DDZ6LUG9_i15dwgVKkXx-10" value="key: @selector(hello)" style="text;strokeColor=#82b366;fillColor=#d5e8d4;align=left;verticalAlign=top;spacingLeft=4;spacingRight=4;overflow=hidden;rotatable=0;points=[[0,0.5],[1,0.5]];portConstraint=eastwest;fontFamily=Times New Roman;fontSize=14;" parent="DDZ6LUG9_i15dwgVKkXx-9" vertex="1">
          <mxGeometry y="26" width="180" height="26" as="geometry" />
        </mxCell>
        <mxCell id="DDZ6LUG9_i15dwgVKkXx-11" value="value: ObjcAssociation" style="text;strokeColor=#82b366;fillColor=#d5e8d4;align=left;verticalAlign=top;spacingLeft=4;spacingRight=4;overflow=hidden;rotatable=0;points=[[0,0.5],[1,0.5]];portConstraint=eastwest;fontFamily=Times New Roman;fontSize=14;" parent="DDZ6LUG9_i15dwgVKkXx-9" vertex="1">
          <mxGeometry y="52" width="180" height="26" as="geometry" />
        </mxCell>
        <mxCell id="DDZ6LUG9_i15dwgVKkXx-12" value="ObjcAssociation" style="swimlane;fontStyle=0;childLayout=stackLayout;horizontal=1;startSize=26;fillColor=#d5e8d4;horizontalStack=0;resizeParent=1;resizeParentMax=0;resizeLast=0;collapsible=1;marginBottom=0;strokeWidth=1;fontFamily=Times New Roman;fontSize=14;strokeColor=#82b366;" parent="1" vertex="1">
          <mxGeometry x="2635" y="526" width="180" height="78" as="geometry" />
        </mxCell>
        <mxCell id="DDZ6LUG9_i15dwgVKkXx-13" value="_policy: uintptr_t" style="text;strokeColor=#82b366;fillColor=#d5e8d4;align=left;verticalAlign=top;spacingLeft=4;spacingRight=4;overflow=hidden;rotatable=0;points=[[0,0.5],[1,0.5]];portConstraint=eastwest;fontFamily=Times New Roman;fontSize=14;" parent="DDZ6LUG9_i15dwgVKkXx-12" vertex="1">
          <mxGeometry y="26" width="180" height="26" as="geometry" />
        </mxCell>
        <mxCell id="DDZ6LUG9_i15dwgVKkXx-14" value="id: value" style="text;strokeColor=#82b366;fillColor=#d5e8d4;align=left;verticalAlign=top;spacingLeft=4;spacingRight=4;overflow=hidden;rotatable=0;points=[[0,0.5],[1,0.5]];portConstraint=eastwest;fontFamily=Times New Roman;fontSize=14;" parent="DDZ6LUG9_i15dwgVKkXx-12" vertex="1">
          <mxGeometry y="52" width="180" height="26" as="geometry" />
        </mxCell>
        <mxCell id="DDZ6LUG9_i15dwgVKkXx-15" style="edgeStyle=orthogonalEdgeStyle;rounded=0;hachureGap=4;orthogonalLoop=1;jettySize=auto;html=1;entryX=0;entryY=0.5;entryDx=0;entryDy=0;fontFamily=Architects Daughter;fontSource=https%3A%2F%2Ffonts.googleapis.com%2Fcss%3Ffamily%3DArchitects%2BDaughter;fontSize=16;" parent="1" source="DDZ6LUG9_i15dwgVKkXx-3" target="DDZ6LUG9_i15dwgVKkXx-7" edge="1">
          <mxGeometry relative="1" as="geometry" />
        </mxCell>
        <mxCell id="DDZ6LUG9_i15dwgVKkXx-16" style="edgeStyle=orthogonalEdgeStyle;rounded=0;hachureGap=4;orthogonalLoop=1;jettySize=auto;html=1;entryX=0;entryY=0.5;entryDx=0;entryDy=0;fontFamily=Architects Daughter;fontSource=https%3A%2F%2Ffonts.googleapis.com%2Fcss%3Ffamily%3DArchitects%2BDaughter;fontSize=16;" parent="1" source="DDZ6LUG9_i15dwgVKkXx-7" target="DDZ6LUG9_i15dwgVKkXx-9" edge="1">
          <mxGeometry relative="1" as="geometry" />
        </mxCell>
        <mxCell id="DDZ6LUG9_i15dwgVKkXx-17" style="edgeStyle=orthogonalEdgeStyle;rounded=0;hachureGap=4;orthogonalLoop=1;jettySize=auto;html=1;entryX=0;entryY=0.5;entryDx=0;entryDy=0;fontFamily=Architects Daughter;fontSource=https%3A%2F%2Ffonts.googleapis.com%2Fcss%3Ffamily%3DArchitects%2BDaughter;fontSize=16;" parent="1" source="DDZ6LUG9_i15dwgVKkXx-10" target="DDZ6LUG9_i15dwgVKkXx-12" edge="1">
          <mxGeometry relative="1" as="geometry" />
        </mxCell>
        <mxCell id="DDZ6LUG9_i15dwgVKkXx-36" value="" style="rounded=0;whiteSpace=wrap;html=1;fillColor=#dae8fc;strokeColor=#6c8ebf;" parent="1" vertex="1">
          <mxGeometry x="3420" y="-50" width="1360" height="460" as="geometry" />
        </mxCell>
        <mxCell id="DDZ6LUG9_i15dwgVKkXx-26" value="1. 通知 Observer：即将进入 Loop &lt;font color=&quot;#ff3333&quot;&gt;(Entry)&lt;/font&gt;" style="html=1;whiteSpace=wrap;align=left;fontSize=12;fontFamily=Times New Roman;strokeColor=none;" parent="1" vertex="1">
          <mxGeometry x="3980" y="30" width="270" height="20" as="geometry" />
        </mxCell>
        <mxCell id="DDZ6LUG9_i15dwgVKkXx-39" value="" style="rounded=0;whiteSpace=wrap;html=1;fillColor=none;" parent="1" vertex="1">
          <mxGeometry x="3970" y="55" width="290" height="212" as="geometry" />
        </mxCell>
        <mxCell id="DDZ6LUG9_i15dwgVKkXx-27" value="2. 通知 Observer：将要处理 Timer &lt;font color=&quot;#ff3333&quot;&gt;(BeforeTimers)&lt;/font&gt;" style="html=1;whiteSpace=wrap;align=left;fontSize=12;fontFamily=Times New Roman;strokeColor=none;" parent="1" vertex="1">
          <mxGeometry x="3980" y="60" width="270" height="20" as="geometry" />
        </mxCell>
        <mxCell id="DDZ6LUG9_i15dwgVKkXx-28" value="3. 通知 Observer：将要处理 Source0 (BeforeSources)" style="html=1;whiteSpace=wrap;align=left;fontSize=12;fontFamily=Times New Roman;strokeColor=none;" parent="1" vertex="1">
          <mxGeometry x="3980" y="90" width="270" height="20" as="geometry" />
        </mxCell>
        <mxCell id="DDZ6LUG9_i15dwgVKkXx-30" value="5. 如果有 Source1，跳到 9" style="html=1;whiteSpace=wrap;align=left;fontSize=12;fontFamily=Times New Roman;strokeColor=none;" parent="1" vertex="1">
          <mxGeometry x="3980" y="121" width="270" height="20" as="geometry" />
        </mxCell>
        <mxCell id="DDZ6LUG9_i15dwgVKkXx-31" value="6. 通知 Observer：线程即将休眠 &lt;font color=&quot;#ff3333&quot;&gt;(BeforeWaiting)&lt;/font&gt;" style="html=1;whiteSpace=wrap;align=left;fontSize=12;fontFamily=Times New Roman;strokeColor=none;" parent="1" vertex="1">
          <mxGeometry x="3980" y="151" width="270" height="20" as="geometry" />
        </mxCell>
        <mxCell id="DDZ6LUG9_i15dwgVKkXx-32" value="7. 休眠等待唤醒" style="html=1;whiteSpace=wrap;align=left;fontSize=12;fontFamily=Times New Roman;fillColor=#f8cecc;strokeColor=none;" parent="1" vertex="1">
          <mxGeometry x="3980" y="181" width="270" height="20" as="geometry" />
        </mxCell>
        <mxCell id="DDZ6LUG9_i15dwgVKkXx-33" value="8. 通知 Observer：线程刚被唤醒 &lt;font color=&quot;#ff3333&quot;&gt;(AfterWaiting)&lt;/font&gt;" style="html=1;whiteSpace=wrap;align=left;fontSize=12;fontFamily=Times New Roman;strokeColor=none;" parent="1" vertex="1">
          <mxGeometry x="3980" y="211" width="270" height="20" as="geometry" />
        </mxCell>
        <mxCell id="DDZ6LUG9_i15dwgVKkXx-34" value="9. 处理唤醒时收到的消息，之后跳回 2" style="html=1;whiteSpace=wrap;align=left;fontSize=12;fontFamily=Times New Roman;strokeColor=none;" parent="1" vertex="1">
          <mxGeometry x="3980" y="241" width="270" height="20" as="geometry" />
        </mxCell>
        <mxCell id="DDZ6LUG9_i15dwgVKkXx-40" value="RunLoop" style="swimlane;fontStyle=0;childLayout=stackLayout;horizontal=1;startSize=26;fillColor=#d5e8d4;horizontalStack=0;resizeParent=1;resizeParentMax=0;resizeLast=0;collapsible=1;marginBottom=0;strokeWidth=1;fontFamily=Times New Roman;fontSize=20;strokeColor=#82b366;" parent="1" vertex="1">
          <mxGeometry x="4290" y="1550" width="350" height="206" as="geometry" />
        </mxCell>
        <mxCell id="DDZ6LUG9_i15dwgVKkXx-41" value="pthread: pthread_t" style="text;strokeColor=#82b366;fillColor=#d5e8d4;align=left;verticalAlign=top;spacingLeft=4;spacingRight=4;overflow=hidden;rotatable=0;points=[[0,0.5],[1,0.5]];portConstraint=eastwest;fontFamily=Times New Roman;fontSize=20;" parent="DDZ6LUG9_i15dwgVKkXx-40" vertex="1">
          <mxGeometry y="26" width="350" height="36" as="geometry" />
        </mxCell>
        <mxCell id="DDZ6LUG9_i15dwgVKkXx-42" value="_commonModes: CFMutableSetRef" style="text;strokeColor=#82b366;fillColor=#d5e8d4;align=left;verticalAlign=top;spacingLeft=4;spacingRight=4;overflow=hidden;rotatable=0;points=[[0,0.5],[1,0.5]];portConstraint=eastwest;fontFamily=Times New Roman;fontSize=20;" parent="DDZ6LUG9_i15dwgVKkXx-40" vertex="1">
          <mxGeometry y="62" width="350" height="36" as="geometry" />
        </mxCell>
        <mxCell id="DDZ6LUG9_i15dwgVKkXx-43" value="_commonModeItems: CFMutableSetRef" style="text;strokeColor=#82b366;fillColor=#d5e8d4;align=left;verticalAlign=top;spacingLeft=4;spacingRight=4;overflow=hidden;rotatable=0;points=[[0,0.5],[1,0.5]];portConstraint=eastwest;fontFamily=Times New Roman;fontSize=20;" parent="DDZ6LUG9_i15dwgVKkXx-40" vertex="1">
          <mxGeometry y="98" width="350" height="36" as="geometry" />
        </mxCell>
        <mxCell id="DDZ6LUG9_i15dwgVKkXx-60" value="_currentMode: CFRunLoopModeRef" style="text;strokeColor=#82b366;fillColor=#d5e8d4;align=left;verticalAlign=top;spacingLeft=4;spacingRight=4;overflow=hidden;rotatable=0;points=[[0,0.5],[1,0.5]];portConstraint=eastwest;fontFamily=Times New Roman;fontSize=20;" parent="DDZ6LUG9_i15dwgVKkXx-40" vertex="1">
          <mxGeometry y="134" width="350" height="36" as="geometry" />
        </mxCell>
        <mxCell id="DDZ6LUG9_i15dwgVKkXx-61" value="_modes: CFMutableSetRef" style="text;strokeColor=#82b366;fillColor=#d5e8d4;align=left;verticalAlign=top;spacingLeft=4;spacingRight=4;overflow=hidden;rotatable=0;points=[[0,0.5],[1,0.5]];portConstraint=eastwest;fontFamily=Times New Roman;fontSize=20;" parent="DDZ6LUG9_i15dwgVKkXx-40" vertex="1">
          <mxGeometry y="170" width="350" height="36" as="geometry" />
        </mxCell>
        <mxCell id="DDZ6LUG9_i15dwgVKkXx-44" value="RunLoopMode" style="swimlane;fontStyle=0;childLayout=stackLayout;horizontal=1;startSize=26;fillColor=#d5e8d4;horizontalStack=0;resizeParent=1;resizeParentMax=0;resizeLast=0;collapsible=1;marginBottom=0;strokeWidth=1;fontFamily=Times New Roman;fontSize=20;strokeColor=#82b366;" parent="1" vertex="1">
          <mxGeometry x="4740" y="1550" width="291" height="206" as="geometry" />
        </mxCell>
        <mxCell id="DDZ6LUG9_i15dwgVKkXx-45" value="_name: CFStringRef" style="text;strokeColor=#82b366;fillColor=#d5e8d4;align=left;verticalAlign=top;spacingLeft=4;spacingRight=4;overflow=hidden;rotatable=0;points=[[0,0.5],[1,0.5]];portConstraint=eastwest;fontFamily=Times New Roman;fontSize=20;" parent="DDZ6LUG9_i15dwgVKkXx-44" vertex="1">
          <mxGeometry y="26" width="291" height="36" as="geometry" />
        </mxCell>
        <mxCell id="DDZ6LUG9_i15dwgVKkXx-46" value="_sources0: CFMutableSetRef" style="text;strokeColor=#82b366;fillColor=#d5e8d4;align=left;verticalAlign=top;spacingLeft=4;spacingRight=4;overflow=hidden;rotatable=0;points=[[0,0.5],[1,0.5]];portConstraint=eastwest;fontFamily=Times New Roman;fontSize=20;" parent="DDZ6LUG9_i15dwgVKkXx-44" vertex="1">
          <mxGeometry y="62" width="291" height="36" as="geometry" />
        </mxCell>
        <mxCell id="DDZ6LUG9_i15dwgVKkXx-47" value="_sources1: CFMutableSetRef" style="text;strokeColor=#82b366;fillColor=#d5e8d4;align=left;verticalAlign=top;spacingLeft=4;spacingRight=4;overflow=hidden;rotatable=0;points=[[0,0.5],[1,0.5]];portConstraint=eastwest;fontFamily=Times New Roman;fontSize=20;" parent="DDZ6LUG9_i15dwgVKkXx-44" vertex="1">
          <mxGeometry y="98" width="291" height="36" as="geometry" />
        </mxCell>
        <mxCell id="DDZ6LUG9_i15dwgVKkXx-62" value="_observers: CFMutableArrayRef" style="text;strokeColor=#82b366;fillColor=#d5e8d4;align=left;verticalAlign=top;spacingLeft=4;spacingRight=4;overflow=hidden;rotatable=0;points=[[0,0.5],[1,0.5]];portConstraint=eastwest;fontFamily=Times New Roman;fontSize=20;" parent="DDZ6LUG9_i15dwgVKkXx-44" vertex="1">
          <mxGeometry y="134" width="291" height="36" as="geometry" />
        </mxCell>
        <mxCell id="DDZ6LUG9_i15dwgVKkXx-63" value="_timers: CFMutableArrayRef" style="text;strokeColor=#82b366;fillColor=#d5e8d4;align=left;verticalAlign=top;spacingLeft=4;spacingRight=4;overflow=hidden;rotatable=0;points=[[0,0.5],[1,0.5]];portConstraint=eastwest;fontFamily=Times New Roman;fontSize=20;" parent="DDZ6LUG9_i15dwgVKkXx-44" vertex="1">
          <mxGeometry y="170" width="291" height="36" as="geometry" />
        </mxCell>
        <mxCell id="DDZ6LUG9_i15dwgVKkXx-97" style="edgeStyle=orthogonalEdgeStyle;rounded=0;orthogonalLoop=1;jettySize=auto;html=1;entryX=0.5;entryY=1;entryDx=0;entryDy=0;" parent="1" source="DDZ6LUG9_i15dwgVKkXx-52" target="DDZ6LUG9_i15dwgVKkXx-44" edge="1">
          <mxGeometry relative="1" as="geometry">
            <Array as="points">
              <mxPoint x="5265" y="1780" />
              <mxPoint x="4886" y="1780" />
            </Array>
          </mxGeometry>
        </mxCell>
        <mxCell id="DDZ6LUG9_i15dwgVKkXx-52" value="RunLoopTimer" style="swimlane;fontStyle=0;childLayout=stackLayout;horizontal=1;startSize=26;fillColor=#d5e8d4;horizontalStack=0;resizeParent=1;resizeParentMax=0;resizeLast=0;collapsible=1;marginBottom=0;strokeWidth=1;fontFamily=Times New Roman;fontSize=20;strokeColor=#82b366;" parent="1" vertex="1">
          <mxGeometry x="5110" y="1800" width="310" height="242" as="geometry" />
        </mxCell>
        <mxCell id="DDZ6LUG9_i15dwgVKkXx-53" value="_base: CFRuntimeBase" style="text;strokeColor=#82b366;fillColor=#d5e8d4;align=left;verticalAlign=top;spacingLeft=4;spacingRight=4;overflow=hidden;rotatable=0;points=[[0,0.5],[1,0.5]];portConstraint=eastwest;fontFamily=Times New Roman;fontSize=20;" parent="DDZ6LUG9_i15dwgVKkXx-52" vertex="1">
          <mxGeometry y="26" width="310" height="36" as="geometry" />
        </mxCell>
        <mxCell id="DDZ6LUG9_i15dwgVKkXx-54" value="_runLoop: CFRunLoopRef" style="text;strokeColor=#82b366;fillColor=#d5e8d4;align=left;verticalAlign=top;spacingLeft=4;spacingRight=4;overflow=hidden;rotatable=0;points=[[0,0.5],[1,0.5]];portConstraint=eastwest;fontFamily=Times New Roman;fontSize=20;" parent="DDZ6LUG9_i15dwgVKkXx-52" vertex="1">
          <mxGeometry y="62" width="310" height="36" as="geometry" />
        </mxCell>
        <mxCell id="DDZ6LUG9_i15dwgVKkXx-93" value="_nextFireDate: CFAbsoluteTime" style="text;strokeColor=#82b366;fillColor=#d5e8d4;align=left;verticalAlign=top;spacingLeft=4;spacingRight=4;overflow=hidden;rotatable=0;points=[[0,0.5],[1,0.5]];portConstraint=eastwest;fontFamily=Times New Roman;fontSize=20;" parent="DDZ6LUG9_i15dwgVKkXx-52" vertex="1">
          <mxGeometry y="98" width="310" height="36" as="geometry" />
        </mxCell>
        <mxCell id="DDZ6LUG9_i15dwgVKkXx-55" value="_interval: CFTimeInterval" style="text;strokeColor=#82b366;fillColor=#d5e8d4;align=left;verticalAlign=top;spacingLeft=4;spacingRight=4;overflow=hidden;rotatable=0;points=[[0,0.5],[1,0.5]];portConstraint=eastwest;fontFamily=Times New Roman;fontSize=20;" parent="DDZ6LUG9_i15dwgVKkXx-52" vertex="1">
          <mxGeometry y="134" width="310" height="36" as="geometry" />
        </mxCell>
        <mxCell id="DDZ6LUG9_i15dwgVKkXx-91" value="_tolerance: CFTimeInterval" style="text;strokeColor=#82b366;fillColor=#d5e8d4;align=left;verticalAlign=top;spacingLeft=4;spacingRight=4;overflow=hidden;rotatable=0;points=[[0,0.5],[1,0.5]];portConstraint=eastwest;fontFamily=Times New Roman;fontSize=20;" parent="DDZ6LUG9_i15dwgVKkXx-52" vertex="1">
          <mxGeometry y="170" width="310" height="36" as="geometry" />
        </mxCell>
        <mxCell id="DDZ6LUG9_i15dwgVKkXx-92" value="_callout: CFRunLoopTimerCallBack" style="text;strokeColor=#82b366;fillColor=#d5e8d4;align=left;verticalAlign=top;spacingLeft=4;spacingRight=4;overflow=hidden;rotatable=0;points=[[0,0.5],[1,0.5]];portConstraint=eastwest;fontFamily=Times New Roman;fontSize=20;" parent="DDZ6LUG9_i15dwgVKkXx-52" vertex="1">
          <mxGeometry y="206" width="310" height="36" as="geometry" />
        </mxCell>
        <mxCell id="DDZ6LUG9_i15dwgVKkXx-96" style="edgeStyle=orthogonalEdgeStyle;rounded=0;orthogonalLoop=1;jettySize=auto;html=1;entryX=0.501;entryY=0.981;entryDx=0;entryDy=0;entryPerimeter=0;" parent="1" source="DDZ6LUG9_i15dwgVKkXx-56" target="DDZ6LUG9_i15dwgVKkXx-63" edge="1">
          <mxGeometry relative="1" as="geometry">
            <Array as="points">
              <mxPoint x="4886" y="1790" />
              <mxPoint x="4886" y="1790" />
            </Array>
          </mxGeometry>
        </mxCell>
        <mxCell id="DDZ6LUG9_i15dwgVKkXx-56" value="RunLoopObserver" style="swimlane;fontStyle=0;childLayout=stackLayout;horizontal=1;startSize=26;fillColor=#d5e8d4;horizontalStack=0;resizeParent=1;resizeParentMax=0;resizeLast=0;collapsible=1;marginBottom=0;strokeWidth=1;fontFamily=Times New Roman;fontSize=20;strokeColor=#82b366;" parent="1" vertex="1">
          <mxGeometry x="4720" y="1800" width="340" height="170" as="geometry" />
        </mxCell>
        <mxCell id="DDZ6LUG9_i15dwgVKkXx-57" value="_base: CFRuntimeBase" style="text;strokeColor=#82b366;fillColor=#d5e8d4;align=left;verticalAlign=top;spacingLeft=4;spacingRight=4;overflow=hidden;rotatable=0;points=[[0,0.5],[1,0.5]];portConstraint=eastwest;fontFamily=Times New Roman;fontSize=20;" parent="DDZ6LUG9_i15dwgVKkXx-56" vertex="1">
          <mxGeometry y="26" width="340" height="36" as="geometry" />
        </mxCell>
        <mxCell id="DDZ6LUG9_i15dwgVKkXx-58" value="_runLoop: CFRunLoopRef" style="text;strokeColor=#82b366;fillColor=#d5e8d4;align=left;verticalAlign=top;spacingLeft=4;spacingRight=4;overflow=hidden;rotatable=0;points=[[0,0.5],[1,0.5]];portConstraint=eastwest;fontFamily=Times New Roman;fontSize=20;" parent="DDZ6LUG9_i15dwgVKkXx-56" vertex="1">
          <mxGeometry y="62" width="340" height="36" as="geometry" />
        </mxCell>
        <mxCell id="DDZ6LUG9_i15dwgVKkXx-59" value="_activities: CFOptionFlags" style="text;strokeColor=#82b366;fillColor=#d5e8d4;align=left;verticalAlign=top;spacingLeft=4;spacingRight=4;overflow=hidden;rotatable=0;points=[[0,0.5],[1,0.5]];portConstraint=eastwest;fontFamily=Times New Roman;fontSize=20;" parent="DDZ6LUG9_i15dwgVKkXx-56" vertex="1">
          <mxGeometry y="98" width="340" height="36" as="geometry" />
        </mxCell>
        <mxCell id="DDZ6LUG9_i15dwgVKkXx-94" value="_callout: CFRunLoopObserverCallBack" style="text;strokeColor=#82b366;fillColor=#d5e8d4;align=left;verticalAlign=top;spacingLeft=4;spacingRight=4;overflow=hidden;rotatable=0;points=[[0,0.5],[1,0.5]];portConstraint=eastwest;fontFamily=Times New Roman;fontSize=20;" parent="DDZ6LUG9_i15dwgVKkXx-56" vertex="1">
          <mxGeometry y="134" width="340" height="36" as="geometry" />
        </mxCell>
        <mxCell id="DDZ6LUG9_i15dwgVKkXx-78" value="" style="rounded=0;whiteSpace=wrap;html=1;fillColor=#fff2cc;strokeColor=#d6b656;" parent="1" vertex="1">
          <mxGeometry x="4270" y="80" width="100" height="70" as="geometry" />
        </mxCell>
        <mxCell id="DDZ6LUG9_i15dwgVKkXx-95" style="edgeStyle=orthogonalEdgeStyle;rounded=0;orthogonalLoop=1;jettySize=auto;html=1;entryX=0.5;entryY=1;entryDx=0;entryDy=0;" parent="1" source="DDZ6LUG9_i15dwgVKkXx-48" target="DDZ6LUG9_i15dwgVKkXx-44" edge="1">
          <mxGeometry relative="1" as="geometry">
            <Array as="points">
              <mxPoint x="4495" y="1780" />
              <mxPoint x="4886" y="1780" />
              <mxPoint x="4886" y="1756" />
            </Array>
          </mxGeometry>
        </mxCell>
        <mxCell id="DDZ6LUG9_i15dwgVKkXx-48" value="RunLoopSource" style="swimlane;fontStyle=0;childLayout=stackLayout;horizontal=1;startSize=26;fillColor=#d5e8d4;horizontalStack=0;resizeParent=1;resizeParentMax=0;resizeLast=0;collapsible=1;marginBottom=0;strokeWidth=1;fontFamily=Times New Roman;fontSize=20;strokeColor=#82b366;" parent="1" vertex="1">
          <mxGeometry x="4340" y="1800" width="310" height="172" as="geometry" />
        </mxCell>
        <mxCell id="DDZ6LUG9_i15dwgVKkXx-49" value="_base: CFRuntimeBase" style="text;strokeColor=#82b366;fillColor=#d5e8d4;align=left;verticalAlign=top;spacingLeft=4;spacingRight=4;overflow=hidden;rotatable=0;points=[[0,0.5],[1,0.5]];portConstraint=eastwest;fontFamily=Times New Roman;fontSize=20;" parent="DDZ6LUG9_i15dwgVKkXx-48" vertex="1">
          <mxGeometry y="26" width="310" height="36" as="geometry" />
        </mxCell>
        <mxCell id="DDZ6LUG9_i15dwgVKkXx-50" value="_runLoops: CFMutableBagRef" style="text;strokeColor=#82b366;fillColor=#d5e8d4;align=left;verticalAlign=top;spacingLeft=4;spacingRight=4;overflow=hidden;rotatable=0;points=[[0,0.5],[1,0.5]];portConstraint=eastwest;fontFamily=Times New Roman;fontSize=20;" parent="DDZ6LUG9_i15dwgVKkXx-48" vertex="1">
          <mxGeometry y="62" width="310" height="38" as="geometry" />
        </mxCell>
        <mxCell id="DDZ6LUG9_i15dwgVKkXx-51" value="version0: CFRunLoopSourceContext" style="text;strokeColor=#82b366;fillColor=#d5e8d4;align=left;verticalAlign=top;spacingLeft=4;spacingRight=4;overflow=hidden;rotatable=0;points=[[0,0.5],[1,0.5]];portConstraint=eastwest;fontFamily=Times New Roman;fontSize=20;" parent="DDZ6LUG9_i15dwgVKkXx-48" vertex="1">
          <mxGeometry y="100" width="310" height="36" as="geometry" />
        </mxCell>
        <mxCell id="DDZ6LUG9_i15dwgVKkXx-90" value="version1: CFRunLoopSourceContext" style="text;strokeColor=#82b366;fillColor=#d5e8d4;align=left;verticalAlign=top;spacingLeft=4;spacingRight=4;overflow=hidden;rotatable=0;points=[[0,0.5],[1,0.5]];portConstraint=eastwest;fontFamily=Times New Roman;fontSize=20;" parent="DDZ6LUG9_i15dwgVKkXx-48" vertex="1">
          <mxGeometry y="136" width="310" height="36" as="geometry" />
        </mxCell>
        <mxCell id="DDZ6LUG9_i15dwgVKkXx-65" value="处理 Blocks" style="html=1;whiteSpace=wrap;align=left;fontSize=12;fontFamily=Times New Roman;strokeColor=none;" parent="1" vertex="1">
          <mxGeometry x="4280" y="90" width="80" height="20" as="geometry" />
        </mxCell>
        <mxCell id="DDZ6LUG9_i15dwgVKkXx-66" value="处理 Source0" style="html=1;whiteSpace=wrap;align=left;fontSize=12;fontFamily=Times New Roman;strokeColor=none;" parent="1" vertex="1">
          <mxGeometry x="4280" y="120" width="80" height="20" as="geometry" />
        </mxCell>
        <mxCell id="DDZ6LUG9_i15dwgVKkXx-67" value="10. 通知 Observer：即将退出 Loop (Exit)" style="html=1;whiteSpace=wrap;align=left;fontSize=12;fontFamily=Times New Roman;strokeColor=none;" parent="1" vertex="1">
          <mxGeometry x="3980" y="272" width="270" height="20" as="geometry" />
        </mxCell>
        <mxCell id="DDZ6LUG9_i15dwgVKkXx-73" style="edgeStyle=orthogonalEdgeStyle;rounded=0;orthogonalLoop=1;jettySize=auto;html=1;entryX=0.931;entryY=0.825;entryDx=0;entryDy=0;entryPerimeter=0;movable=1;resizable=1;rotatable=1;deletable=1;editable=1;locked=0;connectable=1;endArrow=openThin;endFill=0;exitX=0;exitY=0.5;exitDx=0;exitDy=0;" parent="1" edge="1">
          <mxGeometry relative="1" as="geometry">
            <mxPoint x="4280" y="191.07999999999998" as="sourcePoint" />
            <mxPoint x="4239.99" y="235.97999999999996" as="targetPoint" />
            <Array as="points">
              <mxPoint x="4280" y="189.98" />
              <mxPoint x="4270" y="189.98" />
              <mxPoint x="4270" y="235.98" />
            </Array>
          </mxGeometry>
        </mxCell>
        <mxCell id="DDZ6LUG9_i15dwgVKkXx-77" value="" style="rounded=0;whiteSpace=wrap;html=1;fillColor=#fff2cc;strokeColor=#d6b656;" parent="1" vertex="1">
          <mxGeometry x="4270" y="170" width="130" height="130" as="geometry" />
        </mxCell>
        <mxCell id="DDZ6LUG9_i15dwgVKkXx-89" value="1/3" style="shape=curlyBracket;whiteSpace=wrap;html=1;rounded=1;flipH=1;labelPosition=right;verticalLabelPosition=middle;align=left;verticalAlign=middle;fontFamily=Times New Roman;" parent="1" vertex="1">
          <mxGeometry x="4356" y="190" width="19" height="62" as="geometry" />
        </mxCell>
        <mxCell id="DDZ6LUG9_i15dwgVKkXx-68" value="处理 Timer" style="html=1;whiteSpace=wrap;align=left;fontSize=12;fontFamily=Times New Roman;strokeColor=none;" parent="1" vertex="1">
          <mxGeometry x="4280" y="181" width="80" height="20" as="geometry" />
        </mxCell>
        <mxCell id="DDZ6LUG9_i15dwgVKkXx-69" value="处理 GCD" style="html=1;whiteSpace=wrap;align=left;fontSize=12;fontFamily=Times New Roman;strokeColor=none;" parent="1" vertex="1">
          <mxGeometry x="4280" y="211" width="80" height="20" as="geometry" />
        </mxCell>
        <mxCell id="DDZ6LUG9_i15dwgVKkXx-70" value="处理 Source1" style="html=1;whiteSpace=wrap;align=left;fontSize=12;fontFamily=Times New Roman;strokeColor=none;" parent="1" vertex="1">
          <mxGeometry x="4280" y="242" width="80" height="20" as="geometry" />
        </mxCell>
        <mxCell id="DDZ6LUG9_i15dwgVKkXx-71" value="处理 Blocks" style="html=1;whiteSpace=wrap;align=left;fontSize=12;fontFamily=Times New Roman;strokeColor=none;" parent="1" vertex="1">
          <mxGeometry x="4280" y="271" width="80" height="20" as="geometry" />
        </mxCell>
        <mxCell id="DDZ6LUG9_i15dwgVKkXx-79" value="" style="endArrow=openThin;html=1;rounded=0;exitX=0;exitY=0.5;exitDx=0;exitDy=0;endFill=0;" parent="1" source="DDZ6LUG9_i15dwgVKkXx-78" edge="1">
          <mxGeometry width="50" height="50" relative="1" as="geometry">
            <mxPoint x="4100" y="170" as="sourcePoint" />
            <mxPoint x="4240" y="115" as="targetPoint" />
          </mxGeometry>
        </mxCell>
        <mxCell id="DDZ6LUG9_i15dwgVKkXx-83" value="" style="rounded=0;whiteSpace=wrap;html=1;fillColor=#fff2cc;strokeColor=#d6b656;" parent="1" vertex="1">
          <mxGeometry x="3860" y="143" width="100" height="100" as="geometry" />
        </mxCell>
        <mxCell id="DDZ6LUG9_i15dwgVKkXx-80" value="Source0 (port)" style="html=1;whiteSpace=wrap;align=left;fontSize=12;fontFamily=Times New Roman;strokeColor=none;" parent="1" vertex="1">
          <mxGeometry x="3870" y="152" width="80" height="20" as="geometry" />
        </mxCell>
        <mxCell id="DDZ6LUG9_i15dwgVKkXx-81" value="Timer" style="html=1;whiteSpace=wrap;align=left;fontSize=12;fontFamily=Times New Roman;strokeColor=none;" parent="1" vertex="1">
          <mxGeometry x="3870" y="182" width="80" height="20" as="geometry" />
        </mxCell>
        <mxCell id="DDZ6LUG9_i15dwgVKkXx-82" value="外部手动唤醒" style="html=1;whiteSpace=wrap;align=left;fontSize=12;fontFamily=Times New Roman;strokeColor=none;" parent="1" vertex="1">
          <mxGeometry x="3870" y="213" width="80" height="20" as="geometry" />
        </mxCell>
        <mxCell id="DDZ6LUG9_i15dwgVKkXx-85" value="" style="endArrow=openThin;html=1;rounded=0;exitX=1.005;exitY=0.487;exitDx=0;exitDy=0;entryX=0;entryY=0.5;entryDx=0;entryDy=0;endFill=0;exitPerimeter=0;" parent="1" source="DDZ6LUG9_i15dwgVKkXx-83" edge="1">
          <mxGeometry width="50" height="50" relative="1" as="geometry">
            <mxPoint x="3960.3" y="192.70000000000005" as="sourcePoint" />
            <mxPoint x="3980" y="192" as="targetPoint" />
          </mxGeometry>
        </mxCell>
        <mxCell id="DDZ6LUG9_i15dwgVKkXx-64" style="edgeStyle=orthogonalEdgeStyle;rounded=0;orthogonalLoop=1;jettySize=auto;html=1;exitX=1;exitY=0.5;exitDx=0;exitDy=0;entryX=0;entryY=0.5;entryDx=0;entryDy=0;" parent="1" source="DDZ6LUG9_i15dwgVKkXx-43" target="DDZ6LUG9_i15dwgVKkXx-47" edge="1">
          <mxGeometry relative="1" as="geometry">
            <mxPoint x="4710" y="1666.3333333333335" as="targetPoint" />
          </mxGeometry>
        </mxCell>
        <mxCell id="INDomgM1skQ79PHPu_2q-1" value="Block_layout" style="swimlane;fontStyle=0;childLayout=stackLayout;horizontal=1;startSize=26;fillColor=#d5e8d4;horizontalStack=0;resizeParent=1;resizeParentMax=0;resizeLast=0;collapsible=1;marginBottom=0;strokeWidth=1;fontFamily=Times New Roman;fontSize=20;strokeColor=#82b366;" parent="1" vertex="1">
          <mxGeometry x="4290" y="2138" width="350" height="242" as="geometry" />
        </mxCell>
        <mxCell id="INDomgM1skQ79PHPu_2q-2" value="isa: void *" style="text;strokeColor=#82b366;fillColor=#d5e8d4;align=left;verticalAlign=top;spacingLeft=4;spacingRight=4;overflow=hidden;rotatable=0;points=[[0,0.5],[1,0.5]];portConstraint=eastwest;fontFamily=Times New Roman;fontSize=20;" parent="INDomgM1skQ79PHPu_2q-1" vertex="1">
          <mxGeometry y="26" width="350" height="36" as="geometry" />
        </mxCell>
        <mxCell id="INDomgM1skQ79PHPu_2q-3" value="flags: int" style="text;strokeColor=#82b366;fillColor=#d5e8d4;align=left;verticalAlign=top;spacingLeft=4;spacingRight=4;overflow=hidden;rotatable=0;points=[[0,0.5],[1,0.5]];portConstraint=eastwest;fontFamily=Times New Roman;fontSize=20;" parent="INDomgM1skQ79PHPu_2q-1" vertex="1">
          <mxGeometry y="62" width="350" height="36" as="geometry" />
        </mxCell>
        <mxCell id="INDomgM1skQ79PHPu_2q-4" value="reversed: int" style="text;strokeColor=#82b366;fillColor=#d5e8d4;align=left;verticalAlign=top;spacingLeft=4;spacingRight=4;overflow=hidden;rotatable=0;points=[[0,0.5],[1,0.5]];portConstraint=eastwest;fontFamily=Times New Roman;fontSize=20;" parent="INDomgM1skQ79PHPu_2q-1" vertex="1">
          <mxGeometry y="98" width="350" height="36" as="geometry" />
        </mxCell>
        <mxCell id="INDomgM1skQ79PHPu_2q-5" value="invoke: (void *(void, ...))" style="text;strokeColor=#82b366;fillColor=#d5e8d4;align=left;verticalAlign=top;spacingLeft=4;spacingRight=4;overflow=hidden;rotatable=0;points=[[0,0.5],[1,0.5]];portConstraint=eastwest;fontFamily=Times New Roman;fontSize=20;" parent="INDomgM1skQ79PHPu_2q-1" vertex="1">
          <mxGeometry y="134" width="350" height="36" as="geometry" />
        </mxCell>
        <mxCell id="INDomgM1skQ79PHPu_2q-6" value="descriptor: (struct Block_descriptor *)" style="text;strokeColor=#82b366;fillColor=#d5e8d4;align=left;verticalAlign=top;spacingLeft=4;spacingRight=4;overflow=hidden;rotatable=0;points=[[0,0.5],[1,0.5]];portConstraint=eastwest;fontFamily=Times New Roman;fontSize=20;" parent="INDomgM1skQ79PHPu_2q-1" vertex="1">
          <mxGeometry y="170" width="350" height="36" as="geometry" />
        </mxCell>
        <mxCell id="INDomgM1skQ79PHPu_2q-12" value="variables: 被捕获的变量" style="text;strokeColor=#82b366;fillColor=#d5e8d4;align=left;verticalAlign=top;spacingLeft=4;spacingRight=4;overflow=hidden;rotatable=0;points=[[0,0.5],[1,0.5]];portConstraint=eastwest;fontFamily=Times New Roman;fontSize=20;" parent="INDomgM1skQ79PHPu_2q-1" vertex="1">
          <mxGeometry y="206" width="350" height="36" as="geometry" />
        </mxCell>
        <mxCell id="INDomgM1skQ79PHPu_2q-7" value="Block_descriptor" style="swimlane;fontStyle=0;childLayout=stackLayout;horizontal=1;startSize=26;fillColor=#d5e8d4;horizontalStack=0;resizeParent=1;resizeParentMax=0;resizeLast=0;collapsible=1;marginBottom=0;strokeWidth=1;fontFamily=Times New Roman;fontSize=20;strokeColor=#82b366;" parent="1" vertex="1">
          <mxGeometry x="4690" y="2137" width="310" height="172" as="geometry" />
        </mxCell>
        <mxCell id="INDomgM1skQ79PHPu_2q-8" value="reserved: long int" style="text;strokeColor=#82b366;fillColor=#d5e8d4;align=left;verticalAlign=top;spacingLeft=4;spacingRight=4;overflow=hidden;rotatable=0;points=[[0,0.5],[1,0.5]];portConstraint=eastwest;fontFamily=Times New Roman;fontSize=20;" parent="INDomgM1skQ79PHPu_2q-7" vertex="1">
          <mxGeometry y="26" width="310" height="36" as="geometry" />
        </mxCell>
        <mxCell id="INDomgM1skQ79PHPu_2q-9" value="size: long int" style="text;strokeColor=#82b366;fillColor=#d5e8d4;align=left;verticalAlign=top;spacingLeft=4;spacingRight=4;overflow=hidden;rotatable=0;points=[[0,0.5],[1,0.5]];portConstraint=eastwest;fontFamily=Times New Roman;fontSize=20;" parent="INDomgM1skQ79PHPu_2q-7" vertex="1">
          <mxGeometry y="62" width="310" height="38" as="geometry" />
        </mxCell>
        <mxCell id="INDomgM1skQ79PHPu_2q-10" value="copy: (void *(void *, void *))" style="text;strokeColor=#82b366;fillColor=#d5e8d4;align=left;verticalAlign=top;spacingLeft=4;spacingRight=4;overflow=hidden;rotatable=0;points=[[0,0.5],[1,0.5]];portConstraint=eastwest;fontFamily=Times New Roman;fontSize=20;" parent="INDomgM1skQ79PHPu_2q-7" vertex="1">
          <mxGeometry y="100" width="310" height="36" as="geometry" />
        </mxCell>
        <mxCell id="INDomgM1skQ79PHPu_2q-11" value="dispose: (void * (void *))" style="text;strokeColor=#82b366;fillColor=#d5e8d4;align=left;verticalAlign=top;spacingLeft=4;spacingRight=4;overflow=hidden;rotatable=0;points=[[0,0.5],[1,0.5]];portConstraint=eastwest;fontFamily=Times New Roman;fontSize=20;" parent="INDomgM1skQ79PHPu_2q-7" vertex="1">
          <mxGeometry y="136" width="310" height="36" as="geometry" />
        </mxCell>
        <mxCell id="INDomgM1skQ79PHPu_2q-14" value="" style="endArrow=classic;html=1;rounded=0;exitX=0;exitY=0.5;exitDx=0;exitDy=0;entryX=1;entryY=0.5;entryDx=0;entryDy=0;" parent="1" source="INDomgM1skQ79PHPu_2q-9" target="INDomgM1skQ79PHPu_2q-3" edge="1">
          <mxGeometry width="50" height="50" relative="1" as="geometry">
            <mxPoint x="4671" y="2279" as="sourcePoint" />
            <mxPoint x="4721" y="2229" as="targetPoint" />
          </mxGeometry>
        </mxCell>
        <mxCell id="INDomgM1skQ79PHPu_2q-15" value="Block_byref" style="swimlane;fontStyle=0;childLayout=stackLayout;horizontal=1;startSize=26;fillColor=#d5e8d4;horizontalStack=0;resizeParent=1;resizeParentMax=0;resizeLast=0;collapsible=1;marginBottom=0;strokeWidth=1;fontFamily=Times New Roman;fontSize=20;strokeColor=#82b366;" parent="1" vertex="1">
          <mxGeometry x="4291" y="2482" width="310" height="208" as="geometry" />
        </mxCell>
        <mxCell id="INDomgM1skQ79PHPu_2q-16" value="_isa: void *" style="text;strokeColor=#82b366;fillColor=#d5e8d4;align=left;verticalAlign=top;spacingLeft=4;spacingRight=4;overflow=hidden;rotatable=0;points=[[0,0.5],[1,0.5]];portConstraint=eastwest;fontFamily=Times New Roman;fontSize=20;" parent="INDomgM1skQ79PHPu_2q-15" vertex="1">
          <mxGeometry y="26" width="310" height="36" as="geometry" />
        </mxCell>
        <mxCell id="INDomgM1skQ79PHPu_2q-17" value="*_forwarding: _Block_byref" style="text;strokeColor=#82b366;fillColor=#d5e8d4;align=left;verticalAlign=top;spacingLeft=4;spacingRight=4;overflow=hidden;rotatable=0;points=[[0,0.5],[1,0.5]];portConstraint=eastwest;fontFamily=Times New Roman;fontSize=20;" parent="INDomgM1skQ79PHPu_2q-15" vertex="1">
          <mxGeometry y="62" width="310" height="38" as="geometry" />
        </mxCell>
        <mxCell id="INDomgM1skQ79PHPu_2q-18" value="_flags: Int" style="text;strokeColor=#82b366;fillColor=#d5e8d4;align=left;verticalAlign=top;spacingLeft=4;spacingRight=4;overflow=hidden;rotatable=0;points=[[0,0.5],[1,0.5]];portConstraint=eastwest;fontFamily=Times New Roman;fontSize=20;" parent="INDomgM1skQ79PHPu_2q-15" vertex="1">
          <mxGeometry y="100" width="310" height="36" as="geometry" />
        </mxCell>
        <mxCell id="INDomgM1skQ79PHPu_2q-19" value="_size: Int" style="text;strokeColor=#82b366;fillColor=#d5e8d4;align=left;verticalAlign=top;spacingLeft=4;spacingRight=4;overflow=hidden;rotatable=0;points=[[0,0.5],[1,0.5]];portConstraint=eastwest;fontFamily=Times New Roman;fontSize=20;" parent="INDomgM1skQ79PHPu_2q-15" vertex="1">
          <mxGeometry y="136" width="310" height="36" as="geometry" />
        </mxCell>
        <mxCell id="INDomgM1skQ79PHPu_2q-20" value="variable: 被捕获的变量" style="text;strokeColor=#82b366;fillColor=#d5e8d4;align=left;verticalAlign=top;spacingLeft=4;spacingRight=4;overflow=hidden;rotatable=0;points=[[0,0.5],[1,0.5]];portConstraint=eastwest;fontFamily=Times New Roman;fontSize=20;" parent="INDomgM1skQ79PHPu_2q-15" vertex="1">
          <mxGeometry y="172" width="310" height="36" as="geometry" />
        </mxCell>
        <mxCell id="INDomgM1skQ79PHPu_2q-21" value="Notification" style="swimlane;fontStyle=0;childLayout=stackLayout;horizontal=1;startSize=26;fillColor=#d5e8d4;horizontalStack=0;resizeParent=1;resizeParentMax=0;resizeLast=0;collapsible=1;marginBottom=0;strokeWidth=1;fontFamily=Times New Roman;fontSize=20;strokeColor=#82b366;" parent="1" vertex="1">
          <mxGeometry x="4936" y="2776" width="217" height="136" as="geometry" />
        </mxCell>
        <mxCell id="INDomgM1skQ79PHPu_2q-22" value="name: String" style="text;strokeColor=#82b366;fillColor=#d5e8d4;align=left;verticalAlign=top;spacingLeft=4;spacingRight=4;overflow=hidden;rotatable=0;points=[[0,0.5],[1,0.5]];portConstraint=eastwest;fontFamily=Times New Roman;fontSize=20;" parent="INDomgM1skQ79PHPu_2q-21" vertex="1">
          <mxGeometry y="26" width="217" height="36" as="geometry" />
        </mxCell>
        <mxCell id="INDomgM1skQ79PHPu_2q-23" value="object: id" style="text;strokeColor=#82b366;fillColor=#d5e8d4;align=left;verticalAlign=top;spacingLeft=4;spacingRight=4;overflow=hidden;rotatable=0;points=[[0,0.5],[1,0.5]];portConstraint=eastwest;fontFamily=Times New Roman;fontSize=20;" parent="INDomgM1skQ79PHPu_2q-21" vertex="1">
          <mxGeometry y="62" width="217" height="38" as="geometry" />
        </mxCell>
        <mxCell id="INDomgM1skQ79PHPu_2q-24" value="userInfo: NSDictionary" style="text;strokeColor=#82b366;fillColor=#d5e8d4;align=left;verticalAlign=top;spacingLeft=4;spacingRight=4;overflow=hidden;rotatable=0;points=[[0,0.5],[1,0.5]];portConstraint=eastwest;fontFamily=Times New Roman;fontSize=20;" parent="INDomgM1skQ79PHPu_2q-21" vertex="1">
          <mxGeometry y="100" width="217" height="36" as="geometry" />
        </mxCell>
        <mxCell id="INDomgM1skQ79PHPu_2q-27" value="NotificationCenter" style="swimlane;fontStyle=0;childLayout=stackLayout;horizontal=1;startSize=26;fillColor=#d5e8d4;horizontalStack=0;resizeParent=1;resizeParentMax=0;resizeLast=0;collapsible=1;marginBottom=0;strokeWidth=1;fontFamily=Times New Roman;fontSize=20;strokeColor=#82b366;" parent="1" vertex="1">
          <mxGeometry x="4570" y="2775" width="256" height="172" as="geometry" />
        </mxCell>
        <mxCell id="INDomgM1skQ79PHPu_2q-28" value="default: NotificationCenter" style="text;strokeColor=#82b366;fillColor=#d5e8d4;align=left;verticalAlign=top;spacingLeft=4;spacingRight=4;overflow=hidden;rotatable=0;points=[[0,0.5],[1,0.5]];portConstraint=eastwest;fontFamily=Times New Roman;fontSize=20;" parent="INDomgM1skQ79PHPu_2q-27" vertex="1">
          <mxGeometry y="26" width="256" height="36" as="geometry" />
        </mxCell>
        <mxCell id="INDomgM1skQ79PHPu_2q-29" value="func addObserver" style="text;strokeColor=#82b366;fillColor=#d5e8d4;align=left;verticalAlign=top;spacingLeft=4;spacingRight=4;overflow=hidden;rotatable=0;points=[[0,0.5],[1,0.5]];portConstraint=eastwest;fontFamily=Times New Roman;fontSize=20;" parent="INDomgM1skQ79PHPu_2q-27" vertex="1">
          <mxGeometry y="62" width="256" height="38" as="geometry" />
        </mxCell>
        <mxCell id="INDomgM1skQ79PHPu_2q-30" value="func post" style="text;strokeColor=#82b366;fillColor=#d5e8d4;align=left;verticalAlign=top;spacingLeft=4;spacingRight=4;overflow=hidden;rotatable=0;points=[[0,0.5],[1,0.5]];portConstraint=eastwest;fontFamily=Times New Roman;fontSize=20;" parent="INDomgM1skQ79PHPu_2q-27" vertex="1">
          <mxGeometry y="100" width="256" height="36" as="geometry" />
        </mxCell>
        <mxCell id="INDomgM1skQ79PHPu_2q-31" value="func removeObserver" style="text;strokeColor=#82b366;fillColor=#d5e8d4;align=left;verticalAlign=top;spacingLeft=4;spacingRight=4;overflow=hidden;rotatable=0;points=[[0,0.5],[1,0.5]];portConstraint=eastwest;fontFamily=Times New Roman;fontSize=20;" parent="INDomgM1skQ79PHPu_2q-27" vertex="1">
          <mxGeometry y="136" width="256" height="36" as="geometry" />
        </mxCell>
        <mxCell id="INDomgM1skQ79PHPu_2q-32" value="Obs" style="swimlane;fontStyle=0;childLayout=stackLayout;horizontal=1;startSize=26;fillColor=#d5e8d4;horizontalStack=0;resizeParent=1;resizeParentMax=0;resizeLast=0;collapsible=1;marginBottom=0;strokeWidth=1;fontFamily=Times New Roman;fontSize=20;strokeColor=#82b366;" parent="1" vertex="1">
          <mxGeometry x="4251" y="2777" width="256" height="172" as="geometry" />
        </mxCell>
        <mxCell id="INDomgM1skQ79PHPu_2q-33" value="default: NotificationCenter" style="text;strokeColor=#82b366;fillColor=#d5e8d4;align=left;verticalAlign=top;spacingLeft=4;spacingRight=4;overflow=hidden;rotatable=0;points=[[0,0.5],[1,0.5]];portConstraint=eastwest;fontFamily=Times New Roman;fontSize=20;" parent="INDomgM1skQ79PHPu_2q-32" vertex="1">
          <mxGeometry y="26" width="256" height="36" as="geometry" />
        </mxCell>
        <mxCell id="INDomgM1skQ79PHPu_2q-34" value="func addObserver" style="text;strokeColor=#82b366;fillColor=#d5e8d4;align=left;verticalAlign=top;spacingLeft=4;spacingRight=4;overflow=hidden;rotatable=0;points=[[0,0.5],[1,0.5]];portConstraint=eastwest;fontFamily=Times New Roman;fontSize=20;" parent="INDomgM1skQ79PHPu_2q-32" vertex="1">
          <mxGeometry y="62" width="256" height="38" as="geometry" />
        </mxCell>
        <mxCell id="INDomgM1skQ79PHPu_2q-35" value="func post" style="text;strokeColor=#82b366;fillColor=#d5e8d4;align=left;verticalAlign=top;spacingLeft=4;spacingRight=4;overflow=hidden;rotatable=0;points=[[0,0.5],[1,0.5]];portConstraint=eastwest;fontFamily=Times New Roman;fontSize=20;" parent="INDomgM1skQ79PHPu_2q-32" vertex="1">
          <mxGeometry y="100" width="256" height="36" as="geometry" />
        </mxCell>
        <mxCell id="INDomgM1skQ79PHPu_2q-36" value="func removeObserver" style="text;strokeColor=#82b366;fillColor=#d5e8d4;align=left;verticalAlign=top;spacingLeft=4;spacingRight=4;overflow=hidden;rotatable=0;points=[[0,0.5],[1,0.5]];portConstraint=eastwest;fontFamily=Times New Roman;fontSize=20;" parent="INDomgM1skQ79PHPu_2q-32" vertex="1">
          <mxGeometry y="136" width="256" height="36" as="geometry" />
        </mxCell>
        <mxCell id="VGeZqADSv8ml1t3nIDyi-1" value="" style="shape=table;startSize=0;container=1;collapsible=0;childLayout=tableLayout;fontSize=16;swimlaneLine=1;fontFamily=Times New Roman;fillColor=#d5e8d4;strokeColor=#82b366;comic=0;enumerate=0;moveCells=0;treeMoving=0;rowLines=1;columnLines=1;fixedRows=0;resizeLast=0;arcSize=15;shadow=0;" vertex="1" parent="1">
          <mxGeometry x="2574" y="1874" width="287.3225806451619" height="84" as="geometry" />
        </mxCell>
        <mxCell id="VGeZqADSv8ml1t3nIDyi-2" value="" style="shape=tableRow;horizontal=0;startSize=0;swimlaneHead=0;swimlaneBody=0;strokeColor=inherit;top=0;left=0;bottom=0;right=0;collapsible=0;dropTarget=0;fillColor=none;points=[[0,0.5],[1,0.5]];portConstraint=eastwest;fontSize=16;" vertex="1" parent="VGeZqADSv8ml1t3nIDyi-1">
          <mxGeometry width="287.3225806451619" height="27" as="geometry" />
        </mxCell>
        <mxCell id="VGeZqADSv8ml1t3nIDyi-3" value="" style="shape=partialRectangle;html=1;whiteSpace=wrap;connectable=0;strokeColor=inherit;overflow=hidden;fillColor=none;top=0;left=0;bottom=0;right=0;pointerEvents=1;fontSize=16;" vertex="1" parent="VGeZqADSv8ml1t3nIDyi-2">
          <mxGeometry width="98" height="27" as="geometry">
            <mxRectangle width="98" height="27" as="alternateBounds" />
          </mxGeometry>
        </mxCell>
        <mxCell id="VGeZqADSv8ml1t3nIDyi-4" value="类中声明" style="shape=partialRectangle;html=1;whiteSpace=wrap;connectable=0;strokeColor=inherit;overflow=hidden;fillColor=none;top=0;left=0;bottom=0;right=0;pointerEvents=1;fontSize=16;" vertex="1" parent="VGeZqADSv8ml1t3nIDyi-2">
          <mxGeometry x="98" width="98" height="27" as="geometry">
            <mxRectangle width="98" height="27" as="alternateBounds" />
          </mxGeometry>
        </mxCell>
        <mxCell id="VGeZqADSv8ml1t3nIDyi-5" value="拓展声明" style="shape=partialRectangle;html=1;whiteSpace=wrap;connectable=0;strokeColor=inherit;overflow=hidden;fillColor=none;top=0;left=0;bottom=0;right=0;pointerEvents=1;fontSize=16;" vertex="1" parent="VGeZqADSv8ml1t3nIDyi-2">
          <mxGeometry x="196" width="91" height="27" as="geometry">
            <mxRectangle width="91" height="27" as="alternateBounds" />
          </mxGeometry>
        </mxCell>
        <mxCell id="VGeZqADSv8ml1t3nIDyi-6" value="" style="shape=tableRow;horizontal=0;startSize=0;swimlaneHead=0;swimlaneBody=0;strokeColor=inherit;top=0;left=0;bottom=0;right=0;collapsible=0;dropTarget=0;fillColor=none;points=[[0,0.5],[1,0.5]];portConstraint=eastwest;fontSize=16;" vertex="1" parent="VGeZqADSv8ml1t3nIDyi-1">
          <mxGeometry y="27" width="287.3225806451619" height="30" as="geometry" />
        </mxCell>
        <mxCell id="VGeZqADSv8ml1t3nIDyi-7" value="值类型" style="shape=partialRectangle;html=1;whiteSpace=wrap;connectable=0;strokeColor=inherit;overflow=hidden;fillColor=none;top=0;left=0;bottom=0;right=0;pointerEvents=1;fontSize=16;" vertex="1" parent="VGeZqADSv8ml1t3nIDyi-6">
          <mxGeometry width="98" height="30" as="geometry">
            <mxRectangle width="98" height="30" as="alternateBounds" />
          </mxGeometry>
        </mxCell>
        <mxCell id="VGeZqADSv8ml1t3nIDyi-8" value="" style="shape=partialRectangle;html=1;whiteSpace=wrap;connectable=0;strokeColor=inherit;overflow=hidden;fillColor=none;top=0;left=0;bottom=0;right=0;pointerEvents=1;fontSize=16;" vertex="1" parent="VGeZqADSv8ml1t3nIDyi-6">
          <mxGeometry x="98" width="98" height="30" as="geometry">
            <mxRectangle width="98" height="30" as="alternateBounds" />
          </mxGeometry>
        </mxCell>
        <mxCell id="VGeZqADSv8ml1t3nIDyi-9" value="" style="shape=partialRectangle;html=1;whiteSpace=wrap;connectable=0;strokeColor=inherit;overflow=hidden;fillColor=none;top=0;left=0;bottom=0;right=0;pointerEvents=1;fontSize=16;" vertex="1" parent="VGeZqADSv8ml1t3nIDyi-6">
          <mxGeometry x="196" width="91" height="30" as="geometry">
            <mxRectangle width="91" height="30" as="alternateBounds" />
          </mxGeometry>
        </mxCell>
        <mxCell id="VGeZqADSv8ml1t3nIDyi-10" value="" style="shape=tableRow;horizontal=0;startSize=0;swimlaneHead=0;swimlaneBody=0;strokeColor=inherit;top=0;left=0;bottom=0;right=0;collapsible=0;dropTarget=0;fillColor=none;points=[[0,0.5],[1,0.5]];portConstraint=eastwest;fontSize=16;" vertex="1" parent="VGeZqADSv8ml1t3nIDyi-1">
          <mxGeometry y="57" width="287.3225806451619" height="27" as="geometry" />
        </mxCell>
        <mxCell id="VGeZqADSv8ml1t3nIDyi-11" value="协议 / 类" style="shape=partialRectangle;html=1;whiteSpace=wrap;connectable=0;strokeColor=inherit;overflow=hidden;fillColor=none;top=0;left=0;bottom=0;right=0;pointerEvents=1;fontSize=16;" vertex="1" parent="VGeZqADSv8ml1t3nIDyi-10">
          <mxGeometry width="98" height="27" as="geometry">
            <mxRectangle width="98" height="27" as="alternateBounds" />
          </mxGeometry>
        </mxCell>
        <mxCell id="VGeZqADSv8ml1t3nIDyi-12" value="" style="shape=partialRectangle;html=1;whiteSpace=wrap;connectable=0;strokeColor=inherit;overflow=hidden;fillColor=none;top=0;left=0;bottom=0;right=0;pointerEvents=1;fontSize=16;" vertex="1" parent="VGeZqADSv8ml1t3nIDyi-10">
          <mxGeometry x="98" width="98" height="27" as="geometry">
            <mxRectangle width="98" height="27" as="alternateBounds" />
          </mxGeometry>
        </mxCell>
        <mxCell id="VGeZqADSv8ml1t3nIDyi-13" value="" style="shape=partialRectangle;html=1;whiteSpace=wrap;connectable=0;strokeColor=inherit;overflow=hidden;fillColor=none;top=0;left=0;bottom=0;right=0;pointerEvents=1;fontSize=16;" vertex="1" parent="VGeZqADSv8ml1t3nIDyi-10">
          <mxGeometry x="196" width="91" height="27" as="geometry">
            <mxRectangle width="91" height="27" as="alternateBounds" />
          </mxGeometry>
        </mxCell>
      </root>
    </mxGraphModel>
  </diagram>
</mxfile>
